SplineFontDB: 3.1
FontName: Untitled1
FullName: Untitled1
FamilyName: Untitled1
Weight: Regular
Copyright: Copyright (c) 2019, jhudson
UComments: "2019-7-21: Created with FontForge (http://fontforge.org)"
Version: 001.000
ItalicAngle: 0
UnderlinePosition: -204
UnderlineWidth: 102
Ascent: 1598
Descent: 450
InvalidEm: 0
LayerCount: 2
Layer: 0 0 "Back" 1
Layer: 1 0 "Fore" 0
XUID: [1021 221 1603365728 5794228]
FSType: 0
OS2Version: 0
OS2_WeightWidthSlopeOnly: 0
OS2_UseTypoMetrics: 1
CreationTime: 1563748784
ModificationTime: 1565233917
PfmFamily: 17
TTFWeight: 400
TTFWidth: 5
LineGap: 184
VLineGap: 0
OS2TypoAscent: 0
OS2TypoAOffset: 1
OS2TypoDescent: 0
OS2TypoDOffset: 1
OS2TypoLinegap: 184
OS2WinAscent: 0
OS2WinAOffset: 1
OS2WinDescent: 0
OS2WinDOffset: 1
HheadAscent: 0
HheadAOffset: 1
HheadDescent: 0
HheadDOffset: 1
OS2Vendor: 'PfEd'
Lookup: 258 0 0 "kerning" { "kerning-1" [150,0,2] "kerning-2" [307,30,4] } ['kern' ('DFLT' <'dflt' > 'latn' <'dflt' > ) ]
MarkAttachClasses: 1
DEI: 91125
KernClass2: 31 21 "kerning-2"
 50 A Agrave Aacute Acircumflex Atilde Adieresis Aring
 15 C Euro Ccedilla
 55 zero D G O Q Ograve Oacute Ocircumflex Otilde Odieresis
 3 F P
 56 H I J M N U d Ntilde Ugrave Uacute Ucircumflex Udieresis
 1 L
 1 T
 1 W
 18 Y Ydieresis Yacute
 1 V
 8 Z Zcaron
 8 S Scaron
 1 R
 1 K
 37 E Egrave Eacute Ecircumflex Edieresis
 1 B
 1 X
 92 .notdef e o p egrave eacute ecircumflex edieresis ograve oacute ocircumflex otilde odieresis
 15 c cent ccedilla
 1 f
 41 i j l igrave iacute icircumflex idieresis
 3 k x
 107 a g h m n q s u agrave aacute acircumflex atilde adieresis aring ntilde ugrave uacute ucircumflex udieresis
 1 r
 1 t
 22 v w y yacute ydieresis
 8 z zcaron
 27 comma period quotesinglbase
 5 slash
 9 parenleft
 53 A Agrave Aacute Acircumflex Atilde Adieresis Aring AE

StartChar: A
Encoding: 65 65 0
Width: 1162
VWidth: 0
Flags: HW
HStem: 0 21G<6 278.584 935.752 1208> 298 248<477 745> 1246 20G<483 737.551>
LayerCount: 2
UndoRedoHistory
Layer: 1
Undoes
UndoOperation
Index: 0
Type: 7
WasModified: 1
WasOrder2: 0
Layer: 2
Width: 1172
EndUndoOperation
UndoOperation
Index: 1
Type: 3
WasModified: 0
WasOrder2: 0
Layer: 2
HStem: 0 21G<15 287.584 944.752 1217> 298 248<486 754> 1246 20G<492 746.551>
EndUndoOperation
UndoOperation
Index: 2
Type: 1
WasModified: 1
WasOrder2: 0
Layer: 2
Width: 1181
VWidth: 0
LBearingChange: 0
UnicodeEnc: 0
InstructionsLength: 0
SplineSet
493 1202 m 5
 686 1202 l 5
 1142 0 l 5
 949 0 l 5
 844 278 l 5
 335 278 l 5
 229 0 l 5
 37 0 l 5
 493 1202 l 5
589 949 m 5
 403 458 l 5
 776 458 l 5
 589 949 l 5
EndSplineSet
EndUndoOperation
UndoOperation
Index: 3
Type: 1
WasModified: 1
WasOrder2: 0
Layer: 2
Width: 1181
VWidth: 0
LBearingChange: 0
UnicodeEnc: 0
InstructionsLength: 0
SplineSet
493 1202 m 5
 686 1202 l 5
 1142 0 l 5
 949 0 l 5
 844 278 l 5
 335 278 l 5
 229 0 l 5
 37 0 l 5
 493 1202 l 5
589 949 m 5
 403 458 l 5
 776 458 l 5
 589 949 l 5
EndSplineSet
EndUndoOperation
UndoOperation
Index: 4
Type: 1
WasModified: 0
WasOrder2: 0
Layer: 2
Width: 1181
VWidth: 0
LBearingChange: 0
UnicodeEnc: 0
InstructionsLength: 0
SplineSet
493 1202 m 5
 686 1202 l 5
 1142 0 l 5
 949 0 l 5
 844 278 l 5
 335 278 l 5
 229 0 l 5
 37 0 l 5
 493 1202 l 5
589 949 m 5
 403 458 l 5
 776 458 l 5
 589 949 l 5
EndSplineSet
EndUndoOperation
UndoOperation
Index: 5
Type: 7
WasModified: 1
WasOrder2: 0
Layer: 2
Width: 1245
EndUndoOperation
EndUndoes
Redoes
EndRedoes
EndUndoRedoHistory
Fore
SplineSet
484 1202 m 5
 677 1202 l 5
 1133 0 l 5
 940 0 l 5
 835 278 l 5
 326 278 l 5
 220 0 l 5
 28 0 l 5
 484 1202 l 5
580 949 m 5
 394 458 l 5
 767 458 l 5
 580 949 l 5
EndSplineSet
EndChar

StartChar: B
Encoding: 66 66 1
Width: 912
VWidth: 0
Flags: HW
HStem: -0 248<250 561.066> 546 248<250 549.849> 1018 248<250 548.055>
VStem: 2 248<248 546 794 1018> 573 248<816.35 995.595> 607 248<290.914 501.859>
LayerCount: 2
UndoRedoHistory
Layer: 1
Undoes
UndoOperation
Index: 0
Type: 7
WasModified: 0
WasOrder2: 0
Layer: 2
Width: 918
EndUndoOperation
UndoOperation
Index: 1
Type: 1
WasModified: 1
WasOrder2: 0
Layer: 2
Width: 918
VWidth: 0
LBearingChange: 0
UnicodeEnc: 0
InstructionsLength: 0
SplineSet
491 1213 m 2
 670 1213 832 1068 832 879 c 0
 832 801 805 725 750 671 c 4
 745 666 734 656 734 656 c 5
 734 656 745 644 749 639 c 4
 819 563 862 462 862 362 c 0
 862 330 858 298 848 266 c 4
 811 139 697 36 568 17 c 4
 503 7 438 4 372 4 c 0
 284 4 196 9 108 9 c 0
 96 9 84 9 72 9 c 5
 72 1213 l 5
 491 1213 l 2
508 1027 m 4
 423 1027 373 1026 259 1026 c 5
 259 731 l 5
 508 731 l 6
 593 731 644 792 644 882 c 4
 644 955 593 1027 508 1027 c 4
508 561 m 6
 259 560 l 5
 259 195 l 5
 522 195 l 6
 627 195 677 290 677 373 c 0
 677 471 624 561 508 561 c 6
EndSplineSet
EndUndoOperation
UndoOperation
Index: 2
Type: 1
WasModified: 1
WasOrder2: 0
Layer: 2
Width: 918
VWidth: 0
LBearingChange: 0
UnicodeEnc: 0
InstructionsLength: 0
SplineSet
491 1213 m 2
 670 1213 832 1068 832 879 c 0
 832 801 805 725 750 671 c 4
 745 666 734 656 734 656 c 5
 734 656 745 644 749 639 c 4
 819 563 862 462 862 362 c 0
 862 330 858 298 848 266 c 4
 811 139 697 36 568 17 c 4
 503 7 438 4 372 4 c 0
 284 4 196 9 108 9 c 0
 96 9 84 9 72 9 c 5
 72 1213 l 5
 491 1213 l 2
508 1027 m 4
 423 1027 373 1026 259 1026 c 5
 259 731 l 5
 508 731 l 6
 593 731 644 792 644 882 c 4
 644 955 593 1027 508 1027 c 4
508 561 m 6
 259 560 l 5
 259 195 l 5
 522 195 l 6
 627 195 677 290 677 373 c 0
 677 471 624 561 508 561 c 6
EndSplineSet
EndUndoOperation
UndoOperation
Index: 3
Type: 1
WasModified: 0
WasOrder2: 0
Layer: 2
Width: 918
VWidth: 0
LBearingChange: 0
UnicodeEnc: 0
InstructionsLength: 0
SplineSet
491 1213 m 2
 669.955078125 1213 832 1067.75488281 832 879 c 0
 832 801 805 725 750 671 c 4
 745 666 734 656 734 656 c 5
 734 656 745 644 749 639 c 4
 819 563 862 462 862 362 c 0
 862 330 858 298 848 266 c 4
 811 139 697 36 568 17 c 4
 503 7 438 4 372 4 c 0
 284 4 196 9 108 9 c 0
 96 9 84 9 72 9 c 5
 72 1213 l 5
 491 1213 l 2
508 1027 m 4
 423 1027 373 1026 259 1026 c 5
 259 731 l 5
 508 731 l 6
 593 731 644 792 644 882 c 4
 644 955 593 1027 508 1027 c 4
508 561 m 6
 259 560 l 5
 259 195 l 5
 522 195 l 6
 627 195 677 290 677 373 c 0
 677 471 624 561 508 561 c 6
EndSplineSet
EndUndoOperation
UndoOperation
Index: 4
Type: 7
WasModified: 1
WasOrder2: 0
Layer: 2
Width: 906
EndUndoOperation
EndUndoes
Redoes
EndRedoes
EndUndoRedoHistory
Fore
SplineSet
491 1213 m 2
 670 1213 832 1068 832 879 c 0
 832 801 805 725 750 671 c 4
 745 666 734 656 734 656 c 5
 734 656 745 644 749 639 c 4
 819 563 862 462 862 362 c 0
 862 330 858 298 848 266 c 4
 811 139 697 36 568 17 c 4
 503 7 438 4 372 4 c 0
 284 4 196 9 108 9 c 0
 96 9 84 9 72 9 c 5
 72 1213 l 5
 491 1213 l 2
508 1027 m 4
 423 1027 373 1026 259 1026 c 5
 259 731 l 5
 508 731 l 6
 593 731 644 792 644 882 c 4
 644 955 593 1027 508 1027 c 4
508 561 m 6
 259 560 l 5
 259 195 l 5
 522 195 l 6
 627 195 677 290 677 373 c 0
 677 471 624 561 508 561 c 6
EndSplineSet
EndChar

StartChar: C
Encoding: 67 67 2
Width: 959
VWidth: 0
Flags: HW
HStem: -22 248<461.165 730.934> 1040 248<459.065 727.143>
VStem: 41 255<418.118 842.014>
LayerCount: 2
UndoRedoHistory
Layer: 1
Undoes
UndoOperation
Index: 0
Type: 7
WasModified: 1
WasOrder2: 0
Layer: 2
Width: 968
EndUndoOperation
UndoOperation
Index: 1
Type: 3
WasModified: 0
WasOrder2: 0
Layer: 2
HStem: -22 248<466.165 735.934> 1040 248<464.065 732.143>
VStem: 46 255<418.118 842.014>
EndUndoOperation
UndoOperation
Index: 2
Type: 1
WasModified: 1
WasOrder2: 0
Layer: 2
Width: 973
VWidth: 0
LBearingChange: 0
UnicodeEnc: 0
InstructionsLength: 0
SplineSet
52 612 m 0
 52 927 263 1241 570 1245 c 4
 571 1245 572 1245 573 1245 c 0
 696 1245 816 1188 902 1102 c 5
 857 1062 811 1021 766 981 c 5
 760 981 753 991 747 995 c 4
 699 1038 636 1061 572 1061 c 0
 543 1061 513 1056 485 1046 c 4
 334 989 242 815 242 615 c 0
 242 407 348 208 525 171 c 4
 541 168 556 166 572 166 c 0
 654 166 733 208 786 269 c 5
 835 232 882 194 931 157 c 5
 924 149 917 142 910 134 c 4
 824 40 698 -17 571 -17 c 0
 544 -17 516 -14 489 -9 c 4
 234 42 52 313 52 612 c 0
EndSplineSet
EndUndoOperation
UndoOperation
Index: 3
Type: 1
WasModified: 1
WasOrder2: 0
Layer: 2
Width: 973
VWidth: 0
LBearingChange: 0
UnicodeEnc: 0
InstructionsLength: 0
SplineSet
52 612 m 0
 52 927 263 1241 570 1245 c 4
 571 1245 572 1245 573 1245 c 0
 696 1245 816 1188 902 1102 c 5
 857 1062 811 1021 766 981 c 5
 760 981 753 991 747 995 c 4
 699 1038 636 1061 572 1061 c 0
 543 1061 513 1056 485 1046 c 4
 334 989 242 815 242 615 c 0
 242 407 348 208 525 171 c 4
 541 168 556 166 572 166 c 0
 654 166 733 208 786 269 c 5
 835 232 882 194 931 157 c 5
 924 149 917 142 910 134 c 4
 824 40 698 -17 571 -17 c 0
 544 -17 516 -14 489 -9 c 4
 234 42 52 313 52 612 c 0
EndSplineSet
EndUndoOperation
UndoOperation
Index: 4
Type: 1
WasModified: 0
WasOrder2: 0
Layer: 2
Width: 973
VWidth: 0
LBearingChange: 0
UnicodeEnc: 0
InstructionsLength: 0
SplineSet
52 612 m 0
 52 927.399218602 262.741881008 1241.11065672 570 1245 c 4
 571 1245 572 1245 573 1245 c 0
 696 1245 816 1188 902 1102 c 5
 857 1062 811 1021 766 981 c 5
 760 981 753 991 747 995 c 4
 699 1038 636 1061 572 1061 c 0
 543 1061 513 1056 485 1046 c 4
 334.000616096 988.55458221 242 815.071058918 242 615 c 0
 242 406.859627567 347.929111918 207.816719304 525 171 c 4
 541 168 556 166 572 166 c 0
 654 166 733 208 786 269 c 5
 835 232 882 194 931 157 c 5
 924 149 917 142 910 134 c 4
 824 40 698 -17 571 -17 c 0
 544 -17 516 -14 489 -9 c 4
 234.245943521 41.9508112957 52 313.253147734 52 612 c 0
EndSplineSet
EndUndoOperation
UndoOperation
Index: 5
Type: 7
WasModified: 0
WasOrder2: 0
Layer: 2
Width: 1035
EndUndoOperation
EndUndoes
Redoes
EndRedoes
EndUndoRedoHistory
Fore
SplineSet
47 612 m 0
 47 927 258 1241 565 1245 c 4
 566 1245 567 1245 568 1245 c 0
 691 1245 811 1188 897 1102 c 5
 852 1062 806 1021 761 981 c 5
 755 981 748 991 742 995 c 4
 694 1038 631 1061 567 1061 c 0
 538 1061 508 1056 480 1046 c 4
 329 989 237 815 237 615 c 0
 237 407 343 208 520 171 c 4
 536 168 551 166 567 166 c 0
 649 166 728 208 781 269 c 5
 830 232 877 194 926 157 c 5
 919 149 912 142 905 134 c 4
 819 40 693 -17 566 -17 c 0
 539 -17 511 -14 484 -9 c 4
 229 42 47 313 47 612 c 0
EndSplineSet
EndChar

StartChar: D
Encoding: 68 68 3
Width: 1033
VWidth: 0
Flags: HW
HStem: 0 248<265 560.253> 1018 248<265 558.793>
VStem: 17 248<248 1018> 738 248<441.517 821.173>
LayerCount: 2
UndoRedoHistory
Layer: 1
Undoes
UndoOperation
Index: 0
Type: 7
WasModified: 0
WasOrder2: 0
Layer: 2
Width: 1039
EndUndoOperation
UndoOperation
Index: 1
Type: 1
WasModified: 1
WasOrder2: 0
Layer: 2
Width: 1039
VWidth: 0
LBearingChange: 0
UnicodeEnc: 0
InstructionsLength: 0
SplineSet
438 1212 m 4
 440 1212 442 1212 444 1212 c 0
 594 1212 738 1134 833 1019 c 4
 929 904 978 755 978 606 c 0
 978 302 785 69 539 17 c 5
 466 8 392 6 319 6 c 0
 256 6 193 8 130 8 c 0
 111 8 91 7 72 7 c 5
 72 1211 l 5
 194 1211 316 1212 438 1212 c 4
792 609 m 0
 792 829 641 1023 438 1025 c 5
 258 1025 l 5
 258 194 l 5
 380 194 l 6
 487 194 600 219 674 298 c 4
 752 382 792 495 792 609 c 0
EndSplineSet
EndUndoOperation
UndoOperation
Index: 2
Type: 1
WasModified: 1
WasOrder2: 0
Layer: 2
Width: 1039
VWidth: 0
LBearingChange: 0
UnicodeEnc: 0
InstructionsLength: 0
SplineSet
438 1212 m 4
 440 1212 442 1212 444 1212 c 0
 594 1212 738 1134 833 1019 c 4
 929 904 978 755 978 606 c 0
 978 302 785 69 539 17 c 5
 466 8 392 6 319 6 c 0
 256 6 193 8 130 8 c 0
 111 8 91 7 72 7 c 5
 72 1211 l 5
 194 1211 316 1212 438 1212 c 4
792 609 m 0
 792 829 641 1023 438 1025 c 5
 258 1025 l 5
 258 194 l 5
 380 194 l 6
 487 194 600 219 674 298 c 4
 752 382 792 495 792 609 c 0
EndSplineSet
EndUndoOperation
UndoOperation
Index: 3
Type: 1
WasModified: 0
WasOrder2: 0
Layer: 2
Width: 1039
VWidth: 0
LBearingChange: 0
UnicodeEnc: 0
InstructionsLength: 0
SplineSet
438 1212 m 4
 440 1212 442 1212 444 1212 c 0
 594 1212 738 1134 833 1019 c 4
 929 904 978 755 978 606 c 0
 978 301.544921875 785.466796875 68.5859375 539 17 c 5
 466 8 392 6 319 6 c 0
 256 6 193 8 130 8 c 0
 111 8 91 7 72 7 c 5
 72 1211 l 5
 194 1211 316 1212 438 1212 c 4
792 609 m 0
 792 829.290039062 640.729492188 1023.40332031 438 1025 c 5
 258 1025 l 5
 258 194 l 5
 380 194 l 6
 487 194 600 219 674 298 c 4
 752 382 792 495 792 609 c 0
EndSplineSet
EndUndoOperation
UndoOperation
Index: 4
Type: 7
WasModified: 1
WasOrder2: 0
Layer: 2
Width: 1043
EndUndoOperation
EndUndoes
Redoes
EndRedoes
EndUndoRedoHistory
Fore
SplineSet
438 1212 m 4
 440 1212 442 1212 444 1212 c 0
 594 1212 738 1134 833 1019 c 4
 929 904 978 755 978 606 c 0
 978 302 785 69 539 17 c 5
 466 8 392 6 319 6 c 0
 256 6 193 8 130 8 c 0
 111 8 91 7 72 7 c 5
 72 1211 l 5
 194 1211 316 1212 438 1212 c 4
792 609 m 0
 792 829 641 1023 438 1025 c 5
 258 1025 l 5
 258 194 l 5
 380 194 l 6
 487 194 600 219 674 298 c 4
 752 382 792 495 792 609 c 0
EndSplineSet
EndChar

StartChar: E
Encoding: 69 69 4
Width: 913
VWidth: 0
Flags: HW
HStem: 0 248<308 904> 519 248<308 741> 1018 248<308 904>
VStem: 60 248<248 519 767 1018>
LayerCount: 2
UndoRedoHistory
Layer: 1
Undoes
UndoOperation
Index: 0
Type: 7
WasModified: 0
WasOrder2: 0
Layer: 2
Width: 918
EndUndoOperation
UndoOperation
Index: 1
Type: 1
WasModified: 1
WasOrder2: 0
Layer: 2
Width: 918
VWidth: 0
LBearingChange: 0
UnicodeEnc: 0
InstructionsLength: 0
SplineSet
72 0 m 5
 72 1205 l 5
 333 1205 594 1205 855 1205 c 5
 855 1018 l 5
 259 1018 l 5
 259 914 259 810 259 706 c 5
 692 706 l 5
 692 519 l 5
 259 519 l 5
 259 187 l 5
 855 187 l 5
 855 0 l 5
 594 0 333 0 72 0 c 5
EndSplineSet
EndUndoOperation
UndoOperation
Index: 2
Type: 1
WasModified: 1
WasOrder2: 0
Layer: 2
Width: 918
VWidth: 0
LBearingChange: 0
UnicodeEnc: 0
InstructionsLength: 0
SplineSet
72 0 m 5
 72 1205 l 5
 333 1205 594 1205 855 1205 c 5
 855 1018 l 5
 259 1018 l 5
 259 914 259 810 259 706 c 5
 692 706 l 5
 692 519 l 5
 259 519 l 5
 259 187 l 5
 855 187 l 5
 855 0 l 5
 594 0 333 0 72 0 c 5
EndSplineSet
EndUndoOperation
UndoOperation
Index: 3
Type: 1
WasModified: 0
WasOrder2: 0
Layer: 2
Width: 918
VWidth: 0
LBearingChange: 0
UnicodeEnc: 0
InstructionsLength: 0
SplineSet
72 0 m 5
 72 1205 l 5
 333 1205 594 1205 855 1205 c 5
 855 1018 l 5
 259 1018 l 5
 259 914 259 810 259 706 c 5
 692 706 l 5
 692 519 l 5
 259 519 l 5
 259 187 l 5
 855 187 l 5
 855 0 l 5
 594 0 333 0 72 0 c 5
EndSplineSet
EndUndoOperation
UndoOperation
Index: 4
Type: 7
WasModified: 1
WasOrder2: 0
Layer: 2
Width: 959
EndUndoOperation
EndUndoes
Redoes
EndRedoes
EndUndoRedoHistory
Fore
SplineSet
72 0 m 5
 72 1205 l 5
 333 1205 594 1205 855 1205 c 5
 855 1018 l 5
 259 1018 l 5
 259 914 259 810 259 706 c 5
 692 706 l 5
 692 519 l 5
 259 519 l 5
 259 187 l 5
 855 187 l 5
 855 0 l 5
 594 0 333 0 72 0 c 5
EndSplineSet
EndChar

StartChar: F
Encoding: 70 70 5
Width: 902
VWidth: 0
Flags: HW
HStem: 0 21G<-11 237> 486 248<237 660> 1018 248<237 833>
VStem: -11 248<0 486 734 1018>
LayerCount: 2
UndoRedoHistory
Layer: 1
Undoes
UndoOperation
Index: 0
Type: 7
WasModified: 0
WasOrder2: 0
Layer: 2
Width: 909
EndUndoOperation
UndoOperation
Index: 1
Type: 1
WasModified: 1
WasOrder2: 0
Layer: 2
Width: 909
VWidth: 0
LBearingChange: 0
UnicodeEnc: 0
InstructionsLength: 0
SplineSet
72 0 m 5
 72 1205 l 5
 333 1205 594 1205 855 1205 c 5
 855 1018 l 5
 259 1018 l 5
 259 672 l 5
 400 672 541 672 682 672 c 5
 682 610 682 548 682 486 c 5
 541 486 400 486 259 486 c 5
 259 324 259 162 259 0 c 5
 72 0 l 5
EndSplineSet
EndUndoOperation
UndoOperation
Index: 2
Type: 1
WasModified: 1
WasOrder2: 0
Layer: 2
Width: 909
VWidth: 0
LBearingChange: 0
UnicodeEnc: 0
InstructionsLength: 0
SplineSet
72 0 m 5
 72 1205 l 5
 333 1205 594 1205 855 1205 c 5
 855 1018 l 5
 259 1018 l 5
 259 672 l 5
 400 672 541 672 682 672 c 5
 682 610 682 548 682 486 c 5
 541 486 400 486 259 486 c 5
 259 324 259 162 259 0 c 5
 72 0 l 5
EndSplineSet
EndUndoOperation
UndoOperation
Index: 3
Type: 1
WasModified: 0
WasOrder2: 0
Layer: 2
Width: 909
VWidth: 0
LBearingChange: 0
UnicodeEnc: 0
InstructionsLength: 0
SplineSet
72 0 m 5
 72 1205 l 5
 333 1205 594 1205 855 1205 c 5
 855 1018 l 5
 259 1018 l 5
 259 672 l 5
 400 672 541 672 682 672 c 5
 682 610 682 548 682 486 c 5
 541 486 400 486 259 486 c 5
 259 324 259 162 259 0 c 5
 72 0 l 5
EndSplineSet
EndUndoOperation
UndoOperation
Index: 4
Type: 7
WasModified: 1
WasOrder2: 0
Layer: 2
Width: 839
EndUndoOperation
EndUndoes
Redoes
EndRedoes
EndUndoRedoHistory
Fore
SplineSet
72 0 m 5
 72 1205 l 5
 333 1205 594 1205 855 1205 c 5
 855 1018 l 5
 259 1018 l 5
 259 672 l 5
 400 672 541 672 682 672 c 5
 682 610 682 548 682 486 c 5
 541 486 400 486 259 486 c 5
 259 324 259 162 259 0 c 5
 72 0 l 5
EndSplineSet
EndChar

StartChar: G
Encoding: 71 71 6
Width: 1054
VWidth: 0
Flags: HW
LayerCount: 2
UndoRedoHistory
Layer: 1
Undoes
UndoOperation
Index: 0
Type: 7
WasModified: 1
WasOrder2: 0
Layer: 2
Width: 1058
EndUndoOperation
UndoOperation
Index: 1
Type: 3
WasModified: 0
WasOrder2: 0
Layer: 2
EndUndoOperation
UndoOperation
Index: 2
Type: 1
WasModified: 1
WasOrder2: 0
Layer: 2
Width: 1063
VWidth: 0
LBearingChange: 0
UnicodeEnc: 0
InstructionsLength: 0
SplineSet
51 641 m 0
 51 954 262 1269 568 1273 c 4
 570 1273 572 1273 574 1273 c 0
 697 1273 815 1217 902 1131 c 5
 857 1089 810 1049 765 1008 c 5
 717 1055 653 1090 573 1090 c 0
 358 1090 242 842 242 647 c 0
 242 438 354 195 578 195 c 0
 611 195 645 201 676 214 c 4
 728 237 783 266 807 321 c 5
 812 362 813 427 813 475 c 0
 813 511 812 538 812 538 c 5
 661 538 l 5
 661 693 l 5
 995 693 l 5
 995 358 l 2
 995 224 904 142 820 87 c 4
 746 39 658 11 570 11 c 0
 536 11 501 15 468 24 c 4
 226 86 51 347 51 641 c 0
EndSplineSet
EndUndoOperation
UndoOperation
Index: 3
Type: 1
WasModified: 1
WasOrder2: 0
Layer: 2
Width: 1063
VWidth: 0
LBearingChange: 0
UnicodeEnc: 0
InstructionsLength: 0
SplineSet
51 641 m 0
 51 954 262 1269 568 1273 c 4
 570 1273 572 1273 574 1273 c 0
 697 1273 815 1217 902 1131 c 5
 857 1089 810 1049 765 1008 c 5
 717 1055 653 1090 573 1090 c 0
 358 1090 242 842 242 647 c 0
 242 438 354 195 578 195 c 0
 611 195 645 201 676 214 c 4
 728 237 783 266 807 321 c 5
 812 362 813 427 813 475 c 0
 813 511 812 538 812 538 c 5
 661 538 l 5
 661 693 l 5
 995 693 l 5
 995 358 l 2
 995 224 904 142 820 87 c 4
 746 39 658 11 570 11 c 0
 536 11 501 15 468 24 c 4
 226 86 51 347 51 641 c 0
EndSplineSet
EndUndoOperation
UndoOperation
Index: 4
Type: 1
WasModified: 0
WasOrder2: 0
Layer: 2
Width: 1063
VWidth: 0
LBearingChange: 0
UnicodeEnc: 0
InstructionsLength: 0
SplineSet
51 641 m 0
 51 954.40234375 261.5625 1269.07128906 568 1273 c 4
 570 1273 572 1273 574 1273 c 0
 697 1273 815 1217 902 1131 c 5
 857 1089 810 1049 765 1008 c 5
 716.831054688 1055.02246094 652.810546875 1090 573 1090 c 0
 357.909179688 1090 242 842.374023438 242 647 c 0
 242 438.484375 353.534179688 195 578 195 c 0
 611 195 645 201 676 214 c 4
 728 237 783 266 807 321 c 5
 812 362 813 427 813 475 c 0
 813 511 812 538 812 538 c 5
 661 538 l 5
 661 693 l 5
 995 693 l 5
 995 358 l 2
 995 224.326171875 903.51953125 142.208007812 820 87 c 4
 746 39 658 11 570 11 c 0
 536 11 501 15 468 24 c 4
 225.666992188 85.9501953125 51 346.524414062 51 641 c 0
EndSplineSet
EndUndoOperation
UndoOperation
Index: 5
Type: 7
WasModified: 1
WasOrder2: 0
Layer: 2
Width: 1125
EndUndoOperation
EndUndoes
Redoes
EndRedoes
EndUndoRedoHistory
Fore
SplineSet
46 641 m 0
 46 954 257 1269 563 1273 c 4
 565 1273 567 1273 569 1273 c 0
 692 1273 810 1217 897 1131 c 5
 852 1089 805 1049 760 1008 c 5
 712 1055 648 1090 568 1090 c 0
 353 1090 237 842 237 647 c 0
 237 438 349 195 573 195 c 0
 606 195 640 201 671 214 c 4
 723 237 778 266 802 321 c 5
 807 362 808 427 808 475 c 0
 808 511 807 538 807 538 c 5
 656 538 l 5
 656 693 l 5
 990 693 l 5
 990 358 l 2
 990 224 899 142 815 87 c 4
 741 39 653 11 565 11 c 0
 531 11 496 15 463 24 c 4
 221 86 46 347 46 641 c 0
EndSplineSet
EndChar

StartChar: H
Encoding: 72 72 7
Width: 1081
VWidth: 0
Flags: HW
HStem: 0 21G<52 300 797 1045> 509 248<300 797> 1246 20G<52 300 797 1045>
VStem: 52 248<0 509 757 1266> 797 248<0 509 757 1266>
LayerCount: 2
UndoRedoHistory
Layer: 1
Undoes
UndoOperation
Index: 0
Type: 1
WasModified: 1
WasOrder2: 0
Layer: 2
Width: 1081
VWidth: 0
LBearingChange: 0
UnicodeEnc: 0
InstructionsLength: 0
SplineSet
72 0 m 5
 72 1205 l 5
 134 1205 196 1205 258 1205 c 5
 258 696 l 5
 444 696 630 696 816 696 c 5
 816 1205 l 5
 1003 1205 l 5
 1003 0 l 5
 816 0 l 5
 816 509 l 5
 630 509 444 509 258 509 c 5
 258 0 l 5
 196 0 134 0 72 0 c 5
EndSplineSet
EndUndoOperation
UndoOperation
Index: 1
Type: 1
WasModified: 1
WasOrder2: 0
Layer: 2
Width: 1081
VWidth: 0
LBearingChange: 0
UnicodeEnc: 0
InstructionsLength: 0
SplineSet
72 0 m 5
 72 1205 l 5
 134 1205 196 1205 258 1205 c 5
 258 696 l 5
 444 696 630 696 816 696 c 5
 816 1205 l 5
 1003 1205 l 5
 1003 0 l 5
 816 0 l 5
 816 509 l 5
 630 509 444 509 258 509 c 5
 258 0 l 5
 196 0 134 0 72 0 c 5
EndSplineSet
EndUndoOperation
UndoOperation
Index: 2
Type: 1
WasModified: 0
WasOrder2: 0
Layer: 2
Width: 1081
VWidth: 0
LBearingChange: 0
UnicodeEnc: 0
InstructionsLength: 0
SplineSet
72 0 m 5
 72 1205 l 5
 134 1205 196 1205 258 1205 c 5
 258 696 l 5
 444 696 630 696 816 696 c 5
 816 1205 l 5
 1003 1205 l 5
 1003 0 l 5
 816 0 l 5
 816 509 l 5
 630 509 444 509 258 509 c 5
 258 0 l 5
 196 0 134 0 72 0 c 5
EndSplineSet
EndUndoOperation
UndoOperation
Index: 3
Type: 7
WasModified: 1
WasOrder2: 0
Layer: 2
Width: 1124
EndUndoOperation
EndUndoes
Redoes
EndRedoes
EndUndoRedoHistory
Fore
SplineSet
72 0 m 5
 72 1205 l 5
 134 1205 196 1205 258 1205 c 5
 258 696 l 5
 444 696 630 696 816 696 c 5
 816 1205 l 5
 1003 1205 l 5
 1003 0 l 5
 816 0 l 5
 816 509 l 5
 630 509 444 509 258 509 c 5
 258 0 l 5
 196 0 134 0 72 0 c 5
EndSplineSet
EndChar

StartChar: I
Encoding: 73 73 8
Width: 334
VWidth: 0
Flags: HW
HStem: 0 21G<38 286> 1246 20G<38 286>
VStem: 38 248<0 1266>
LayerCount: 2
UndoRedoHistory
Layer: 1
Undoes
UndoOperation
Index: 0
Type: 1
WasModified: 1
WasOrder2: 0
Layer: 2
Width: 334
VWidth: 0
LBearingChange: 0
UnicodeEnc: 0
InstructionsLength: 0
SplineSet
72 0 m 5
 72 1202 l 5
 256 1202 l 5
 256 0 l 5
 72 0 l 5
EndSplineSet
EndUndoOperation
UndoOperation
Index: 1
Type: 1
WasModified: 1
WasOrder2: 0
Layer: 2
Width: 334
VWidth: 0
LBearingChange: 0
UnicodeEnc: 0
InstructionsLength: 0
SplineSet
72 0 m 5
 72 1202 l 5
 256 1202 l 5
 256 0 l 5
 72 0 l 5
EndSplineSet
EndUndoOperation
UndoOperation
Index: 2
Type: 1
WasModified: 0
WasOrder2: 0
Layer: 2
Width: 334
VWidth: 0
LBearingChange: 0
UnicodeEnc: 0
InstructionsLength: 0
SplineSet
72 0 m 5
 72 1202 l 5
 256 1202 l 5
 256 0 l 5
 72 0 l 5
EndSplineSet
EndUndoOperation
UndoOperation
Index: 3
Type: 7
WasModified: 1
WasOrder2: 0
Layer: 2
Width: 391
EndUndoOperation
EndUndoes
Redoes
EndRedoes
EndUndoRedoHistory
Fore
SplineSet
72 0 m 5
 72 1202 l 5
 256 1202 l 5
 256 0 l 5
 72 0 l 5
EndSplineSet
EndChar

StartChar: N
Encoding: 78 78 13
Width: 1106
VWidth: 0
Flags: HW
HStem: 0 21G<35 283 792.063 1053> 1246 20G<35 295.921 805 1053>
VStem: 35 248<0 807> 805 248<458 1266>
LayerCount: 2
UndoRedoHistory
Layer: 1
Undoes
UndoOperation
Index: 0
Type: 1
WasModified: 1
WasOrder2: 0
Layer: 2
Width: 1106
VWidth: 0
LBearingChange: 0
UnicodeEnc: 0
InstructionsLength: 0
SplineSet
72 0 m 5
 72 1205 l 5
 272 1205 l 5
 462 911 651 617 841 323 c 5
 841 617 841 911 841 1205 c 5
 1028 1205 l 5
 1028 0 l 5
 961 0 894 0 827 0 c 5
 637 294 448 587 258 881 c 5
 258 0 l 5
 196 0 134 0 72 0 c 5
EndSplineSet
EndUndoOperation
UndoOperation
Index: 1
Type: 1
WasModified: 1
WasOrder2: 0
Layer: 2
Width: 1106
VWidth: 0
LBearingChange: 0
UnicodeEnc: 0
InstructionsLength: 0
SplineSet
72 0 m 5
 72 1205 l 5
 272 1205 l 5
 462 911 651 617 841 323 c 5
 841 617 841 911 841 1205 c 5
 1028 1205 l 5
 1028 0 l 5
 961 0 894 0 827 0 c 5
 637 294 448 587 258 881 c 5
 258 0 l 5
 196 0 134 0 72 0 c 5
EndSplineSet
EndUndoOperation
UndoOperation
Index: 2
Type: 1
WasModified: 0
WasOrder2: 0
Layer: 2
Width: 1106
VWidth: 0
LBearingChange: 0
UnicodeEnc: 0
InstructionsLength: 0
SplineSet
72 0 m 5
 72 1205 l 5
 272 1205 l 5
 462 911 651 617 841 323 c 5
 841 617 841 911 841 1205 c 5
 1028 1205 l 5
 1028 0 l 5
 961 0 894 0 827 0 c 5
 637 294 448 587 258 881 c 5
 258 0 l 5
 196 0 134 0 72 0 c 5
EndSplineSet
EndUndoOperation
UndoOperation
Index: 3
Type: 7
WasModified: 1
WasOrder2: 0
Layer: 2
Width: 1132
EndUndoOperation
EndUndoes
Redoes
EndRedoes
EndUndoRedoHistory
Fore
SplineSet
72 0 m 5
 72 1205 l 5
 272 1205 l 5
 462 911 651 617 841 323 c 5
 841 617 841 911 841 1205 c 5
 1028 1205 l 5
 1028 0 l 5
 961 0 894 0 827 0 c 5
 637 294 448 587 258 881 c 5
 258 0 l 5
 196 0 134 0 72 0 c 5
EndSplineSet
EndChar

StartChar: O
Encoding: 79 79 14
Width: 1189
VWidth: 0
Flags: HW
HStem: -24 248<424.34 723.66> 1040 248<434.901 713.099>
VStem: -2 248<421.661 830.711> 902 248<421.661 830.711>
LayerCount: 2
UndoRedoHistory
Layer: 1
Undoes
UndoOperation
Index: 0
Type: 7
WasModified: 1
WasOrder2: 0
Layer: 2
Width: 1195
EndUndoOperation
UndoOperation
Index: 1
Type: 3
WasModified: 0
WasOrder2: 0
Layer: 2
HStem: -24 248<430.34 729.66> 1040 248<440.901 719.099>
VStem: 4 248<421.661 830.711> 908 248<421.661 830.711>
EndUndoOperation
UndoOperation
Index: 2
Type: 1
WasModified: 1
WasOrder2: 0
Layer: 2
Width: 1201
VWidth: 0
LBearingChange: 0
UnicodeEnc: 0
InstructionsLength: 0
SplineSet
592 1261 m 2
 601 1261 l 2
 676 1261 751 1241 818 1206 c 4
 958 1134 1058 998 1105 850 c 4
 1128 779 1140 705 1140 630 c 0
 1140 472 1088 314 987 192 c 5
 894 73 746 -1 594 -1 c 0
 272 -1 52 309 52 630 c 0
 52 769 91 907 169 1022 c 5
 261 1163 422 1261 592 1261 c 2
956 631 m 0
 956 855 811 1076 596 1078 c 4
 569 1078 541 1074 515 1066 c 4
 349 1017 235 840 235 630 c 0
 235 410 377 189 589 183 c 5
 597 183 l 2
 816 183 956 419 956 631 c 0
EndSplineSet
EndUndoOperation
UndoOperation
Index: 3
Type: 1
WasModified: 1
WasOrder2: 0
Layer: 2
Width: 1201
VWidth: 0
LBearingChange: 0
UnicodeEnc: 0
InstructionsLength: 0
SplineSet
592 1261 m 2
 601 1261 l 2
 676 1261 751 1241 818 1206 c 4
 958 1134 1058 998 1105 850 c 4
 1128 779 1140 705 1140 630 c 0
 1140 472 1088 314 987 192 c 5
 894 73 746 -1 594 -1 c 0
 272 -1 52 309 52 630 c 0
 52 769 91 907 169 1022 c 5
 261 1163 422 1261 592 1261 c 2
956 631 m 0
 956 855 811 1076 596 1078 c 4
 569 1078 541 1074 515 1066 c 4
 349 1017 235 840 235 630 c 0
 235 410 377 189 589 183 c 5
 597 183 l 2
 816 183 956 419 956 631 c 0
EndSplineSet
EndUndoOperation
UndoOperation
Index: 4
Type: 1
WasModified: 0
WasOrder2: 0
Layer: 2
Width: 1201
VWidth: 0
LBearingChange: 0
UnicodeEnc: 0
InstructionsLength: 0
SplineSet
592 1261 m 2
 601 1261 l 2
 676 1261 751 1241 818 1206 c 4
 958 1134 1058 998 1105 850 c 4
 1128 779 1140 705 1140 630 c 0
 1140 472 1088 314 987 192 c 5
 894 73 746 -1 594 -1 c 0
 271.557617188 -1 52 309.2734375 52 630 c 0
 52 769 91 907 169 1022 c 5
 261 1163 422 1261 592 1261 c 2
956 631 m 0
 956 855.297851562 811.32421875 1076.17480469 596 1078 c 4
 569 1078 541 1074 515 1066 c 4
 348.837890625 1016.94238281 235 840.465820312 235 630 c 0
 235 410.194335938 376.500976562 188.848632812 589 183 c 5
 597 183 l 2
 816.356445312 183 956 419.0390625 956 631 c 0
EndSplineSet
EndUndoOperation
UndoOperation
Index: 5
Type: 7
WasModified: 1
WasOrder2: 0
Layer: 2
Width: 1213
EndUndoOperation
EndUndoes
Redoes
EndRedoes
EndUndoRedoHistory
Fore
SplineSet
586 1261 m 2
 595 1261 l 2
 670 1261 745 1241 812 1206 c 4
 952 1134 1052 998 1099 850 c 4
 1122 779 1134 705 1134 630 c 0
 1134 472 1082 314 981 192 c 5
 888 73 740 -1 588 -1 c 0
 266 -1 46 309 46 630 c 0
 46 769 85 907 163 1022 c 5
 255 1163 416 1261 586 1261 c 2
950 631 m 0
 950 855 805 1076 590 1078 c 4
 563 1078 535 1074 509 1066 c 4
 343 1017 229 840 229 630 c 0
 229 410 371 189 583 183 c 5
 591 183 l 2
 810 183 950 419 950 631 c 0
EndSplineSet
EndChar

StartChar: S
Encoding: 83 83 18
Width: 783
VWidth: 0
Flags: HW
HStem: -14 246<276.133 479.446> 1031 248<307.853 475.573>
VStem: 39 249<830.713 1012.13> 526 248<280.544 508.414>
LayerCount: 2
UndoRedoHistory
Layer: 1
Undoes
UndoOperation
Index: 0
Type: 7
WasModified: 1
WasOrder2: 0
Layer: 2
Width: 789
EndUndoOperation
UndoOperation
Index: 1
Type: 3
WasModified: 0
WasOrder2: 0
Layer: 2
HStem: -14 246<286.133 489.446> 1031 248<317.853 485.573>
VStem: 49 249<830.713 1012.13> 536 248<280.544 508.414>
EndUndoOperation
UndoOperation
Index: 2
Type: 1
WasModified: 1
WasOrder2: 0
Layer: 2
Width: 799
VWidth: 0
LBearingChange: 0
UnicodeEnc: 0
InstructionsLength: 0
SplineSet
72 914 m 0
 72 1090 216 1234 379 1237 c 0
 381 1237 383 1237 385 1237 c 0
 493 1237 602 1185 666 1097 c 1
 611 1064 557 1032 502 1000 c 1
 471 1030 429 1053 385 1053 c 0
 305 1053 256 975 256 903 c 0
 256 839 307 781 370 769 c 1
 488 762 606 704 675 606 c 0
 721 542 743 464 743 386 c 0
 743 296 713 205 655 136 c 0
 588 53 482 8 376 8 c 0
 343 8 310 13 278 22 c 0
 176 55 89 131 38 225 c 1
 98 244 158 264 218 283 c 1
 254 238 309 190 377 190 c 0
 379 190 381 190 383 190 c 0
 479 191 560 278 560 386 c 0
 560 448 533 510 481 545 c 0
 423 585 349 581 285 602 c 0
 157 647 72 780 72 914 c 0
EndSplineSet
EndUndoOperation
UndoOperation
Index: 3
Type: 1
WasModified: 1
WasOrder2: 0
Layer: 2
Width: 799
VWidth: 0
LBearingChange: 0
UnicodeEnc: 0
InstructionsLength: 0
SplineSet
72 914 m 0
 72 1090 216 1234 379 1237 c 0
 381 1237 383 1237 385 1237 c 0
 493 1237 602 1185 666 1097 c 1
 611 1064 557 1032 502 1000 c 1
 471 1030 429 1053 385 1053 c 0
 305 1053 256 975 256 903 c 0
 256 839 307 781 370 769 c 1
 488 762 606 704 675 606 c 0
 721 542 743 464 743 386 c 0
 743 296 713 205 655 136 c 0
 588 53 482 8 376 8 c 0
 343 8 310 13 278 22 c 0
 176 55 89 131 38 225 c 1
 98 244 158 264 218 283 c 1
 254 238 309 190 377 190 c 0
 379 190 381 190 383 190 c 0
 479 191 560 278 560 386 c 0
 560 448 533 510 481 545 c 0
 423 585 349 581 285 602 c 0
 157 647 72 780 72 914 c 0
EndSplineSet
EndUndoOperation
UndoOperation
Index: 4
Type: 1
WasModified: 0
WasOrder2: 0
Layer: 2
Width: 799
VWidth: 0
LBearingChange: 0
UnicodeEnc: 0
InstructionsLength: 0
SplineSet
72 914 m 0
 72 1089.85058594 216 1234 379 1237 c 0
 381 1237 383 1237 385 1237 c 0
 493 1237 602 1185 666 1097 c 1
 611 1064 557 1032 502 1000 c 1
 471 1030 429 1053 385 1053 c 0
 305.137695312 1053 256 974.7265625 256 903 c 0
 256 839 307 781 370 769 c 1
 488 762 606 704 675 606 c 0
 721 542 743 464 743 386 c 0
 743 296 713 205 655 136 c 0
 588 53 482 8 376 8 c 0
 343 8 310 13 278 22 c 0
 176 55 89 131 38 225 c 1
 98 244 158 264 218 283 c 1
 254 238 308.52734375 190 377 190 c 0
 379 190 381 190 383 190 c 0
 479 191 560 277.64453125 560 386 c 0
 560 448 533 510 481 545 c 0
 423 585 349 581 285 602 c 0
 157 647 72 780 72 914 c 0
EndSplineSet
EndUndoOperation
UndoOperation
Index: 5
Type: 7
WasModified: 1
WasOrder2: 0
Layer: 2
Width: 811
EndUndoOperation
EndUndoes
Redoes
EndRedoes
EndUndoRedoHistory
Fore
SplineSet
62 914 m 0
 62 1090 206 1234 369 1237 c 0
 371 1237 373 1237 375 1237 c 0
 483 1237 592 1185 656 1097 c 1
 601 1064 547 1032 492 1000 c 1
 461 1030 419 1053 375 1053 c 0
 295 1053 246 975 246 903 c 0
 246 839 297 781 360 769 c 1
 478 762 596 704 665 606 c 0
 711 542 733 464 733 386 c 0
 733 296 703 205 645 136 c 0
 578 53 472 8 366 8 c 0
 333 8 300 13 268 22 c 0
 166 55 79 131 28 225 c 1
 88 244 148 264 208 283 c 1
 244 238 299 190 367 190 c 0
 369 190 371 190 373 190 c 0
 469 191 550 278 550 386 c 0
 550 448 523 510 471 545 c 0
 413 585 339 581 275 602 c 0
 147 647 62 780 62 914 c 0
EndSplineSet
EndChar

StartChar: U
Encoding: 85 85 19
Width: 1031
VWidth: 0
Flags: HW
LayerCount: 2
UndoRedoHistory
Layer: 1
Undoes
UndoOperation
Index: 0
Type: 7
WasModified: 1
WasOrder2: 0
Layer: 2
Width: 1034
EndUndoOperation
UndoOperation
Index: 1
Type: 3
WasModified: 0
WasOrder2: 0
Layer: 2
EndUndoOperation
UndoOperation
Index: 2
Type: 1
WasModified: 1
WasOrder2: 0
Layer: 2
Width: 1038
VWidth: 0
LBearingChange: 0
UnicodeEnc: 0
InstructionsLength: 0
SplineSet
514 -14 m 0
 237 -14 66 239 66 474 c 2
 66 1228 l 5
 250 1228 l 5
 250 999 250 770 250 541 c 5
 249 528 249 515 249 502 c 0
 249 421 268 340 317 275 c 5
 361 209 439 168 518 168 c 0
 540 168 562 171 584 178 c 4
 687 214 759 314 776 420 c 5
 781 536 782 653 782 769 c 0
 782 889 781 1010 781 1130 c 2
 781 1228 l 5
 965 1228 l 5
 965 506 l 6
 965 498 966 490 966 482 c 0
 966 338 907 193 799 95 c 4
 723 23 618 -14 514 -14 c 0
EndSplineSet
EndUndoOperation
UndoOperation
Index: 3
Type: 1
WasModified: 1
WasOrder2: 0
Layer: 2
Width: 1038
VWidth: 0
LBearingChange: 0
UnicodeEnc: 0
InstructionsLength: 0
SplineSet
514 -14 m 0
 237 -14 66 239 66 474 c 2
 66 1228 l 5
 250 1228 l 5
 250 999 250 770 250 541 c 5
 249 528 249 515 249 502 c 0
 249 421 268 340 317 275 c 5
 361 209 439 168 518 168 c 0
 540 168 562 171 584 178 c 4
 687 214 759 314 776 420 c 5
 781 536 782 653 782 769 c 0
 782 889 781 1010 781 1130 c 2
 781 1228 l 5
 965 1228 l 5
 965 506 l 6
 965 498 966 490 966 482 c 0
 966 338 907 193 799 95 c 4
 723 23 618 -14 514 -14 c 0
EndSplineSet
EndUndoOperation
UndoOperation
Index: 4
Type: 1
WasModified: 0
WasOrder2: 0
Layer: 2
Width: 1038
VWidth: 0
LBearingChange: 0
UnicodeEnc: 0
InstructionsLength: 0
SplineSet
514 -14 m 0
 237.4609375 -14 66 239.331054688 66 474 c 2
 66 1228 l 5
 250 1228 l 5
 250 999 250 770 250 541 c 5
 249 528 249 515 249 502 c 0
 249 421 268 340 317 275 c 5
 361 209 439 168 518 168 c 0
 540 168 562 171 584 178 c 4
 687 214 759 314 776 420 c 5
 781 536 782 653 782 769 c 0
 782 889 781 1010 781 1130 c 2
 781 1228 l 5
 965 1228 l 5
 965 506 l 6
 965 498 966 490 966 482 c 0
 966 338 907 193 799 95 c 4
 723 23 618 -14 514 -14 c 0
EndSplineSet
EndUndoOperation
UndoOperation
Index: 5
Type: 7
WasModified: 1
WasOrder2: 0
Layer: 2
Width: 1089
EndUndoOperation
EndUndoes
Redoes
EndRedoes
EndUndoRedoHistory
Fore
SplineSet
510 -14 m 0
 233 -14 62 239 62 474 c 2
 62 1228 l 5
 246 1228 l 5
 246 999 246 770 246 541 c 5
 245 528 245 515 245 502 c 0
 245 421 264 340 313 275 c 5
 357 209 435 168 514 168 c 0
 536 168 558 171 580 178 c 4
 683 214 755 314 772 420 c 5
 777 536 778 653 778 769 c 0
 778 889 777 1010 777 1130 c 2
 777 1228 l 5
 961 1228 l 5
 961 506 l 6
 961 498 962 490 962 482 c 0
 962 338 903 193 795 95 c 4
 719 23 614 -14 510 -14 c 0
EndSplineSet
EndChar

StartChar: Y
Encoding: 89 89 23
Width: 930
VWidth: 0
Flags: HW
HStem: 0 21G<369 618> 1246 20G<3 298.6 665 985>
VStem: 369 249<0 639.344>
LayerCount: 2
UndoRedoHistory
Layer: 1
Undoes
UndoOperation
Index: 0
Type: 7
WasModified: 1
WasOrder2: 0
Layer: 2
Width: 941
EndUndoOperation
UndoOperation
Index: 1
Type: 3
WasModified: 0
WasOrder2: 0
Layer: 2
HStem: 0 21G<379 628> 1246 20G<13 308.6 675 995>
VStem: 379 249<0 639.344>
EndUndoOperation
UndoOperation
Index: 2
Type: 1
WasModified: 1
WasOrder2: 0
Layer: 2
Width: 951
VWidth: 0
LBearingChange: 0
UnicodeEnc: 0
InstructionsLength: 0
SplineSet
382 534 m 5
 38 1202 l 5
 249 1202 l 5
 323 1048 398 893 472 739 c 5
 558 888 619 1050 699 1202 c 5
 912 1202 l 5
 570 534 l 5
 570 534 568 183 566 0 c 5
 382 0 l 5
 382 534 l 5
EndSplineSet
EndUndoOperation
UndoOperation
Index: 3
Type: 1
WasModified: 1
WasOrder2: 0
Layer: 2
Width: 951
VWidth: 0
LBearingChange: 0
UnicodeEnc: 0
InstructionsLength: 0
SplineSet
382 534 m 5
 38 1202 l 5
 249 1202 l 5
 323 1048 398 893 472 739 c 5
 558 888 619 1050 699 1202 c 5
 912 1202 l 5
 570 534 l 5
 570 534 568 183 566 0 c 5
 382 0 l 5
 382 534 l 5
EndSplineSet
EndUndoOperation
UndoOperation
Index: 4
Type: 1
WasModified: 0
WasOrder2: 0
Layer: 2
Width: 951
VWidth: 0
LBearingChange: 0
UnicodeEnc: 0
InstructionsLength: 0
SplineSet
382 534 m 5
 38 1202 l 5
 249 1202 l 5
 323 1048 398 893 472 739 c 5
 558 888 619 1050 699 1202 c 5
 912 1202 l 5
 570 534 l 5
 570 534 568 183 566 0 c 5
 382 0 l 5
 382 534 l 5
EndSplineSet
EndUndoOperation
UndoOperation
Index: 5
Type: 7
WasModified: 1
WasOrder2: 0
Layer: 2
Width: 1022
EndUndoOperation
EndUndoes
Redoes
EndRedoes
EndUndoRedoHistory
Fore
SplineSet
372 534 m 5
 28 1202 l 5
 239 1202 l 5
 313 1048 388 893 462 739 c 5
 548 888 609 1050 689 1202 c 5
 902 1202 l 5
 560 534 l 5
 560 534 558 183 556 0 c 5
 372 0 l 5
 372 534 l 5
EndSplineSet
EndChar

StartChar: Z
Encoding: 90 90 24
Width: 901
VWidth: 0
Flags: HW
HStem: 0 248<374 888> 1018 248<69 583>
LayerCount: 2
UndoRedoHistory
Layer: 1
Undoes
UndoOperation
Index: 0
Type: 7
WasModified: 1
WasOrder2: 0
Layer: 2
Width: 908
EndUndoOperation
UndoOperation
Index: 1
Type: 3
WasModified: 0
WasOrder2: 0
Layer: 2
HStem: 0 248<379 893> 1018 248<74 588>
EndUndoOperation
UndoOperation
Index: 2
Type: 1
WasModified: 1
WasOrder2: 0
Layer: 2
Width: 913
VWidth: 0
LBearingChange: 0
UnicodeEnc: 0
InstructionsLength: 0
SplineSet
78 1018 m 5
 78 1202 l 5
 858 1202 l 5
 858 996 l 5
 685 750 465 430 292 184 c 5
 833 184 l 5
 833 0 l 5
 53 0 l 5
 53 206 l 5
 615 1018 l 5
 78 1018 l 5
EndSplineSet
EndUndoOperation
UndoOperation
Index: 3
Type: 1
WasModified: 1
WasOrder2: 0
Layer: 2
Width: 913
VWidth: 0
LBearingChange: 0
UnicodeEnc: 0
InstructionsLength: 0
SplineSet
78 1018 m 5
 78 1202 l 5
 858 1202 l 5
 858 996 l 5
 685 750 465 430 292 184 c 5
 833 184 l 5
 833 0 l 5
 53 0 l 5
 53 206 l 5
 615 1018 l 5
 78 1018 l 5
EndSplineSet
EndUndoOperation
UndoOperation
Index: 4
Type: 1
WasModified: 0
WasOrder2: 0
Layer: 2
Width: 913
VWidth: 0
LBearingChange: 0
UnicodeEnc: 0
InstructionsLength: 0
SplineSet
78 1018 m 5
 78 1202 l 5
 858 1202 l 5
 858 996 l 5
 685 750 465 430 292 184 c 5
 833 184 l 5
 833 0 l 5
 53 0 l 5
 53 206 l 5
 615 1018 l 5
 78 1018 l 5
EndSplineSet
EndUndoOperation
UndoOperation
Index: 5
Type: 7
WasModified: 1
WasOrder2: 0
Layer: 2
Width: 964
EndUndoOperation
EndUndoes
Redoes
EndRedoes
EndUndoRedoHistory
Fore
SplineSet
73 1018 m 5
 73 1202 l 5
 853 1202 l 5
 853 996 l 5
 680 750 460 430 287 184 c 5
 828 184 l 5
 828 0 l 5
 48 0 l 5
 48 206 l 5
 610 1018 l 5
 73 1018 l 5
EndSplineSet
EndChar

StartChar: a
Encoding: 97 97 25
Width: 892
VWidth: 0
Flags: HW
HStem: -35 177<328.14 649.741> 385 176<402.305 651> 639 200<328.875 616.5>
VStem: 60 257<156.463 314.239> 651 245<157.824 385>
LayerCount: 2
UndoRedoHistory
Layer: 1
Undoes
UndoOperation
Index: 0
Type: 1
WasModified: 1
WasOrder2: 0
Layer: 2
Width: 892
VWidth: 0
LBearingChange: 0
UnicodeEnc: 0
InstructionsLength: 0
SplineSet
83.2138671875 595.866210938 m 5
 117.213867188 693.866210938 270.213867188 787.866210938 445.213867188 787.866210938 c 4
 585.213867188 787.866210938 721.213867188 721.866210938 784.213867188 572.866210938 c 5
 807.940429688 497.665039062 812.422851562 420.361328125 812.422851562 342.516601562 c 4
 812.422851562 295.251953125 810.770507812 247.788085938 810.770507812 200.473632812 c 4
 810.770507812 131.936523438 814.237304688 63.7138671875 831.213867188 -3.1337890625 c 5
 798.213867188 -3.1337890625 767.213867188 -4.1337890625 734.213867188 -4.1337890625 c 4
 730.19921875 -3.921875 726.18359375 -3.8447265625 722.168945312 -3.8447265625 c 4
 677.213867188 -4.1337890625 l 5
 668.342773438 13.1162109375 649.998046875 21.6220703125 631.517578125 21.6220703125 c 4
 612.501953125 21.6220703125 593.342773438 12.6162109375 584.213867188 -5.1337890625 c 5
 512.0234375 -14.228515625 438.217773438 -23 365 -23 c 4
 309.411132812 -23 254.16015625 -17.943359375 200.213867188 -4.1337890625 c 5
 132.213867188 6.8662109375 65.2138671875 49.8662109375 43.2138671875 116.866210938 c 4
 36.4111328125 137.701171875 33.2685546875 158.987304688 33.2685546875 180.197265625 c 4
 33.2685546875 258.75390625 76.37109375 336.259765625 136.213867188 385.866210938 c 4
 252.213867188 477.866210938 448.213867188 515.866210938 624.213867188 518.866210938 c 5
 614.015625 586.291015625 527.734375 624.822265625 433.215820312 624.822265625 c 4
 360.913085938 624.822265625 283.790039062 602.275390625 232.213867188 552.866210938 c 5
 83.2138671875 595.866210938 l 5
627.213867188 351.866210938 m 5
 538.213867188 341.866210938 389.213867188 318.866210938 306.213867188 277.866210938 c 4
 260.688476562 254.638671875 219.477539062 238.317382812 219.477539062 193.611328125 c 4
 219.477539062 190.200195312 219.717773438 186.624023438 220.213867188 182.866210938 c 4
 225.755859375 140.1953125 261.39453125 129.15625 300.920898438 129.15625 c 4
 332.71875 129.15625 367.03125 136.299804688 390.213867188 139.866210938 c 4
 458.213867188 149.866210938 560.213867188 170.866210938 627.213867188 191.866210938 c 5
 627.213867188 351.866210938 l 5
EndSplineSet
EndUndoOperation
UndoOperation
Index: 1
Type: 1
WasModified: 1
WasOrder2: 0
Layer: 2
Width: 892
VWidth: 0
LBearingChange: 0
UnicodeEnc: 0
InstructionsLength: 0
SplineSet
83.2138671875 594.866210938 m 5
 117.213867188 692.866210938 270.213867188 786.866210938 445.213867188 786.866210938 c 4
 585.213867188 786.866210938 721.213867188 720.866210938 784.213867188 571.866210938 c 5
 807.940429688 496.665039062 812.422851562 419.361328125 812.422851562 341.516601562 c 4
 812.422851562 294.251953125 810.770507812 246.788085938 810.770507812 199.473632812 c 4
 810.770507812 130.936523438 814.237304688 62.7138671875 831.213867188 -4.1337890625 c 5
 798.213867188 -4.1337890625 767.213867188 -5.1337890625 734.213867188 -5.1337890625 c 4
 730.19921875 -4.921875 726.18359375 -4.8447265625 722.168945312 -4.8447265625 c 4
 677.213867188 -5.1337890625 l 5
 668.342773438 12.1162109375 649.998046875 20.6220703125 631.517578125 20.6220703125 c 4
 612.501953125 20.6220703125 593.342773438 11.6162109375 584.213867188 -6.1337890625 c 5
 512.0234375 -15.228515625 438.217773438 -24 365 -24 c 4
 309.411132812 -24 254.16015625 -18.943359375 200.213867188 -5.1337890625 c 5
 132.213867188 5.8662109375 65.2138671875 48.8662109375 43.2138671875 115.866210938 c 4
 36.4111328125 136.701171875 33.2685546875 157.987304688 33.2685546875 179.197265625 c 4
 33.2685546875 257.75390625 76.37109375 335.259765625 136.213867188 384.866210938 c 4
 252.213867188 476.866210938 448.213867188 514.866210938 624.213867188 517.866210938 c 5
 614.015625 585.291015625 527.734375 623.822265625 433.215820312 623.822265625 c 4
 360.913085938 623.822265625 283.790039062 601.275390625 232.213867188 551.866210938 c 5
 83.2138671875 594.866210938 l 5
627.213867188 350.866210938 m 5
 538.213867188 340.866210938 389.213867188 317.866210938 306.213867188 276.866210938 c 4
 260.688476562 253.638671875 219.477539062 237.317382812 219.477539062 192.611328125 c 4
 219.477539062 189.200195312 219.717773438 185.624023438 220.213867188 181.866210938 c 4
 225.755859375 139.1953125 261.39453125 128.15625 300.920898438 128.15625 c 4
 332.71875 128.15625 367.03125 135.299804688 390.213867188 138.866210938 c 4
 458.213867188 148.866210938 560.213867188 169.866210938 627.213867188 190.866210938 c 5
 627.213867188 350.866210938 l 5
EndSplineSet
EndUndoOperation
UndoOperation
Index: 2
Type: 1
WasModified: 1
WasOrder2: 0
Layer: 2
Width: 892
VWidth: 0
LBearingChange: 0
UnicodeEnc: 0
InstructionsLength: 0
SplineSet
83.2138671875 593.866210938 m 5
 117.213867188 691.866210938 270.213867188 785.866210938 445.213867188 785.866210938 c 4
 585.213867188 785.866210938 721.213867188 719.866210938 784.213867188 570.866210938 c 5
 807.940429688 495.665039062 812.422851562 418.361328125 812.422851562 340.516601562 c 4
 812.422851562 293.251953125 810.770507812 245.788085938 810.770507812 198.473632812 c 4
 810.770507812 129.936523438 814.237304688 61.7138671875 831.213867188 -5.1337890625 c 5
 798.213867188 -5.1337890625 767.213867188 -6.1337890625 734.213867188 -6.1337890625 c 4
 730.19921875 -5.921875 726.18359375 -5.8447265625 722.168945312 -5.8447265625 c 4
 677.213867188 -6.1337890625 l 5
 668.342773438 11.1162109375 649.998046875 19.6220703125 631.517578125 19.6220703125 c 4
 612.501953125 19.6220703125 593.342773438 10.6162109375 584.213867188 -7.1337890625 c 5
 512.0234375 -16.228515625 438.217773438 -25 365 -25 c 4
 309.411132812 -25 254.16015625 -19.943359375 200.213867188 -6.1337890625 c 5
 132.213867188 4.8662109375 65.2138671875 47.8662109375 43.2138671875 114.866210938 c 4
 36.4111328125 135.701171875 33.2685546875 156.987304688 33.2685546875 178.197265625 c 4
 33.2685546875 256.75390625 76.37109375 334.259765625 136.213867188 383.866210938 c 4
 252.213867188 475.866210938 448.213867188 513.866210938 624.213867188 516.866210938 c 5
 614.015625 584.291015625 527.734375 622.822265625 433.215820312 622.822265625 c 4
 360.913085938 622.822265625 283.790039062 600.275390625 232.213867188 550.866210938 c 5
 83.2138671875 593.866210938 l 5
627.213867188 349.866210938 m 5
 538.213867188 339.866210938 389.213867188 316.866210938 306.213867188 275.866210938 c 4
 260.688476562 252.638671875 219.477539062 236.317382812 219.477539062 191.611328125 c 4
 219.477539062 188.200195312 219.717773438 184.624023438 220.213867188 180.866210938 c 4
 225.755859375 138.1953125 261.39453125 127.15625 300.920898438 127.15625 c 4
 332.71875 127.15625 367.03125 134.299804688 390.213867188 137.866210938 c 4
 458.213867188 147.866210938 560.213867188 168.866210938 627.213867188 189.866210938 c 5
 627.213867188 349.866210938 l 5
EndSplineSet
EndUndoOperation
UndoOperation
Index: 3
Type: 1
WasModified: 1
WasOrder2: 0
Layer: 2
Width: 892
VWidth: 0
LBearingChange: 0
UnicodeEnc: 0
InstructionsLength: 0
SplineSet
83.2138671875 592.866210938 m 5
 117.213867188 690.866210938 270.213867188 784.866210938 445.213867188 784.866210938 c 4
 585.213867188 784.866210938 721.213867188 718.866210938 784.213867188 569.866210938 c 5
 807.940429688 494.665039062 812.422851562 417.361328125 812.422851562 339.516601562 c 4
 812.422851562 292.251953125 810.770507812 244.788085938 810.770507812 197.473632812 c 4
 810.770507812 128.936523438 814.237304688 60.7138671875 831.213867188 -6.1337890625 c 5
 798.213867188 -6.1337890625 767.213867188 -7.1337890625 734.213867188 -7.1337890625 c 4
 730.19921875 -6.921875 726.18359375 -6.8447265625 722.168945312 -6.8447265625 c 4
 677.213867188 -7.1337890625 l 5
 668.342773438 10.1162109375 649.998046875 18.6220703125 631.517578125 18.6220703125 c 4
 612.501953125 18.6220703125 593.342773438 9.6162109375 584.213867188 -8.1337890625 c 5
 512.0234375 -17.228515625 438.217773438 -26 365 -26 c 4
 309.411132812 -26 254.16015625 -20.943359375 200.213867188 -7.1337890625 c 5
 132.213867188 3.8662109375 65.2138671875 46.8662109375 43.2138671875 113.866210938 c 4
 36.4111328125 134.701171875 33.2685546875 155.987304688 33.2685546875 177.197265625 c 4
 33.2685546875 255.75390625 76.37109375 333.259765625 136.213867188 382.866210938 c 4
 252.213867188 474.866210938 448.213867188 512.866210938 624.213867188 515.866210938 c 5
 614.015625 583.291015625 527.734375 621.822265625 433.215820312 621.822265625 c 4
 360.913085938 621.822265625 283.790039062 599.275390625 232.213867188 549.866210938 c 5
 83.2138671875 592.866210938 l 5
627.213867188 348.866210938 m 5
 538.213867188 338.866210938 389.213867188 315.866210938 306.213867188 274.866210938 c 4
 260.688476562 251.638671875 219.477539062 235.317382812 219.477539062 190.611328125 c 4
 219.477539062 187.200195312 219.717773438 183.624023438 220.213867188 179.866210938 c 4
 225.755859375 137.1953125 261.39453125 126.15625 300.920898438 126.15625 c 4
 332.71875 126.15625 367.03125 133.299804688 390.213867188 136.866210938 c 4
 458.213867188 146.866210938 560.213867188 167.866210938 627.213867188 188.866210938 c 5
 627.213867188 348.866210938 l 5
EndSplineSet
EndUndoOperation
UndoOperation
Index: 4
Type: 1
WasModified: 1
WasOrder2: 0
Layer: 2
Width: 892
VWidth: 0
LBearingChange: 0
UnicodeEnc: 0
InstructionsLength: 0
SplineSet
83.2138671875 591.866210938 m 5
 117.213867188 689.866210938 270.213867188 783.866210938 445.213867188 783.866210938 c 4
 585.213867188 783.866210938 721.213867188 717.866210938 784.213867188 568.866210938 c 5
 807.940429688 493.665039062 812.422851562 416.361328125 812.422851562 338.516601562 c 4
 812.422851562 291.251953125 810.770507812 243.788085938 810.770507812 196.473632812 c 4
 810.770507812 127.936523438 814.237304688 59.7138671875 831.213867188 -7.1337890625 c 5
 798.213867188 -7.1337890625 767.213867188 -8.1337890625 734.213867188 -8.1337890625 c 4
 730.19921875 -7.921875 726.18359375 -7.8447265625 722.168945312 -7.8447265625 c 4
 677.213867188 -8.1337890625 l 5
 668.342773438 9.1162109375 649.998046875 17.6220703125 631.517578125 17.6220703125 c 4
 612.501953125 17.6220703125 593.342773438 8.6162109375 584.213867188 -9.1337890625 c 5
 512.0234375 -18.228515625 438.217773438 -27 365 -27 c 4
 309.411132812 -27 254.16015625 -21.943359375 200.213867188 -8.1337890625 c 5
 132.213867188 2.8662109375 65.2138671875 45.8662109375 43.2138671875 112.866210938 c 4
 36.4111328125 133.701171875 33.2685546875 154.987304688 33.2685546875 176.197265625 c 4
 33.2685546875 254.75390625 76.37109375 332.259765625 136.213867188 381.866210938 c 4
 252.213867188 473.866210938 448.213867188 511.866210938 624.213867188 514.866210938 c 5
 614.015625 582.291015625 527.734375 620.822265625 433.215820312 620.822265625 c 4
 360.913085938 620.822265625 283.790039062 598.275390625 232.213867188 548.866210938 c 5
 83.2138671875 591.866210938 l 5
627.213867188 347.866210938 m 5
 538.213867188 337.866210938 389.213867188 314.866210938 306.213867188 273.866210938 c 4
 260.688476562 250.638671875 219.477539062 234.317382812 219.477539062 189.611328125 c 4
 219.477539062 186.200195312 219.717773438 182.624023438 220.213867188 178.866210938 c 4
 225.755859375 136.1953125 261.39453125 125.15625 300.920898438 125.15625 c 4
 332.71875 125.15625 367.03125 132.299804688 390.213867188 135.866210938 c 4
 458.213867188 145.866210938 560.213867188 166.866210938 627.213867188 187.866210938 c 5
 627.213867188 347.866210938 l 5
EndSplineSet
EndUndoOperation
UndoOperation
Index: 5
Type: 1
WasModified: 1
WasOrder2: 0
Layer: 2
Width: 892
VWidth: 0
LBearingChange: 0
UnicodeEnc: 0
InstructionsLength: 0
SplineSet
83.2138671875 590.866210938 m 5
 117.213867188 688.866210938 270.213867188 782.866210938 445.213867188 782.866210938 c 4
 585.213867188 782.866210938 721.213867188 716.866210938 784.213867188 567.866210938 c 5
 807.940429688 492.665039062 812.422851562 415.361328125 812.422851562 337.516601562 c 4
 812.422851562 290.251953125 810.770507812 242.788085938 810.770507812 195.473632812 c 4
 810.770507812 126.936523438 814.237304688 58.7138671875 831.213867188 -8.1337890625 c 5
 798.213867188 -8.1337890625 767.213867188 -9.1337890625 734.213867188 -9.1337890625 c 4
 730.19921875 -8.921875 726.18359375 -8.8447265625 722.168945312 -8.8447265625 c 4
 677.213867188 -9.1337890625 l 5
 668.342773438 8.1162109375 649.998046875 16.6220703125 631.517578125 16.6220703125 c 4
 612.501953125 16.6220703125 593.342773438 7.6162109375 584.213867188 -10.1337890625 c 5
 512.0234375 -19.228515625 438.217773438 -28 365 -28 c 4
 309.411132812 -28 254.16015625 -22.943359375 200.213867188 -9.1337890625 c 5
 132.213867188 1.8662109375 65.2138671875 44.8662109375 43.2138671875 111.866210938 c 4
 36.4111328125 132.701171875 33.2685546875 153.987304688 33.2685546875 175.197265625 c 4
 33.2685546875 253.75390625 76.37109375 331.259765625 136.213867188 380.866210938 c 4
 252.213867188 472.866210938 448.213867188 510.866210938 624.213867188 513.866210938 c 5
 614.015625 581.291015625 527.734375 619.822265625 433.215820312 619.822265625 c 4
 360.913085938 619.822265625 283.790039062 597.275390625 232.213867188 547.866210938 c 5
 83.2138671875 590.866210938 l 5
627.213867188 346.866210938 m 5
 538.213867188 336.866210938 389.213867188 313.866210938 306.213867188 272.866210938 c 4
 260.688476562 249.638671875 219.477539062 233.317382812 219.477539062 188.611328125 c 4
 219.477539062 185.200195312 219.717773438 181.624023438 220.213867188 177.866210938 c 4
 225.755859375 135.1953125 261.39453125 124.15625 300.920898438 124.15625 c 4
 332.71875 124.15625 367.03125 131.299804688 390.213867188 134.866210938 c 4
 458.213867188 144.866210938 560.213867188 165.866210938 627.213867188 186.866210938 c 5
 627.213867188 346.866210938 l 5
EndSplineSet
EndUndoOperation
UndoOperation
Index: 6
Type: 1
WasModified: 1
WasOrder2: 0
Layer: 2
Width: 892
VWidth: 0
LBearingChange: 0
UnicodeEnc: 0
InstructionsLength: 0
SplineSet
83.2138671875 589.866210938 m 5
 117.213867188 687.866210938 270.213867188 781.866210938 445.213867188 781.866210938 c 4
 585.213867188 781.866210938 721.213867188 715.866210938 784.213867188 566.866210938 c 5
 807.940429688 491.665039062 812.422851562 414.361328125 812.422851562 336.516601562 c 4
 812.422851562 289.251953125 810.770507812 241.788085938 810.770507812 194.473632812 c 4
 810.770507812 125.936523438 814.237304688 57.7138671875 831.213867188 -9.1337890625 c 5
 798.213867188 -9.1337890625 767.213867188 -10.1337890625 734.213867188 -10.1337890625 c 4
 730.19921875 -9.921875 726.18359375 -9.8447265625 722.168945312 -9.8447265625 c 4
 677.213867188 -10.1337890625 l 5
 668.342773438 7.1162109375 649.998046875 15.6220703125 631.517578125 15.6220703125 c 4
 612.501953125 15.6220703125 593.342773438 6.6162109375 584.213867188 -11.1337890625 c 5
 512.0234375 -20.228515625 438.217773438 -29 365 -29 c 4
 309.411132812 -29 254.16015625 -23.943359375 200.213867188 -10.1337890625 c 5
 132.213867188 0.8662109375 65.2138671875 43.8662109375 43.2138671875 110.866210938 c 4
 36.4111328125 131.701171875 33.2685546875 152.987304688 33.2685546875 174.197265625 c 4
 33.2685546875 252.75390625 76.37109375 330.259765625 136.213867188 379.866210938 c 4
 252.213867188 471.866210938 448.213867188 509.866210938 624.213867188 512.866210938 c 5
 614.015625 580.291015625 527.734375 618.822265625 433.215820312 618.822265625 c 4
 360.913085938 618.822265625 283.790039062 596.275390625 232.213867188 546.866210938 c 5
 83.2138671875 589.866210938 l 5
627.213867188 345.866210938 m 5
 538.213867188 335.866210938 389.213867188 312.866210938 306.213867188 271.866210938 c 4
 260.688476562 248.638671875 219.477539062 232.317382812 219.477539062 187.611328125 c 4
 219.477539062 184.200195312 219.717773438 180.624023438 220.213867188 176.866210938 c 4
 225.755859375 134.1953125 261.39453125 123.15625 300.920898438 123.15625 c 4
 332.71875 123.15625 367.03125 130.299804688 390.213867188 133.866210938 c 4
 458.213867188 143.866210938 560.213867188 164.866210938 627.213867188 185.866210938 c 5
 627.213867188 345.866210938 l 5
EndSplineSet
EndUndoOperation
UndoOperation
Index: 7
Type: 1
WasModified: 1
WasOrder2: 0
Layer: 2
Width: 892
VWidth: 0
LBearingChange: 0
UnicodeEnc: 0
InstructionsLength: 0
SplineSet
83.2138671875 588.866210938 m 5
 117.213867188 686.866210938 270.213867188 780.866210938 445.213867188 780.866210938 c 4
 585.213867188 780.866210938 721.213867188 714.866210938 784.213867188 565.866210938 c 5
 807.940429688 490.665039062 812.422851562 413.361328125 812.422851562 335.516601562 c 4
 812.422851562 288.251953125 810.770507812 240.788085938 810.770507812 193.473632812 c 4
 810.770507812 124.936523438 814.237304688 56.7138671875 831.213867188 -10.1337890625 c 5
 798.213867188 -10.1337890625 767.213867188 -11.1337890625 734.213867188 -11.1337890625 c 4
 730.19921875 -10.921875 726.18359375 -10.8447265625 722.168945312 -10.8447265625 c 4
 677.213867188 -11.1337890625 l 5
 668.342773438 6.1162109375 649.998046875 14.6220703125 631.517578125 14.6220703125 c 4
 612.501953125 14.6220703125 593.342773438 5.6162109375 584.213867188 -12.1337890625 c 5
 512.0234375 -21.228515625 438.217773438 -30 365 -30 c 4
 309.411132812 -30 254.16015625 -24.943359375 200.213867188 -11.1337890625 c 5
 132.213867188 -0.1337890625 65.2138671875 42.8662109375 43.2138671875 109.866210938 c 4
 36.4111328125 130.701171875 33.2685546875 151.987304688 33.2685546875 173.197265625 c 4
 33.2685546875 251.75390625 76.37109375 329.259765625 136.213867188 378.866210938 c 4
 252.213867188 470.866210938 448.213867188 508.866210938 624.213867188 511.866210938 c 5
 614.015625 579.291015625 527.734375 617.822265625 433.215820312 617.822265625 c 4
 360.913085938 617.822265625 283.790039062 595.275390625 232.213867188 545.866210938 c 5
 83.2138671875 588.866210938 l 5
627.213867188 344.866210938 m 5
 538.213867188 334.866210938 389.213867188 311.866210938 306.213867188 270.866210938 c 4
 260.688476562 247.638671875 219.477539062 231.317382812 219.477539062 186.611328125 c 4
 219.477539062 183.200195312 219.717773438 179.624023438 220.213867188 175.866210938 c 4
 225.755859375 133.1953125 261.39453125 122.15625 300.920898438 122.15625 c 4
 332.71875 122.15625 367.03125 129.299804688 390.213867188 132.866210938 c 4
 458.213867188 142.866210938 560.213867188 163.866210938 627.213867188 184.866210938 c 5
 627.213867188 344.866210938 l 5
EndSplineSet
EndUndoOperation
UndoOperation
Index: 8
Type: 1
WasModified: 1
WasOrder2: 0
Layer: 2
Width: 892
VWidth: 0
LBearingChange: 0
UnicodeEnc: 0
InstructionsLength: 0
SplineSet
83.2138671875 587.866210938 m 5
 117.213867188 685.866210938 270.213867188 779.866210938 445.213867188 779.866210938 c 4
 585.213867188 779.866210938 721.213867188 713.866210938 784.213867188 564.866210938 c 5
 807.940429688 489.665039062 812.422851562 412.361328125 812.422851562 334.516601562 c 4
 812.422851562 287.251953125 810.770507812 239.788085938 810.770507812 192.473632812 c 4
 810.770507812 123.936523438 814.237304688 55.7138671875 831.213867188 -11.1337890625 c 5
 798.213867188 -11.1337890625 767.213867188 -12.1337890625 734.213867188 -12.1337890625 c 4
 730.19921875 -11.921875 726.18359375 -11.8447265625 722.168945312 -11.8447265625 c 4
 677.213867188 -12.1337890625 l 5
 668.342773438 5.1162109375 649.998046875 13.6220703125 631.517578125 13.6220703125 c 4
 612.501953125 13.6220703125 593.342773438 4.6162109375 584.213867188 -13.1337890625 c 5
 512.0234375 -22.228515625 438.217773438 -31 365 -31 c 4
 309.411132812 -31 254.16015625 -25.943359375 200.213867188 -12.1337890625 c 5
 132.213867188 -1.1337890625 65.2138671875 41.8662109375 43.2138671875 108.866210938 c 4
 36.4111328125 129.701171875 33.2685546875 150.987304688 33.2685546875 172.197265625 c 4
 33.2685546875 250.75390625 76.37109375 328.259765625 136.213867188 377.866210938 c 4
 252.213867188 469.866210938 448.213867188 507.866210938 624.213867188 510.866210938 c 5
 614.015625 578.291015625 527.734375 616.822265625 433.215820312 616.822265625 c 4
 360.913085938 616.822265625 283.790039062 594.275390625 232.213867188 544.866210938 c 5
 83.2138671875 587.866210938 l 5
627.213867188 343.866210938 m 5
 538.213867188 333.866210938 389.213867188 310.866210938 306.213867188 269.866210938 c 4
 260.688476562 246.638671875 219.477539062 230.317382812 219.477539062 185.611328125 c 4
 219.477539062 182.200195312 219.717773438 178.624023438 220.213867188 174.866210938 c 4
 225.755859375 132.1953125 261.39453125 121.15625 300.920898438 121.15625 c 4
 332.71875 121.15625 367.03125 128.299804688 390.213867188 131.866210938 c 4
 458.213867188 141.866210938 560.213867188 162.866210938 627.213867188 183.866210938 c 5
 627.213867188 343.866210938 l 5
EndSplineSet
EndUndoOperation
UndoOperation
Index: 9
Type: 1
WasModified: 1
WasOrder2: 0
Layer: 2
Width: 892
VWidth: 0
LBearingChange: 0
UnicodeEnc: 0
InstructionsLength: 0
SplineSet
83.2138671875 586.866210938 m 5
 117.213867188 684.866210938 270.213867188 778.866210938 445.213867188 778.866210938 c 4
 585.213867188 778.866210938 721.213867188 712.866210938 784.213867188 563.866210938 c 5
 807.940429688 488.665039062 812.422851562 411.361328125 812.422851562 333.516601562 c 4
 812.422851562 286.251953125 810.770507812 238.788085938 810.770507812 191.473632812 c 4
 810.770507812 122.936523438 814.237304688 54.7138671875 831.213867188 -12.1337890625 c 5
 798.213867188 -12.1337890625 767.213867188 -13.1337890625 734.213867188 -13.1337890625 c 4
 730.19921875 -12.921875 726.18359375 -12.8447265625 722.168945312 -12.8447265625 c 4
 677.213867188 -13.1337890625 l 5
 668.342773438 4.1162109375 649.998046875 12.6220703125 631.517578125 12.6220703125 c 4
 612.501953125 12.6220703125 593.342773438 3.6162109375 584.213867188 -14.1337890625 c 5
 512.0234375 -23.228515625 438.217773438 -32 365 -32 c 4
 309.411132812 -32 254.16015625 -26.943359375 200.213867188 -13.1337890625 c 5
 132.213867188 -2.1337890625 65.2138671875 40.8662109375 43.2138671875 107.866210938 c 4
 36.4111328125 128.701171875 33.2685546875 149.987304688 33.2685546875 171.197265625 c 4
 33.2685546875 249.75390625 76.37109375 327.259765625 136.213867188 376.866210938 c 4
 252.213867188 468.866210938 448.213867188 506.866210938 624.213867188 509.866210938 c 5
 614.015625 577.291015625 527.734375 615.822265625 433.215820312 615.822265625 c 4
 360.913085938 615.822265625 283.790039062 593.275390625 232.213867188 543.866210938 c 5
 83.2138671875 586.866210938 l 5
627.213867188 342.866210938 m 5
 538.213867188 332.866210938 389.213867188 309.866210938 306.213867188 268.866210938 c 4
 260.688476562 245.638671875 219.477539062 229.317382812 219.477539062 184.611328125 c 4
 219.477539062 181.200195312 219.717773438 177.624023438 220.213867188 173.866210938 c 4
 225.755859375 131.1953125 261.39453125 120.15625 300.920898438 120.15625 c 4
 332.71875 120.15625 367.03125 127.299804688 390.213867188 130.866210938 c 4
 458.213867188 140.866210938 560.213867188 161.866210938 627.213867188 182.866210938 c 5
 627.213867188 342.866210938 l 5
EndSplineSet
EndUndoOperation
UndoOperation
Index: 10
Type: 1
WasModified: 1
WasOrder2: 0
Layer: 2
Width: 892
VWidth: 0
LBearingChange: 0
UnicodeEnc: 0
InstructionsLength: 0
SplineSet
83.2138671875 585.866210938 m 5
 117.213867188 683.866210938 270.213867188 777.866210938 445.213867188 777.866210938 c 4
 585.213867188 777.866210938 721.213867188 711.866210938 784.213867188 562.866210938 c 5
 807.940429688 487.665039062 812.422851562 410.361328125 812.422851562 332.516601562 c 4
 812.422851562 285.251953125 810.770507812 237.788085938 810.770507812 190.473632812 c 4
 810.770507812 121.936523438 814.237304688 53.7138671875 831.213867188 -13.1337890625 c 5
 798.213867188 -13.1337890625 767.213867188 -14.1337890625 734.213867188 -14.1337890625 c 4
 730.19921875 -13.921875 726.18359375 -13.8447265625 722.168945312 -13.8447265625 c 4
 677.213867188 -14.1337890625 l 5
 668.342773438 3.1162109375 649.998046875 11.6220703125 631.517578125 11.6220703125 c 4
 612.501953125 11.6220703125 593.342773438 2.6162109375 584.213867188 -15.1337890625 c 5
 512.0234375 -24.228515625 438.217773438 -33 365 -33 c 4
 309.411132812 -33 254.16015625 -27.943359375 200.213867188 -14.1337890625 c 5
 132.213867188 -3.1337890625 65.2138671875 39.8662109375 43.2138671875 106.866210938 c 4
 36.4111328125 127.701171875 33.2685546875 148.987304688 33.2685546875 170.197265625 c 4
 33.2685546875 248.75390625 76.37109375 326.259765625 136.213867188 375.866210938 c 4
 252.213867188 467.866210938 448.213867188 505.866210938 624.213867188 508.866210938 c 5
 614.015625 576.291015625 527.734375 614.822265625 433.215820312 614.822265625 c 4
 360.913085938 614.822265625 283.790039062 592.275390625 232.213867188 542.866210938 c 5
 83.2138671875 585.866210938 l 5
627.213867188 341.866210938 m 5
 538.213867188 331.866210938 389.213867188 308.866210938 306.213867188 267.866210938 c 4
 260.688476562 244.638671875 219.477539062 228.317382812 219.477539062 183.611328125 c 4
 219.477539062 180.200195312 219.717773438 176.624023438 220.213867188 172.866210938 c 4
 225.755859375 130.1953125 261.39453125 119.15625 300.920898438 119.15625 c 4
 332.71875 119.15625 367.03125 126.299804688 390.213867188 129.866210938 c 4
 458.213867188 139.866210938 560.213867188 160.866210938 627.213867188 181.866210938 c 5
 627.213867188 341.866210938 l 5
EndSplineSet
EndUndoOperation
UndoOperation
Index: 11
Type: 1
WasModified: 1
WasOrder2: 0
Layer: 2
Width: 892
VWidth: 0
LBearingChange: 0
UnicodeEnc: 0
InstructionsLength: 0
SplineSet
83.2138671875 584.866210938 m 5
 117.213867188 682.866210938 270.213867188 776.866210938 445.213867188 776.866210938 c 4
 585.213867188 776.866210938 721.213867188 710.866210938 784.213867188 561.866210938 c 5
 807.940429688 486.665039062 812.422851562 409.361328125 812.422851562 331.516601562 c 4
 812.422851562 284.251953125 810.770507812 236.788085938 810.770507812 189.473632812 c 4
 810.770507812 120.936523438 814.237304688 52.7138671875 831.213867188 -14.1337890625 c 5
 798.213867188 -14.1337890625 767.213867188 -15.1337890625 734.213867188 -15.1337890625 c 4
 730.19921875 -14.921875 726.18359375 -14.8447265625 722.168945312 -14.8447265625 c 4
 677.213867188 -15.1337890625 l 5
 668.342773438 2.1162109375 649.998046875 10.6220703125 631.517578125 10.6220703125 c 4
 612.501953125 10.6220703125 593.342773438 1.6162109375 584.213867188 -16.1337890625 c 5
 512.0234375 -25.228515625 438.217773438 -34 365 -34 c 4
 309.411132812 -34 254.16015625 -28.943359375 200.213867188 -15.1337890625 c 5
 132.213867188 -4.1337890625 65.2138671875 38.8662109375 43.2138671875 105.866210938 c 4
 36.4111328125 126.701171875 33.2685546875 147.987304688 33.2685546875 169.197265625 c 4
 33.2685546875 247.75390625 76.37109375 325.259765625 136.213867188 374.866210938 c 4
 252.213867188 466.866210938 448.213867188 504.866210938 624.213867188 507.866210938 c 5
 614.015625 575.291015625 527.734375 613.822265625 433.215820312 613.822265625 c 4
 360.913085938 613.822265625 283.790039062 591.275390625 232.213867188 541.866210938 c 5
 83.2138671875 584.866210938 l 5
627.213867188 340.866210938 m 5
 538.213867188 330.866210938 389.213867188 307.866210938 306.213867188 266.866210938 c 4
 260.688476562 243.638671875 219.477539062 227.317382812 219.477539062 182.611328125 c 4
 219.477539062 179.200195312 219.717773438 175.624023438 220.213867188 171.866210938 c 4
 225.755859375 129.1953125 261.39453125 118.15625 300.920898438 118.15625 c 4
 332.71875 118.15625 367.03125 125.299804688 390.213867188 128.866210938 c 4
 458.213867188 138.866210938 560.213867188 159.866210938 627.213867188 180.866210938 c 5
 627.213867188 340.866210938 l 5
EndSplineSet
EndUndoOperation
UndoOperation
Index: 12
Type: 1
WasModified: 1
WasOrder2: 0
Layer: 2
Width: 892
VWidth: 0
LBearingChange: 0
UnicodeEnc: 0
InstructionsLength: 0
SplineSet
50 1406 m 5
 84 1504 237 1598 412 1598 c 4
 552 1598 688 1532 751 1383 c 5
 774.726625717 1307.79866086 779.208385194 1230.49494138 779.208385194 1152.64969866 c 4
 779.208385194 1105.38543919 777.556232788 1057.92155299 777.556232788 1010.6073939 c 4
 777.556232788 942.070130043 781.022973657 873.847041224 798 807 c 5
 765 807 734 806 701 806 c 4
 696.984827557 806.211324865 692.969655115 806.288675135 688.954482672 806.288675135 c 4
 644 806 l 5
 635.1285452 823.250051 616.783616017 831.755356414 598.303379093 831.755356414 c 4
 579.287593985 831.755356414 560.1285452 822.749949 551 805 c 5
 478.809489609 795.905132549 405.003420353 787.133376872 331.785786292 787.133376872 c 4
 276.196469475 787.133376872 220.946348041 792.189734902 167 806 c 5
 99 817 32 860 10 927 c 4
 3.19690747113 947.83447087 0.0547988333436 969.120915059 0.0547988333436 990.330848514 c 4
 0.0547988333436 1068.88699463 43.1573447561 1146.39358842 103 1196 c 4
 219 1288 415 1326 591 1329 c 5
 580.801416298 1396.42397003 494.520632107 1434.95596519 400.001563822 1434.95596519 c 4
 327.699112686 1434.95596519 250.576029969 1412.40896989 199 1363 c 5
 50 1406 l 5
594 1162 m 5
 505 1152 356 1129 273 1088 c 4
 227.473809143 1064.7723516 186.263807487 1048.45060593 186.263807487 1003.74502932 c 4
 186.263807487 1000.33383594 186.503741551 996.7573854 187 993 c 4
 192.541784999 950.328255507 228.180723355 939.28923342 267.706651026 939.28923342 c 4
 299.504182633 939.28923342 333.817281995 946.433427999 357 950 c 4
 425 960 527 981 594 1002 c 5
 594 1162 l 5
EndSplineSet
EndUndoOperation
UndoOperation
Index: 13
Type: 1
WasModified: 1
WasOrder2: 0
Layer: 2
Width: 892
VWidth: 0
LBearingChange: 0
UnicodeEnc: 0
InstructionsLength: 0
SplineSet
50 1406 m 5
 84 1504 237 1598 412 1598 c 4
 552 1598 688 1532 751 1383 c 5
 810 1196 750 996 798 807 c 5
 765 807 734 806 701 806 c 4
 682 807 663 805 644 806 c 5
 626 841 569 840 551 805 c 5
 424 789 292 774 167 806 c 5
 99 817 32 860 10 927 c 4
 -22 1025 27 1133 103 1196 c 4
 219 1288 415 1326 591 1329 c 5
 573 1448 318 1477 199 1363 c 5
 50 1406 l 5
594 1162 m 5
 505 1152 356 1129 273 1088 c 4
 224 1063 180 1046 187 993 c 4
 197 916 305 942 357 950 c 4
 425 960 527 981 594 1002 c 5
 594 1162 l 5
EndSplineSet
EndUndoOperation
UndoOperation
Index: 14
Type: 1
WasModified: 1
WasOrder2: 0
Layer: 2
Width: 892
VWidth: 0
LBearingChange: 0
UnicodeEnc: 0
InstructionsLength: 0
SplineSet
50.15234375 1406.13378906 m 5
 83.6650390625 1504.54785156 237.073242188 1597.79882812 411.720703125 1598 c 4
 551.482421875 1598.16015625 688.241210938 1532.78515625 751.052734375 1383.48828125 c 5
 810.102539062 1196.31152344 750.541992188 995.998046875 798.432617188 806.76953125 c 5
 765.91796875 806.515625 733.404296875 806.250976562 700.889648438 806.060546875 c 4
 681.646484375 807.427734375 662.344726562 804.661132812 643.745117188 805.993164062 c 5
 625.932617188 841.272460938 568.4453125 839.947265625 550.6640625 805.18359375 c 5
 423.751953125 789.080078125 292.283203125 774.173828125 166.926757812 806.450195312 c 5
 99.4111328125 817.712890625 32.4189453125 859.999023438 10.16796875 926.765625 c 4
 -22.1865234375 1024.73242188 26.4345703125 1132.78320312 102.859375 1195.93359375 c 4
 219.060546875 1287.52050781 415.041015625 1325.12792969 590.607421875 1328.61425781 c 5
 572.33203125 1447.94238281 317.836914062 1477.13476562 199.331054688 1362.99316406 c 5
 50.15234375 1406.13378906 l 5
593.737304688 1161.76269531 m 5
 504.741210938 1151.8671875 355.998046875 1129.73242188 273.458984375 1088.35546875 c 4
 224.509765625 1063.81738281 179.622070312 1046.38964844 186.516601562 993.37109375 c 4
 196.473632812 916.807617188 305.211914062 942.6171875 356.891601562 950.360351562 c 4
 424.883789062 960.546875 526.991210938 980.970703125 593.737304688 1002.06542969 c 5
 593.737304688 1161.76269531 l 5
EndSplineSet
EndUndoOperation
UndoOperation
Index: 15
Type: 1
WasModified: 1
WasOrder2: 0
Layer: 2
Width: 892
VWidth: 0
LBearingChange: 0
UnicodeEnc: 0
InstructionsLength: 0
SplineSet
50.15234375 1406.13378906 m 5
 83.6650390625 1504.54785156 237.073242188 1597.79882812 411.720703125 1598 c 4
 551.482421875 1598.16015625 688.241210938 1532.78515625 751.052734375 1383.48828125 c 5
 810.102539062 1196.31152344 750.541992188 995.998046875 798.432617188 806.76953125 c 5
 765.91796875 806.515625 733.404296875 806.250976562 700.889648438 806.060546875 c 4
 681.646484375 807.427734375 662.344726562 804.661132812 643.745117188 805.993164062 c 5
 625.932617188 841.272460938 568.4453125 839.947265625 550.6640625 805.18359375 c 5
 423.751953125 789.080078125 292.283203125 774.173828125 166.926757812 806.450195312 c 5
 99.4111328125 817.712890625 32.4189453125 859.999023438 10.16796875 926.765625 c 4
 -22.1865234375 1024.73242188 26.4345703125 1132.78320312 102.859375 1195.93359375 c 4
 219.060546875 1287.52050781 415.041015625 1325.12792969 590.607421875 1328.61425781 c 5
 572.33203125 1447.94238281 317.836914062 1477.13476562 199.331054688 1362.99316406 c 5
 50.15234375 1406.13378906 l 5
593.737304688 1161.76269531 m 5
 504.741210938 1151.8671875 355.998046875 1129.73242188 273.458984375 1088.35546875 c 4
 224.509765625 1063.81738281 179.622070312 1046.38964844 186.516601562 993.37109375 c 4
 196.473632812 916.807617188 305.211914062 942.6171875 356.891601562 950.360351562 c 4
 424.883789062 960.546875 526.991210938 980.970703125 593.737304688 1002.06542969 c 5
 593.737304688 1161.76269531 l 5
EndSplineSet
EndUndoOperation
UndoOperation
Index: 16
Type: 1
WasModified: 1
WasOrder2: 0
Layer: 2
Width: 892
VWidth: 0
LBearingChange: 0
UnicodeEnc: 0
InstructionsLength: 0
EndUndoOperation
UndoOperation
Index: 17
Type: 3
WasModified: 1
WasOrder2: 0
Layer: 2
HStem: -35 177<328.14 649.741> 385 176<402.305 651> 639 200<328.875 616.5>
VStem: 60 257<156.463 314.239> 651 245<157.824 385>
EndUndoOperation
UndoOperation
Index: 18
Type: 1
WasModified: 0
WasOrder2: 0
Layer: 2
Width: 892
VWidth: 0
LBearingChange: 0
UnicodeEnc: 0
InstructionsLength: 0
SplineSet
92 623 m 5
 134 742 264 801 385 806 c 5
 408 806 l 6
 590 806 747 746 793 600 c 4
 817 523 822 444 822 364 c 4
 822 320 820 276 820 232 c 4
 820 162 824 91 841 23 c 5
 743 23 l 5
 724 24 705 22 686 23 c 5
 677 40 658 49 640 49 c 4
 621 49 602 40 593 22 c 5
 521 13 447 4 374 4 c 4
 318 4 263 9 209 23 c 5
 121 37 42 97 42 206 c 4
 42 285 85 362 145 412 c 4
 261 504 460 530 636 533 c 5
 624 638 525 659 464 664 c 4
 450 665 435 666 421 666 c 4
 356 666 289 650 246 598 c 5
 195 606 143 615 92 623 c 5
636 399 m 5
 547 389 399 367 316 326 c 4
 270 303 228 268 228 221 c 4
 228 217 229 214 229 210 c 4
 238 143 302 134 369 134 c 4
 379 134 389 134 399 134 c 4
 468 136 569 164 636 185 c 5
 636 399 l 5
EndSplineSet
EndUndoOperation
UndoOperation
Index: 19
Type: 7
WasModified: 1
WasOrder2: 0
Layer: 2
Width: 897
EndUndoOperation
UndoOperation
Index: 20
Type: 3
WasModified: 0
WasOrder2: 0
Layer: 2
HStem: -35 177<334.14 655.741> 385 176<408.305 657> 639 200<334.875 622.5>
VStem: 66 257<156.463 314.239> 657 245<157.824 385>
EndUndoOperation
UndoOperation
Index: 21
Type: 1
WasModified: 1
WasOrder2: 0
Layer: 2
Width: 903
VWidth: 0
LBearingChange: 0
UnicodeEnc: 0
InstructionsLength: 0
SplineSet
98 623 m 5
 140 742 270 801 391 806 c 5
 414 806 l 2
 596 806 753 746 799 600 c 4
 823 523 828 444 828 364 c 0
 828 320 826 276 826 232 c 0
 826 162 830 91 847 23 c 5
 749 23 l 5
 730 24 711 22 692 23 c 5
 683 40 664 49 646 49 c 0
 627 49 608 40 599 22 c 5
 527 13 453 4 380 4 c 0
 324 4 269 9 215 23 c 5
 127 37 48 97 48 206 c 0
 48 285 91 362 151 412 c 4
 267 504 466 530 642 533 c 5
 630 638 531 659 470 664 c 4
 456 665 441 666 427 666 c 0
 362 666 295 650 252 598 c 5
 201 606 149 615 98 623 c 5
642 399 m 5
 553 389 405 367 322 326 c 4
 276 303 234 268 234 221 c 0
 234 217 235 214 235 210 c 4
 244 143 308 134 375 134 c 0
 385 134 395 134 405 134 c 4
 474 136 575 164 642 185 c 5
 642 399 l 5
EndSplineSet
EndUndoOperation
UndoOperation
Index: 22
Type: 1
WasModified: 1
WasOrder2: 0
Layer: 2
Width: 903
VWidth: 0
LBearingChange: 0
UnicodeEnc: 0
InstructionsLength: 0
SplineSet
98 623 m 5
 140 742 270 801 391 806 c 5
 414 806 l 2
 596 806 753 746 799 600 c 4
 823 523 828 444 828 364 c 0
 828 320 826 276 826 232 c 0
 826 162 830 91 847 23 c 5
 749 23 l 5
 730 24 711 22 692 23 c 5
 683 40 664 49 646 49 c 0
 627 49 608 40 599 22 c 5
 527 13 453 4 380 4 c 0
 324 4 269 9 215 23 c 5
 127 37 48 97 48 206 c 0
 48 285 91 362 151 412 c 4
 267 504 466 530 642 533 c 5
 630 638 531 659 470 664 c 4
 456 665 441 666 427 666 c 0
 362 666 295 650 252 598 c 5
 201 606 149 615 98 623 c 5
642 399 m 5
 553 389 405 367 322 326 c 4
 276 303 234 268 234 221 c 0
 234 217 235 214 235 210 c 4
 244 143 308 134 375 134 c 0
 385 134 395 134 405 134 c 4
 474 136 575 164 642 185 c 5
 642 399 l 5
EndSplineSet
EndUndoOperation
UndoOperation
Index: 23
Type: 1
WasModified: 0
WasOrder2: 0
Layer: 2
Width: 903
VWidth: 0
LBearingChange: 0
UnicodeEnc: 0
InstructionsLength: 0
SplineSet
98 623 m 5
 140.469726562 741.9140625 270.221679688 801.3984375 391 806 c 5
 414 806 l 2
 596.36328125 806 753.487304688 745.641601562 799 600 c 4
 823 523 828 444 828 364 c 0
 828 320 826 276 826 232 c 0
 826 162 830 91 847 23 c 5
 749 23 l 5
 730 24 711 22 692 23 c 5
 683 40 664 49 646 49 c 0
 627 49 608 40 599 22 c 5
 527 13 453 4 380 4 c 0
 324 4 269 9 215 23 c 5
 127.438476562 37.1640625 48 97.3583984375 48 206 c 0
 48 285 91 362 151 412 c 4
 267 504 466 530 642 533 c 5
 630 638 531 659 470 664 c 4
 456 665 441 666 427 666 c 0
 362 666 295 650 252 598 c 5
 201 606 149 615 98 623 c 5
642 399 m 5
 553 389 405 367 322 326 c 4
 276 303 234 268 234 221 c 0
 234 217 235 214 235 210 c 4
 244 143 308 134 375 134 c 0
 385 134 395 134 405 134 c 4
 474 136 575 164 642 185 c 5
 642 399 l 5
EndSplineSet
EndUndoOperation
UndoOperation
Index: 24
Type: 7
WasModified: 1
WasOrder2: 0
Layer: 2
Width: 977
EndUndoOperation
EndUndoes
Redoes
EndRedoes
EndUndoRedoHistory
Fore
SplineSet
83.2138671875 596.866210938 m 5
 117.213867188 694.866210938 270.213867188 788.866210938 445.213867188 788.866210938 c 4
 585.213867188 788.866210938 721.213867188 722.866210938 784.213867188 573.866210938 c 5
 807.940429688 498.665039062 812.422851562 421.361328125 812.422851562 343.516601562 c 4
 812.422851562 296.251953125 810.770507812 248.788085938 810.770507812 201.473632812 c 4
 810.770507812 132.936523438 814.237304688 64.7138671875 831.213867188 -2.1337890625 c 5
 798.213867188 -2.1337890625 767.213867188 -3.1337890625 734.213867188 -3.1337890625 c 4
 730.19921875 -2.921875 726.18359375 -2.8447265625 722.168945312 -2.8447265625 c 4
 677.213867188 -3.1337890625 l 5
 668.342773438 14.1162109375 649.998046875 22.6220703125 631.517578125 22.6220703125 c 4
 612.501953125 22.6220703125 593.342773438 13.6162109375 584.213867188 -4.1337890625 c 5
 512.0234375 -13.228515625 438.217773438 -22 365 -22 c 4
 309.411132812 -22 254.16015625 -16.943359375 200.213867188 -3.1337890625 c 5
 132.213867188 7.8662109375 65.2138671875 50.8662109375 43.2138671875 117.866210938 c 4
 36.4111328125 138.701171875 33.2685546875 159.987304688 33.2685546875 181.197265625 c 4
 33.2685546875 259.75390625 76.37109375 337.259765625 136.213867188 386.866210938 c 4
 252.213867188 478.866210938 448.213867188 516.866210938 624.213867188 519.866210938 c 5
 614.015625 587.291015625 527.734375 625.822265625 433.215820312 625.822265625 c 4
 360.913085938 625.822265625 283.790039062 603.275390625 232.213867188 553.866210938 c 5
 83.2138671875 596.866210938 l 5
627.213867188 352.866210938 m 5
 538.213867188 342.866210938 389.213867188 319.866210938 306.213867188 278.866210938 c 4
 260.688476562 255.638671875 219.477539062 239.317382812 219.477539062 194.611328125 c 4
 219.477539062 191.200195312 219.717773438 187.624023438 220.213867188 183.866210938 c 4
 225.755859375 141.1953125 261.39453125 130.15625 300.920898438 130.15625 c 4
 332.71875 130.15625 367.03125 137.299804688 390.213867188 140.866210938 c 4
 458.213867188 150.866210938 560.213867188 171.866210938 627.213867188 192.866210938 c 5
 627.213867188 352.866210938 l 5
EndSplineSet
EndChar

StartChar: e
Encoding: 101 101 26
Width: 927
VWidth: 0
Flags: HW
HStem: -46 228<342.851 621.881> 355 157<282 624> 649 201<344.998 571.7>
LayerCount: 2
UndoRedoHistory
Layer: 1
Undoes
UndoOperation
Index: 0
Type: 1
WasModified: 1
WasOrder2: 0
Layer: 2
Width: 927
VWidth: 0
LBearingChange: 0
UnicodeEnc: 0
InstructionsLength: 0
SplineSet
0.19132590243 1175.09266879 m 4
 0.19132590243 1426.63558887 194.506311925 1594.2544967 408 1598 c 5
 413 1598 l 6
 657 1598 827 1405 828 1191 c 5
 827 1191 l 5
 827 1125 l 5
 191 1125 l 5
 214 1019 299.762105998 948.452202909 426.330818811 948.452202909 c 4
 515.147554496 948.452202909 591.892736398 979.932111956 628 1026 c 5
 775 915 l 5
 708 830 605 787 503 773 c 4
 478 770 453.148052809 767.854546846 428.035057084 767.854546846 c 4
 349.649352637 767.854546846 271 785 203 822 c 4
 68 895 0.19132590243 1033.27383994 0.19132590243 1175.09266879 c 4
611 1306 m 5
 574 1369 507 1417 416 1417 c 4
 415 1417 414.113257633 1417.01746552 413.171152575 1417.01746552 c 4
 333.256877929 1417.01746552 260 1375 219 1306 c 5
 611 1306 l 5
EndSplineSet
EndUndoOperation
UndoOperation
Index: 1
Type: 1
WasModified: 1
WasOrder2: 0
Layer: 2
Width: 927
VWidth: 0
LBearingChange: 0
UnicodeEnc: 0
InstructionsLength: 0
SplineSet
413 1598 m 6
 657 1598 827 1405 828 1191 c 5
 827 1191 l 5
 827 1125 l 5
 191 1125 l 5
 214 1019 299.762105998 948.452202909 426.330818811 948.452202909 c 0
 442.571020538 948.452202909 459 950 477 952 c 4
 543 961 599 989 628 1026 c 5
 775 915 l 5
 708 830 605 787 503 773 c 4
 478 770 453.148052809 767.854546846 428.035057084 767.854546846 c 0
 349.649352637 767.854546846 271 785 203 822 c 4
 68 895 0.19132590243 1033.27383994 0.19132590243 1175.09266879 c 0
 0.19132590243 1224.56000538 8 1274 25 1322 c 4
 82 1486 237 1595 408 1598 c 5
 413 1598 l 6
611 1306 m 5
 574 1369 507 1417 416 1417 c 4
 415 1417 414.113257633 1417.01746552 413.171152575 1417.01746552 c 0
 333.256877929 1417.01746552 260 1375 219 1306 c 5
 611 1306 l 5
EndSplineSet
EndUndoOperation
UndoOperation
Index: 2
Type: 1
WasModified: 1
WasOrder2: 0
Layer: 2
Width: 927
VWidth: 0
LBearingChange: 0
UnicodeEnc: 0
InstructionsLength: 0
SplineSet
413 1598 m 6
 657.444060935 1598 826.916883776 1405.45701241 828 1191 c 5
 827 1191 l 5
 827 1125 l 5
 191 1125 l 5
 213.631452343 1018.80626208 299.762105998 948.452202909 426.330818811 948.452202909 c 0
 442.571020538 948.452202909 459.476986431 949.61049815 477 952 c 4
 543 961 599 989 628 1026 c 5
 775 915 l 5
 708 830 605 787 503 773 c 4
 478.250649914 769.60303038 453.148052809 767.854546846 428.035057084 767.854546846 c 0
 349.649352637 767.854546846 271.162338159 784.889393669 203 822 c 4
 68.0658985647 894.65682385 0.19132590243 1033.27383994 0.19132590243 1175.09266879 c 0
 0.19132590243 1224.56000538 8.44935435088 1274.41689376 25 1322 c 4
 82 1486 237 1595 408 1598 c 5
 413 1598 l 6
611 1306 m 5
 573.741627586 1369.22632894 507.220137436 1417 416 1417 c 4
 415.056221538 1417.01165159 414.113257633 1417.01746552 413.171152575 1417.01746552 c 0
 333.256877929 1417.01746552 259.522284976 1375.18438898 219 1306 c 5
 611 1306 l 5
EndSplineSet
EndUndoOperation
UndoOperation
Index: 3
Type: 1
WasModified: 1
WasOrder2: 0
Layer: 2
Width: 927
VWidth: 0
LBearingChange: 0
UnicodeEnc: 0
InstructionsLength: 0
SplineSet
413 1598 m 6
 657.444060935 1598 826.916883776 1405.45701241 828 1191 c 5
 827 1191 l 5
 827 1125 l 5
 191 1125 l 5
 216.535324424 1005.18040078 322.910624188 930.987812389 477 952 c 4
 543 961 599 989 628 1026 c 5
 775 915 l 5
 708 830 605 787 503 773 c 4
 401 759 293 773 203 822 c 4
 21 920 -39 1138 25 1322 c 4
 82 1486 237 1595 408 1598 c 5
 413 1598 l 6
611 1306 m 5
 573.741627586 1369.22632894 507.220137436 1417 416 1417 c 4
 335 1418 260 1376 219 1306 c 5
 611 1306 l 5
EndSplineSet
EndUndoOperation
UndoOperation
Index: 4
Type: 1
WasModified: 1
WasOrder2: 0
Layer: 2
Width: 927
VWidth: 0
LBearingChange: 0
UnicodeEnc: 0
InstructionsLength: 0
SplineSet
413 1598 m 6
 413 1598 l 5
 436 1598 459 1597 482 1593 c 4
 681 1560 827 1389 828 1191 c 5
 827 1191 l 5
 827 1125 l 5
 191 1125 l 5
 204 1064 239 1009 293 980 c 4
 340 955 411 943 477 952 c 4
 543 961 599 989 628 1026 c 5
 775 915 l 5
 708 830 605 787 503 773 c 4
 401 759 293 773 203 822 c 4
 21 920 -39 1138 25 1322 c 4
 82 1486 237 1595 408 1598 c 4
 410 1598 411 1598 413 1598 c 6
416 1417 m 4
 335 1418 260 1376 219 1306 c 5
 611 1306 l 5
 578 1362 521 1403 452 1414 c 4
 440 1416 428 1417 416 1417 c 4
EndSplineSet
EndUndoOperation
UndoOperation
Index: 5
Type: 1
WasModified: 1
WasOrder2: 0
Layer: 2
Width: 927
VWidth: 0
LBearingChange: 0
UnicodeEnc: 0
InstructionsLength: 0
SplineSet
413.026367188 1597.99414062 m 6
 413.026367188 1597.99414062 l 5
 435.987304688 1598.11914062 459.209960938 1596.33398438 482.489257812 1592.51464844 c 4
 681.142578125 1559.92089844 827.029296875 1389.15429688 827.686523438 1191.06347656 c 5
 827.012695312 1191.06152344 l 5
 827.012695312 1124.71484375 l 5
 190.629882812 1124.71484375 l 5
 203.524414062 1063.296875 238.921875 1009.47851562 292.688476562 980.45703125 c 4
 339.759765625 955.049804688 411.6484375 943.126953125 477.469726562 952.00390625 c 4
 543.291992188 960.880859375 599.383789062 989.235351562 628.426757812 1025.94726562 c 5
 774.670898438 915.001953125 l 5
 707.21484375 829.733398438 605.205078125 786.353515625 502.717773438 772.53125 c 4
 400.231445312 758.708007812 293.604492188 773.109375 203.381835938 821.80859375 c 4
 21.5888671875 919.932617188 -39.197265625 1138.2265625 24.5087890625 1322.10449219 c 4
 81.3505859375 1486.16699219 237.265625 1595.10449219 408.438476562 1597.94140625 c 4
 409.966796875 1597.96484375 411.49609375 1597.98828125 413.026367188 1597.99414062 c 6
416.129882812 1416.92675781 m 4
 335.061523438 1417.60742188 260.224609375 1375.45117188 219.112304688 1305.87304688 c 5
 610.961914062 1305.87304688 l 5
 577.578125 1362.02929688 520.416992188 1402.60644531 451.915039062 1413.84570312 c 4
 439.911132812 1415.81542969 427.954101562 1416.828125 416.129882812 1416.92675781 c 4
EndSplineSet
EndUndoOperation
UndoOperation
Index: 6
Type: 1
WasModified: 1
WasOrder2: 0
Layer: 2
Width: 927
VWidth: 0
LBearingChange: 0
UnicodeEnc: 0
InstructionsLength: 0
EndUndoOperation
UndoOperation
Index: 7
Type: 3
WasModified: 1
WasOrder2: 0
Layer: 2
HStem: -46 228<342.851 621.881> 355 157<282 624> 649 201<344.998 571.7>
EndUndoOperation
UndoOperation
Index: 8
Type: 1
WasModified: 0
WasOrder2: 0
Layer: 2
Width: 927
VWidth: 0
LBearingChange: 0
UnicodeEnc: 0
InstructionsLength: 0
SplineSet
47 377 m 4
 47 632 242 804 456 808 c 5
 460 808 l 6
 705 808 874 611 875 392 c 5
 874 392 l 5
 874 325 l 5
 238 325 l 5
 261 215 344 145 480 145 c 4
 568 145 641 179 676 224 c 5
 822 110 l 5
 755 23 652 -21 550 -35 c 4
 525 -38 500 -40 475 -40 c 4
 397 -40 319 -23 251 15 c 4
 116 89 47 232 47 377 c 4
658 510 m 5
 621 574 555 623 463 623 c 4
 462 623 461 623 460 623 c 4
 380 623 307 580 266 510 c 5
 658 510 l 5
EndSplineSet
EndUndoOperation
UndoOperation
Index: 9
Type: 1
WasModified: 1
WasOrder2: 0
Layer: 2
Width: 927
VWidth: 0
LBearingChange: 0
UnicodeEnc: 0
InstructionsLength: 0
SplineSet
47 378 m 4
 47 633 242 805 456 809 c 5
 460 809 l 6
 705 809 874 612 875 393 c 5
 874 393 l 5
 874 326 l 5
 238 326 l 5
 261 216 344 146 480 146 c 4
 568 146 641 180 676 225 c 5
 822 111 l 5
 755 24 652 -20 550 -34 c 4
 525 -37 500 -39 475 -39 c 4
 397 -39 319 -22 251 16 c 4
 116 90 47 233 47 378 c 4
658 511 m 5
 621 575 555 624 463 624 c 4
 462 624 461 624 460 624 c 4
 380 624 307 581 266 511 c 5
 658 511 l 5
EndSplineSet
EndUndoOperation
UndoOperation
Index: 10
Type: 1
WasModified: 1
WasOrder2: 0
Layer: 2
Width: 927
VWidth: 0
LBearingChange: 0
UnicodeEnc: 0
InstructionsLength: 0
SplineSet
47 379 m 4
 47 634 242 806 456 810 c 5
 460 810 l 6
 705 810 874 613 875 394 c 5
 874 394 l 5
 874 327 l 5
 238 327 l 5
 261 217 344 147 480 147 c 4
 568 147 641 181 676 226 c 5
 822 112 l 5
 755 25 652 -19 550 -33 c 4
 525 -36 500 -38 475 -38 c 4
 397 -38 319 -21 251 17 c 4
 116 91 47 234 47 379 c 4
658 512 m 5
 621 576 555 625 463 625 c 4
 462 625 461 625 460 625 c 4
 380 625 307 582 266 512 c 5
 658 512 l 5
EndSplineSet
EndUndoOperation
UndoOperation
Index: 11
Type: 1
WasModified: 1
WasOrder2: 0
Layer: 2
Width: 927
VWidth: 0
LBearingChange: 0
UnicodeEnc: 0
InstructionsLength: 0
SplineSet
47 380 m 4
 47 635 242 807 456 811 c 5
 460 811 l 6
 705 811 874 614 875 395 c 5
 874 395 l 5
 874 328 l 5
 238 328 l 5
 261 218 344 148 480 148 c 4
 568 148 641 182 676 227 c 5
 822 113 l 5
 755 26 652 -18 550 -32 c 4
 525 -35 500 -37 475 -37 c 4
 397 -37 319 -20 251 18 c 4
 116 92 47 235 47 380 c 4
658 513 m 5
 621 577 555 626 463 626 c 4
 462 626 461 626 460 626 c 4
 380 626 307 583 266 513 c 5
 658 513 l 5
EndSplineSet
EndUndoOperation
UndoOperation
Index: 12
Type: 1
WasModified: 1
WasOrder2: 0
Layer: 2
Width: 927
VWidth: 0
LBearingChange: 0
UnicodeEnc: 0
InstructionsLength: 0
SplineSet
47 381 m 4
 47 636 242 808 456 812 c 5
 460 812 l 6
 705 812 874 615 875 396 c 5
 874 396 l 5
 874 329 l 5
 238 329 l 5
 261 219 344 149 480 149 c 4
 568 149 641 183 676 228 c 5
 822 114 l 5
 755 27 652 -17 550 -31 c 4
 525 -34 500 -36 475 -36 c 4
 397 -36 319 -19 251 19 c 4
 116 93 47 236 47 381 c 4
658 514 m 5
 621 578 555 627 463 627 c 4
 462 627 461 627 460 627 c 4
 380 627 307 584 266 514 c 5
 658 514 l 5
EndSplineSet
EndUndoOperation
UndoOperation
Index: 13
Type: 1
WasModified: 1
WasOrder2: 0
Layer: 2
Width: 927
VWidth: 0
LBearingChange: 0
UnicodeEnc: 0
InstructionsLength: 0
SplineSet
47 382 m 4
 47 637 242 809 456 813 c 5
 460 813 l 6
 705 813 874 616 875 397 c 5
 874 397 l 5
 874 330 l 5
 238 330 l 5
 261 220 344 150 480 150 c 4
 568 150 641 184 676 229 c 5
 822 115 l 5
 755 28 652 -16 550 -30 c 4
 525 -33 500 -35 475 -35 c 4
 397 -35 319 -18 251 20 c 4
 116 94 47 237 47 382 c 4
658 515 m 5
 621 579 555 628 463 628 c 4
 462 628 461 628 460 628 c 4
 380 628 307 585 266 515 c 5
 658 515 l 5
EndSplineSet
EndUndoOperation
UndoOperation
Index: 14
Type: 1
WasModified: 1
WasOrder2: 0
Layer: 2
Width: 927
VWidth: 0
LBearingChange: 0
UnicodeEnc: 0
InstructionsLength: 0
SplineSet
47 383 m 4
 47 638 242 810 456 814 c 5
 460 814 l 6
 705 814 874 617 875 398 c 5
 874 398 l 5
 874 331 l 5
 238 331 l 5
 261 221 344 151 480 151 c 4
 568 151 641 185 676 230 c 5
 822 116 l 5
 755 29 652 -15 550 -29 c 4
 525 -32 500 -34 475 -34 c 4
 397 -34 319 -17 251 21 c 4
 116 95 47 238 47 383 c 4
658 516 m 5
 621 580 555 629 463 629 c 4
 462 629 461 629 460 629 c 4
 380 629 307 586 266 516 c 5
 658 516 l 5
EndSplineSet
EndUndoOperation
UndoOperation
Index: 15
Type: 1
WasModified: 1
WasOrder2: 0
Layer: 2
Width: 927
VWidth: 0
LBearingChange: 0
UnicodeEnc: 0
InstructionsLength: 0
SplineSet
47 384 m 4
 47 639 242 811 456 815 c 5
 460 815 l 6
 705 815 874 618 875 399 c 5
 874 399 l 5
 874 332 l 5
 238 332 l 5
 261 222 344 152 480 152 c 4
 568 152 641 186 676 231 c 5
 822 117 l 5
 755 30 652 -14 550 -28 c 4
 525 -31 500 -33 475 -33 c 4
 397 -33 319 -16 251 22 c 4
 116 96 47 239 47 384 c 4
658 517 m 5
 621 581 555 630 463 630 c 4
 462 630 461 630 460 630 c 4
 380 630 307 587 266 517 c 5
 658 517 l 5
EndSplineSet
EndUndoOperation
UndoOperation
Index: 16
Type: 1
WasModified: 1
WasOrder2: 0
Layer: 2
Width: 927
VWidth: 0
LBearingChange: 0
UnicodeEnc: 0
InstructionsLength: 0
SplineSet
47 385 m 4
 47 640 242 812 456 816 c 5
 460 816 l 6
 705 816 874 619 875 400 c 5
 874 400 l 5
 874 333 l 5
 238 333 l 5
 261 223 344 153 480 153 c 4
 568 153 641 187 676 232 c 5
 822 118 l 5
 755 31 652 -13 550 -27 c 4
 525 -30 500 -32 475 -32 c 4
 397 -32 319 -15 251 23 c 4
 116 97 47 240 47 385 c 4
658 518 m 5
 621 582 555 631 463 631 c 4
 462 631 461 631 460 631 c 4
 380 631 307 588 266 518 c 5
 658 518 l 5
EndSplineSet
EndUndoOperation
UndoOperation
Index: 17
Type: 1
WasModified: 1
WasOrder2: 0
Layer: 2
Width: 927
VWidth: 0
LBearingChange: 0
UnicodeEnc: 0
InstructionsLength: 0
SplineSet
47 386 m 4
 47 641 242 813 456 817 c 5
 460 817 l 6
 705 817 874 620 875 401 c 5
 874 401 l 5
 874 334 l 5
 238 334 l 5
 261 224 344 154 480 154 c 4
 568 154 641 188 676 233 c 5
 822 119 l 5
 755 32 652 -12 550 -26 c 4
 525 -29 500 -31 475 -31 c 4
 397 -31 319 -14 251 24 c 4
 116 98 47 241 47 386 c 4
658 519 m 5
 621 583 555 632 463 632 c 4
 462 632 461 632 460 632 c 4
 380 632 307 589 266 519 c 5
 658 519 l 5
EndSplineSet
EndUndoOperation
UndoOperation
Index: 18
Type: 1
WasModified: 1
WasOrder2: 0
Layer: 2
Width: 927
VWidth: 0
LBearingChange: 0
UnicodeEnc: 0
InstructionsLength: 0
SplineSet
47 387 m 4
 47 642 242 814 456 818 c 5
 460 818 l 6
 705 818 874 621 875 402 c 5
 874 402 l 5
 874 335 l 5
 238 335 l 5
 261 225 344 155 480 155 c 4
 568 155 641 189 676 234 c 5
 822 120 l 5
 755 33 652 -11 550 -25 c 4
 525 -28 500 -30 475 -30 c 4
 397 -30 319 -13 251 25 c 4
 116 99 47 242 47 387 c 4
658 520 m 5
 621 584 555 633 463 633 c 4
 462 633 461 633 460 633 c 4
 380 633 307 590 266 520 c 5
 658 520 l 5
EndSplineSet
EndUndoOperation
UndoOperation
Index: 19
Type: 1
WasModified: 1
WasOrder2: 0
Layer: 2
Width: 927
VWidth: 0
LBearingChange: 0
UnicodeEnc: 0
InstructionsLength: 0
SplineSet
47 388 m 4
 47 643 242 815 456 819 c 5
 460 819 l 6
 705 819 874 622 875 403 c 5
 874 403 l 5
 874 336 l 5
 238 336 l 5
 261 226 344 156 480 156 c 4
 568 156 641 190 676 235 c 5
 822 121 l 5
 755 34 652 -10 550 -24 c 4
 525 -27 500 -29 475 -29 c 4
 397 -29 319 -12 251 26 c 4
 116 100 47 243 47 388 c 4
658 521 m 5
 621 585 555 634 463 634 c 4
 462 634 461 634 460 634 c 4
 380 634 307 591 266 521 c 5
 658 521 l 5
EndSplineSet
EndUndoOperation
UndoOperation
Index: 20
Type: 1
WasModified: 1
WasOrder2: 0
Layer: 2
Width: 927
VWidth: 0
LBearingChange: 0
UnicodeEnc: 0
InstructionsLength: 0
SplineSet
47 389 m 4
 47 644 242 816 456 820 c 5
 460 820 l 6
 705 820 874 623 875 404 c 5
 874 404 l 5
 874 337 l 5
 238 337 l 5
 261 227 344 157 480 157 c 4
 568 157 641 191 676 236 c 5
 822 122 l 5
 755 35 652 -9 550 -23 c 4
 525 -26 500 -28 475 -28 c 4
 397 -28 319 -11 251 27 c 4
 116 101 47 244 47 389 c 4
658 522 m 5
 621 586 555 635 463 635 c 4
 462 635 461 635 460 635 c 4
 380 635 307 592 266 522 c 5
 658 522 l 5
EndSplineSet
EndUndoOperation
UndoOperation
Index: 21
Type: 1
WasModified: 1
WasOrder2: 0
Layer: 2
Width: 927
VWidth: 0
LBearingChange: 0
UnicodeEnc: 0
InstructionsLength: 0
SplineSet
47 390 m 4
 47 645 242 817 456 821 c 5
 460 821 l 6
 705 821 874 624 875 405 c 5
 874 405 l 5
 874 338 l 5
 238 338 l 5
 261 228 344 158 480 158 c 4
 568 158 641 192 676 237 c 5
 822 123 l 5
 755 36 652 -8 550 -22 c 4
 525 -25 500 -27 475 -27 c 4
 397 -27 319 -10 251 28 c 4
 116 102 47 245 47 390 c 4
658 523 m 5
 621 587 555 636 463 636 c 4
 462 636 461 636 460 636 c 4
 380 636 307 593 266 523 c 5
 658 523 l 5
EndSplineSet
EndUndoOperation
UndoOperation
Index: 22
Type: 1
WasModified: 1
WasOrder2: 0
Layer: 2
Width: 927
VWidth: 0
LBearingChange: 0
UnicodeEnc: 0
InstructionsLength: 0
SplineSet
47 391 m 4
 47 646 242 818 456 822 c 5
 460 822 l 6
 705 822 874 625 875 406 c 5
 874 406 l 5
 874 339 l 5
 238 339 l 5
 261 229 344 159 480 159 c 4
 568 159 641 193 676 238 c 5
 822 124 l 5
 755 37 652 -7 550 -21 c 4
 525 -24 500 -26 475 -26 c 4
 397 -26 319 -9 251 29 c 4
 116 103 47 246 47 391 c 4
658 524 m 5
 621 588 555 637 463 637 c 4
 462 637 461 637 460 637 c 4
 380 637 307 594 266 524 c 5
 658 524 l 5
EndSplineSet
EndUndoOperation
UndoOperation
Index: 23
Type: 1
WasModified: 1
WasOrder2: 0
Layer: 2
Width: 927
VWidth: 0
LBearingChange: 0
UnicodeEnc: 0
InstructionsLength: 0
SplineSet
47 392 m 4
 47 647 242 819 456 823 c 5
 460 823 l 6
 705 823 874 626 875 407 c 5
 874 407 l 5
 874 340 l 5
 238 340 l 5
 261 230 344 160 480 160 c 4
 568 160 641 194 676 239 c 5
 822 125 l 5
 755 38 652 -6 550 -20 c 4
 525 -23 500 -25 475 -25 c 4
 397 -25 319 -8 251 30 c 4
 116 104 47 247 47 392 c 4
658 525 m 5
 621 589 555 638 463 638 c 4
 462 638 461 638 460 638 c 4
 380 638 307 595 266 525 c 5
 658 525 l 5
EndSplineSet
EndUndoOperation
UndoOperation
Index: 24
Type: 1
WasModified: 1
WasOrder2: 0
Layer: 2
Width: 927
VWidth: 0
LBearingChange: 0
UnicodeEnc: 0
InstructionsLength: 0
SplineSet
47 393 m 4
 47 648 242 820 456 824 c 5
 460 824 l 6
 705 824 874 627 875 408 c 5
 874 408 l 5
 874 341 l 5
 238 341 l 5
 261 231 344 161 480 161 c 4
 568 161 641 195 676 240 c 5
 822 126 l 5
 755 39 652 -5 550 -19 c 4
 525 -22 500 -24 475 -24 c 4
 397 -24 319 -7 251 31 c 4
 116 105 47 248 47 393 c 4
658 526 m 5
 621 590 555 639 463 639 c 4
 462 639 461 639 460 639 c 4
 380 639 307 596 266 526 c 5
 658 526 l 5
EndSplineSet
EndUndoOperation
UndoOperation
Index: 25
Type: 1
WasModified: 1
WasOrder2: 0
Layer: 2
Width: 927
VWidth: 0
LBearingChange: 0
UnicodeEnc: 0
InstructionsLength: 0
SplineSet
47 394 m 4
 47 649 242 821 456 825 c 5
 460 825 l 6
 705 825 874 628 875 409 c 5
 874 409 l 5
 874 342 l 5
 238 342 l 5
 261 232 344 162 480 162 c 4
 568 162 641 196 676 241 c 5
 822 127 l 5
 755 40 652 -4 550 -18 c 4
 525 -21 500 -23 475 -23 c 4
 397 -23 319 -6 251 32 c 4
 116 106 47 249 47 394 c 4
658 527 m 5
 621 591 555 640 463 640 c 4
 462 640 461 640 460 640 c 4
 380 640 307 597 266 527 c 5
 658 527 l 5
EndSplineSet
EndUndoOperation
UndoOperation
Index: 26
Type: 1
WasModified: 1
WasOrder2: 0
Layer: 2
Width: 927
VWidth: 0
LBearingChange: 0
UnicodeEnc: 0
InstructionsLength: 0
SplineSet
47 395 m 4
 47 650 242 822 456 826 c 5
 460 826 l 6
 705 826 874 629 875 410 c 5
 874 410 l 5
 874 343 l 5
 238 343 l 5
 261 233 344 163 480 163 c 4
 568 163 641 197 676 242 c 5
 822 128 l 5
 755 41 652 -3 550 -17 c 4
 525 -20 500 -22 475 -22 c 4
 397 -22 319 -5 251 33 c 4
 116 107 47 250 47 395 c 4
658 528 m 5
 621 592 555 641 463 641 c 4
 462 641 461 641 460 641 c 4
 380 641 307 598 266 528 c 5
 658 528 l 5
EndSplineSet
EndUndoOperation
UndoOperation
Index: 27
Type: 1
WasModified: 1
WasOrder2: 0
Layer: 2
Width: 927
VWidth: 0
LBearingChange: 0
UnicodeEnc: 0
InstructionsLength: 0
SplineSet
47 396 m 4
 47 651 242 823 456 827 c 5
 460 827 l 6
 705 827 874 630 875 411 c 5
 874 411 l 5
 874 344 l 5
 238 344 l 5
 261 234 344 164 480 164 c 4
 568 164 641 198 676 243 c 5
 822 129 l 5
 755 42 652 -2 550 -16 c 4
 525 -19 500 -21 475 -21 c 4
 397 -21 319 -4 251 34 c 4
 116 108 47 251 47 396 c 4
658 529 m 5
 621 593 555 642 463 642 c 4
 462 642 461 642 460 642 c 4
 380 642 307 599 266 529 c 5
 658 529 l 5
EndSplineSet
EndUndoOperation
UndoOperation
Index: 28
Type: 1
WasModified: 1
WasOrder2: 0
Layer: 2
Width: 927
VWidth: 0
LBearingChange: 0
UnicodeEnc: 0
InstructionsLength: 0
SplineSet
47 397 m 4
 47 652 242 824 456 828 c 5
 460 828 l 6
 705 828 874 631 875 412 c 5
 874 412 l 5
 874 345 l 5
 238 345 l 5
 261 235 344 165 480 165 c 4
 568 165 641 199 676 244 c 5
 822 130 l 5
 755 43 652 -1 550 -15 c 4
 525 -18 500 -20 475 -20 c 4
 397 -20 319 -3 251 35 c 4
 116 109 47 252 47 397 c 4
658 530 m 5
 621 594 555 643 463 643 c 4
 462 643 461 643 460 643 c 4
 380 643 307 600 266 530 c 5
 658 530 l 5
EndSplineSet
EndUndoOperation
UndoOperation
Index: 29
Type: 1
WasModified: 1
WasOrder2: 0
Layer: 2
Width: 927
VWidth: 0
LBearingChange: 0
UnicodeEnc: 0
InstructionsLength: 0
SplineSet
47 398 m 4
 47 653 242 825 456 829 c 5
 460 829 l 6
 705 829 874 632 875 413 c 5
 874 413 l 5
 874 346 l 5
 238 346 l 5
 261 236 344 166 480 166 c 4
 568 166 641 200 676 245 c 5
 822 131 l 5
 755 44 652 0 550 -14 c 4
 525 -17 500 -19 475 -19 c 4
 397 -19 319 -2 251 36 c 4
 116 110 47 253 47 398 c 4
658 531 m 5
 621 595 555 644 463 644 c 4
 462 644 461 644 460 644 c 4
 380 644 307 601 266 531 c 5
 658 531 l 5
EndSplineSet
EndUndoOperation
UndoOperation
Index: 30
Type: 1
WasModified: 0
WasOrder2: 0
Layer: 2
Width: 927
VWidth: 0
LBearingChange: 0
UnicodeEnc: 0
InstructionsLength: 0
SplineSet
47 399 m 4
 47 654 242 826 456 830 c 5
 460 830 l 6
 705 830 874 633 875 414 c 5
 874 414 l 5
 874 347 l 5
 238 347 l 5
 261 237 344 167 480 167 c 4
 568 167 641 201 676 246 c 5
 822 132 l 5
 755 45 652 1 550 -13 c 4
 525 -16 500 -18 475 -18 c 4
 397 -18 319 -1 251 37 c 4
 116 111 47 254 47 399 c 4
658 532 m 5
 621 596 555 645 463 645 c 4
 462 645 461 645 460 645 c 4
 380 645 307 602 266 532 c 5
 658 532 l 5
EndSplineSet
EndUndoOperation
UndoOperation
Index: 31
Type: 7
WasModified: 1
WasOrder2: 0
Layer: 2
Width: 933
EndUndoOperation
UndoOperation
Index: 32
Type: 3
WasModified: 0
WasOrder2: 0
Layer: 2
HStem: -46 228<349.851 628.881> 355 157<289 631> 649 201<351.998 578.7>
EndUndoOperation
UndoOperation
Index: 33
Type: 1
WasModified: 1
WasOrder2: 0
Layer: 2
Width: 940
VWidth: 0
LBearingChange: 0
UnicodeEnc: 0
InstructionsLength: 0
SplineSet
54 399 m 4
 54 654 249 826 463 830 c 5
 467 830 l 6
 712 830 881 633 882 414 c 5
 881 414 l 5
 881 347 l 5
 245 347 l 5
 268 237 351 167 487 167 c 4
 575 167 648 201 683 246 c 5
 829 132 l 5
 762 45 659 1 557 -13 c 4
 532 -16 507 -18 482 -18 c 4
 404 -18 326 -1 258 37 c 4
 123 111 54 254 54 399 c 4
665 532 m 5
 628 596 562 645 470 645 c 4
 469 645 468 645 467 645 c 4
 387 645 314 602 273 532 c 5
 665 532 l 5
EndSplineSet
EndUndoOperation
UndoOperation
Index: 34
Type: 1
WasModified: 1
WasOrder2: 0
Layer: 2
Width: 940
VWidth: 0
LBearingChange: 0
UnicodeEnc: 0
InstructionsLength: 0
SplineSet
54 399 m 4
 54 654 249 826 463 830 c 5
 467 830 l 6
 712 830 881 633 882 414 c 5
 881 414 l 5
 881 347 l 5
 245 347 l 5
 268 237 351 167 487 167 c 4
 575 167 648 201 683 246 c 5
 829 132 l 5
 762 45 659 1 557 -13 c 4
 532 -16 507 -18 482 -18 c 4
 404 -18 326 -1 258 37 c 4
 123 111 54 254 54 399 c 4
665 532 m 5
 628 596 562 645 470 645 c 4
 469 645 468 645 467 645 c 4
 387 645 314 602 273 532 c 5
 665 532 l 5
EndSplineSet
EndUndoOperation
UndoOperation
Index: 35
Type: 1
WasModified: 0
WasOrder2: 0
Layer: 2
Width: 940
VWidth: 0
LBearingChange: 0
UnicodeEnc: 0
InstructionsLength: 0
SplineSet
54 399 m 4
 54 654.135742188 249.094726562 826.247070312 463 830 c 5
 467 830 l 6
 711.987304688 830 880.915039062 633.125976562 882 414 c 5
 881 414 l 5
 881 347 l 5
 245 347 l 5
 267.779296875 236.609375 350.970703125 167 487 167 c 4
 574.59375 167 647.577148438 200.805664062 683 246 c 5
 829 132 l 5
 762 45 659 1 557 -13 c 4
 532 -16 507 -18 482 -18 c 4
 404 -18 326 -1 258 37 c 4
 123 111 54 254 54 399 c 4
665 532 m 5
 627.692382812 596.440429688 561.602539062 645 470 645 c 4
 469 645 468 645 467 645 c 4
 387 645 314 602 273 532 c 5
 665 532 l 5
EndSplineSet
EndUndoOperation
UndoOperation
Index: 36
Type: 7
WasModified: 1
WasOrder2: 0
Layer: 2
Width: 960
EndUndoOperation
EndUndoes
Redoes
EndRedoes
EndUndoRedoHistory
Fore
SplineSet
44.15625 373.23828125 m 4
 44.15625 624.78125 238.471679688 792.400390625 451.96484375 796.145507812 c 5
 456.96484375 796.145507812 l 6
 700.96484375 796.145507812 870.96484375 603.145507812 871.96484375 389.145507812 c 5
 870.96484375 389.145507812 l 5
 870.96484375 323.145507812 l 5
 234.96484375 323.145507812 l 5
 257.96484375 217.145507812 343.7265625 146.59765625 470.295898438 146.59765625 c 4
 559.112304688 146.59765625 635.857421875 178.077148438 671.96484375 224.145507812 c 5
 818.96484375 113.145507812 l 5
 751.96484375 28.1455078125 648.96484375 -14.8544921875 546.96484375 -28.8544921875 c 4
 521.96484375 -31.8544921875 497.11328125 -34 472 -34 c 4
 393.614257812 -34 314.96484375 -16.8544921875 246.96484375 20.1455078125 c 4
 111.96484375 93.1455078125 44.15625 231.418945312 44.15625 373.23828125 c 4
654.96484375 504.145507812 m 5
 617.96484375 567.145507812 550.96484375 615.145507812 459.96484375 615.145507812 c 4
 458.96484375 615.145507812 458.078125 615.163085938 457.135742188 615.163085938 c 4
 377.221679688 615.163085938 303.96484375 573.145507812 262.96484375 504.145507812 c 5
 654.96484375 504.145507812 l 5
EndSplineSet
EndChar

StartChar: n
Encoding: 110 110 27
Width: 898
VWidth: 0
Flags: HW
HStem: 0 21G<38 285 614 861> 582 237<335.924 554.572>
VStem: 38 247<0 528.705 776 818> 614 247<0 521.74>
LayerCount: 2
UndoRedoHistory
Layer: 1
Undoes
UndoOperation
Index: 0
Type: 7
WasModified: 1
WasOrder2: 0
Layer: 2
Width: 902
EndUndoOperation
UndoOperation
Index: 1
Type: 3
WasModified: 0
WasOrder2: 0
Layer: 2
HStem: 0 21G<39 286 615 862> 582 237<336.924 555.572>
VStem: 39 247<0 528.705 776 818> 615 247<0 521.74>
EndUndoOperation
UndoOperation
Index: 2
Type: 1
WasModified: 1
WasOrder2: 0
Layer: 2
Width: 903
VWidth: 0
LBearingChange: 0
UnicodeEnc: 0
InstructionsLength: 0
SplineSet
453 777 m 2
 659 777 832 627 833 446 c 4
 833 336 832 247 832 152 c 0
 832 104 832 55 833 0 c 5
 644 0 l 5
 644 0 645 203 645 358 c 4
 645 368 645 378 645 388 c 0
 645 436 642 489 612 525 c 4
 581 562 519 591 453 591 c 0
 377 591 308 552 278 506 c 4
 258 475 257 439 257 401 c 0
 257 267 257 134 257 0 c 5
 69 0 l 5
 69 779 l 5
 257 779 l 5
 257 721 l 5
 314 751 383 776 446 777 c 5
 453 777 l 2
EndSplineSet
EndUndoOperation
UndoOperation
Index: 3
Type: 1
WasModified: 1
WasOrder2: 0
Layer: 2
Width: 903
VWidth: 0
LBearingChange: 0
UnicodeEnc: 0
InstructionsLength: 0
SplineSet
453 777 m 2
 659 777 832 627 833 446 c 4
 833 336 832 247 832 152 c 0
 832 104 832 55 833 0 c 5
 644 0 l 5
 644 0 645 203 645 358 c 4
 645 368 645 378 645 388 c 0
 645 436 642 489 612 525 c 4
 581 562 519 591 453 591 c 0
 377 591 308 552 278 506 c 4
 258 475 257 439 257 401 c 0
 257 267 257 134 257 0 c 5
 69 0 l 5
 69 779 l 5
 257 779 l 5
 257 721 l 5
 314 751 383 776 446 777 c 5
 453 777 l 2
EndSplineSet
EndUndoOperation
UndoOperation
Index: 4
Type: 1
WasModified: 0
WasOrder2: 0
Layer: 2
Width: 903
VWidth: 0
LBearingChange: 0
UnicodeEnc: 0
InstructionsLength: 0
SplineSet
453 777 m 2
 659.36328125 777 831.567382812 626.506835938 833 446 c 4
 833 336 832 247 832 152 c 0
 832 104 832 55 833 0 c 5
 644 0 l 5
 644 0 645 203 645 358 c 4
 645 368 645 378 645 388 c 0
 645 436 642 489 612 525 c 4
 580.809570312 562.428710938 518.80859375 591 453 591 c 0
 376.84375 591 307.71484375 551.5625 278 506 c 4
 258 475 257 439 257 401 c 0
 257 267.333007812 257 133.666992188 257 0 c 5
 69 0 l 5
 69 779 l 5
 257 779 l 5
 257 721 l 5
 314 751 383 776 446 777 c 5
 453 777 l 2
EndSplineSet
EndUndoOperation
UndoOperation
Index: 5
Type: 7
WasModified: 1
WasOrder2: 0
Layer: 2
Width: 928
EndUndoOperation
EndUndoes
Redoes
EndRedoes
EndUndoRedoHistory
Fore
SplineSet
452 777 m 2
 658 777 831 627 832 446 c 4
 832 336 831 247 831 152 c 0
 831 104 831 55 832 0 c 5
 643 0 l 5
 643 0 644 203 644 358 c 4
 644 368 644 378 644 388 c 0
 644 436 641 489 611 525 c 4
 580 562 518 591 452 591 c 0
 376 591 307 552 277 506 c 4
 257 475 256 439 256 401 c 2
 256 0 l 5
 68 0 l 5
 68 779 l 5
 256 779 l 5
 256 721 l 5
 313 751 382 776 445 777 c 5
 452 777 l 2
EndSplineSet
EndChar

StartChar: o
Encoding: 111 111 28
Width: 934
VWidth: 0
Flags: HW
HStem: -21 235<353.126 600.956> 590 235<353.126 600.956>
VStem: 32.0175 247<284.281 519.719> 675.017 247<284.281 519.719>
LayerCount: 2
UndoRedoHistory
Layer: 1
Undoes
UndoOperation
Index: 0
Type: 1
WasModified: 1
WasOrder2: 0
Layer: 2
Width: 934
VWidth: 0
LBearingChange: 0
UnicodeEnc: 0
InstructionsLength: 0
SplineSet
462.017578125 -36 m 4
 215.017578125 -36 45.017578125 169 47.017578125 382 c 5
 47.017578125 390 l 6
 47.017578125 602 237.017578125 791 448.017578125 795 c 5
 471.017578125 795 l 6
 677.017578125 795 880.017578125 621 880.017578125 383 c 4
 880.017578125 282 843.017578125 182 776.017578125 106 c 5
 699.017578125 14 580.017578125 -36 462.017578125 -36 c 4
464.017578125 151 m 4
 580.017578125 151 693.017578125 247 693.017578125 380 c 4
 693.017578125 496 591.017578125 607 473.017578125 607 c 4
 472.017578125 607 471.017578125 607 470.017578125 607 c 4
 336.017578125 607 235.017578125 508 235.017578125 374 c 4
 235.017578125 259 334.017578125 151 464.017578125 151 c 4
EndSplineSet
EndUndoOperation
UndoOperation
Index: 1
Type: 1
WasModified: 1
WasOrder2: 0
Layer: 2
Width: 934
VWidth: 0
LBearingChange: 0
UnicodeEnc: 0
InstructionsLength: 0
SplineSet
462.017578125 -37 m 4
 215.017578125 -37 45.017578125 168 47.017578125 381 c 5
 47.017578125 389 l 6
 47.017578125 601 237.017578125 790 448.017578125 794 c 5
 471.017578125 794 l 6
 677.017578125 794 880.017578125 620 880.017578125 382 c 4
 880.017578125 281 843.017578125 181 776.017578125 105 c 5
 699.017578125 13 580.017578125 -37 462.017578125 -37 c 4
464.017578125 150 m 4
 580.017578125 150 693.017578125 246 693.017578125 379 c 4
 693.017578125 495 591.017578125 606 473.017578125 606 c 4
 472.017578125 606 471.017578125 606 470.017578125 606 c 4
 336.017578125 606 235.017578125 507 235.017578125 373 c 4
 235.017578125 258 334.017578125 150 464.017578125 150 c 4
EndSplineSet
EndUndoOperation
UndoOperation
Index: 2
Type: 1
WasModified: 1
WasOrder2: 0
Layer: 2
Width: 934
VWidth: 0
LBearingChange: 0
UnicodeEnc: 0
InstructionsLength: 0
SplineSet
462.017578125 -38 m 4
 215.017578125 -38 45.017578125 167 47.017578125 380 c 5
 47.017578125 388 l 6
 47.017578125 600 237.017578125 789 448.017578125 793 c 5
 471.017578125 793 l 6
 677.017578125 793 880.017578125 619 880.017578125 381 c 4
 880.017578125 280 843.017578125 180 776.017578125 104 c 5
 699.017578125 12 580.017578125 -38 462.017578125 -38 c 4
464.017578125 149 m 4
 580.017578125 149 693.017578125 245 693.017578125 378 c 4
 693.017578125 494 591.017578125 605 473.017578125 605 c 4
 472.017578125 605 471.017578125 605 470.017578125 605 c 4
 336.017578125 605 235.017578125 506 235.017578125 372 c 4
 235.017578125 257 334.017578125 149 464.017578125 149 c 4
EndSplineSet
EndUndoOperation
UndoOperation
Index: 3
Type: 1
WasModified: 1
WasOrder2: 0
Layer: 2
Width: 934
VWidth: 0
LBearingChange: 0
UnicodeEnc: 0
InstructionsLength: 0
SplineSet
462.017578125 -37 m 4
 215.017578125 -37 45.017578125 168 47.017578125 381 c 5
 47.017578125 389 l 6
 47.017578125 601 237.017578125 790 448.017578125 794 c 5
 471.017578125 794 l 6
 677.017578125 794 880.017578125 620 880.017578125 382 c 4
 880.017578125 281 843.017578125 181 776.017578125 105 c 5
 699.017578125 13 580.017578125 -37 462.017578125 -37 c 4
464.017578125 150 m 4
 580.017578125 150 693.017578125 246 693.017578125 379 c 4
 693.017578125 495 591.017578125 606 473.017578125 606 c 4
 472.017578125 606 471.017578125 606 470.017578125 606 c 4
 336.017578125 606 235.017578125 507 235.017578125 373 c 4
 235.017578125 258 334.017578125 150 464.017578125 150 c 4
EndSplineSet
EndUndoOperation
UndoOperation
Index: 4
Type: 1
WasModified: 1
WasOrder2: 0
Layer: 2
Width: 934
VWidth: 0
LBearingChange: 0
UnicodeEnc: 0
InstructionsLength: 0
SplineSet
462.017578125 -36 m 4
 215.017578125 -36 45.017578125 169 47.017578125 382 c 5
 47.017578125 390 l 6
 47.017578125 602 237.017578125 791 448.017578125 795 c 5
 471.017578125 795 l 6
 677.017578125 795 880.017578125 621 880.017578125 383 c 4
 880.017578125 282 843.017578125 182 776.017578125 106 c 5
 699.017578125 14 580.017578125 -36 462.017578125 -36 c 4
464.017578125 151 m 4
 580.017578125 151 693.017578125 247 693.017578125 380 c 4
 693.017578125 496 591.017578125 607 473.017578125 607 c 4
 472.017578125 607 471.017578125 607 470.017578125 607 c 4
 336.017578125 607 235.017578125 508 235.017578125 374 c 4
 235.017578125 259 334.017578125 151 464.017578125 151 c 4
EndSplineSet
EndUndoOperation
UndoOperation
Index: 5
Type: 1
WasModified: 1
WasOrder2: 0
Layer: 2
Width: 934
VWidth: 0
LBearingChange: 0
UnicodeEnc: 0
InstructionsLength: 0
SplineSet
462.017578125 -35 m 4
 215.017578125 -35 45.017578125 170 47.017578125 383 c 5
 47.017578125 391 l 6
 47.017578125 603 237.017578125 792 448.017578125 796 c 5
 471.017578125 796 l 6
 677.017578125 796 880.017578125 622 880.017578125 384 c 4
 880.017578125 283 843.017578125 183 776.017578125 107 c 5
 699.017578125 15 580.017578125 -35 462.017578125 -35 c 4
464.017578125 152 m 4
 580.017578125 152 693.017578125 248 693.017578125 381 c 4
 693.017578125 497 591.017578125 608 473.017578125 608 c 4
 472.017578125 608 471.017578125 608 470.017578125 608 c 4
 336.017578125 608 235.017578125 509 235.017578125 375 c 4
 235.017578125 260 334.017578125 152 464.017578125 152 c 4
EndSplineSet
EndUndoOperation
UndoOperation
Index: 6
Type: 1
WasModified: 1
WasOrder2: 0
Layer: 2
Width: 934
VWidth: 0
LBearingChange: 0
UnicodeEnc: 0
InstructionsLength: 0
SplineSet
462.017578125 -34 m 4
 215.017578125 -34 45.017578125 171 47.017578125 384 c 5
 47.017578125 392 l 6
 47.017578125 604 237.017578125 793 448.017578125 797 c 5
 471.017578125 797 l 6
 677.017578125 797 880.017578125 623 880.017578125 385 c 4
 880.017578125 284 843.017578125 184 776.017578125 108 c 5
 699.017578125 16 580.017578125 -34 462.017578125 -34 c 4
464.017578125 153 m 4
 580.017578125 153 693.017578125 249 693.017578125 382 c 4
 693.017578125 498 591.017578125 609 473.017578125 609 c 4
 472.017578125 609 471.017578125 609 470.017578125 609 c 4
 336.017578125 609 235.017578125 510 235.017578125 376 c 4
 235.017578125 261 334.017578125 153 464.017578125 153 c 4
EndSplineSet
EndUndoOperation
UndoOperation
Index: 7
Type: 1
WasModified: 1
WasOrder2: 0
Layer: 2
Width: 934
VWidth: 0
LBearingChange: 0
UnicodeEnc: 0
InstructionsLength: 0
SplineSet
462.017578125 -33 m 4
 215.017578125 -33 45.017578125 172 47.017578125 385 c 5
 47.017578125 393 l 6
 47.017578125 605 237.017578125 794 448.017578125 798 c 5
 471.017578125 798 l 6
 677.017578125 798 880.017578125 624 880.017578125 386 c 4
 880.017578125 285 843.017578125 185 776.017578125 109 c 5
 699.017578125 17 580.017578125 -33 462.017578125 -33 c 4
464.017578125 154 m 4
 580.017578125 154 693.017578125 250 693.017578125 383 c 4
 693.017578125 499 591.017578125 610 473.017578125 610 c 4
 472.017578125 610 471.017578125 610 470.017578125 610 c 4
 336.017578125 610 235.017578125 511 235.017578125 377 c 4
 235.017578125 262 334.017578125 154 464.017578125 154 c 4
EndSplineSet
EndUndoOperation
UndoOperation
Index: 8
Type: 1
WasModified: 1
WasOrder2: 0
Layer: 2
Width: 934
VWidth: 0
LBearingChange: 0
UnicodeEnc: 0
InstructionsLength: 0
SplineSet
462.017578125 -32 m 4
 215.017578125 -32 45.017578125 173 47.017578125 386 c 5
 47.017578125 394 l 6
 47.017578125 606 237.017578125 795 448.017578125 799 c 5
 471.017578125 799 l 6
 677.017578125 799 880.017578125 625 880.017578125 387 c 4
 880.017578125 286 843.017578125 186 776.017578125 110 c 5
 699.017578125 18 580.017578125 -32 462.017578125 -32 c 4
464.017578125 155 m 4
 580.017578125 155 693.017578125 251 693.017578125 384 c 4
 693.017578125 500 591.017578125 611 473.017578125 611 c 4
 472.017578125 611 471.017578125 611 470.017578125 611 c 4
 336.017578125 611 235.017578125 512 235.017578125 378 c 4
 235.017578125 263 334.017578125 155 464.017578125 155 c 4
EndSplineSet
EndUndoOperation
UndoOperation
Index: 9
Type: 1
WasModified: 1
WasOrder2: 0
Layer: 2
Width: 934
VWidth: 0
LBearingChange: 0
UnicodeEnc: 0
InstructionsLength: 0
SplineSet
462.017578125 -31 m 4
 215.017578125 -31 45.017578125 174 47.017578125 387 c 5
 47.017578125 395 l 6
 47.017578125 607 237.017578125 796 448.017578125 800 c 5
 471.017578125 800 l 6
 677.017578125 800 880.017578125 626 880.017578125 388 c 4
 880.017578125 287 843.017578125 187 776.017578125 111 c 5
 699.017578125 19 580.017578125 -31 462.017578125 -31 c 4
464.017578125 156 m 4
 580.017578125 156 693.017578125 252 693.017578125 385 c 4
 693.017578125 501 591.017578125 612 473.017578125 612 c 4
 472.017578125 612 471.017578125 612 470.017578125 612 c 4
 336.017578125 612 235.017578125 513 235.017578125 379 c 4
 235.017578125 264 334.017578125 156 464.017578125 156 c 4
EndSplineSet
EndUndoOperation
UndoOperation
Index: 10
Type: 1
WasModified: 1
WasOrder2: 0
Layer: 2
Width: 934
VWidth: 0
LBearingChange: 0
UnicodeEnc: 0
InstructionsLength: 0
SplineSet
462.017578125 -30 m 4
 215.017578125 -30 45.017578125 175 47.017578125 388 c 5
 47.017578125 396 l 6
 47.017578125 608 237.017578125 797 448.017578125 801 c 5
 471.017578125 801 l 6
 677.017578125 801 880.017578125 627 880.017578125 389 c 4
 880.017578125 288 843.017578125 188 776.017578125 112 c 5
 699.017578125 20 580.017578125 -30 462.017578125 -30 c 4
464.017578125 157 m 4
 580.017578125 157 693.017578125 253 693.017578125 386 c 4
 693.017578125 502 591.017578125 613 473.017578125 613 c 4
 472.017578125 613 471.017578125 613 470.017578125 613 c 4
 336.017578125 613 235.017578125 514 235.017578125 380 c 4
 235.017578125 265 334.017578125 157 464.017578125 157 c 4
EndSplineSet
EndUndoOperation
UndoOperation
Index: 11
Type: 1
WasModified: 1
WasOrder2: 0
Layer: 2
Width: 934
VWidth: 0
LBearingChange: 0
UnicodeEnc: 0
InstructionsLength: 0
SplineSet
462.017578125 -29 m 4
 215.017578125 -29 45.017578125 176 47.017578125 389 c 5
 47.017578125 397 l 6
 47.017578125 609 237.017578125 798 448.017578125 802 c 5
 471.017578125 802 l 6
 677.017578125 802 880.017578125 628 880.017578125 390 c 4
 880.017578125 289 843.017578125 189 776.017578125 113 c 5
 699.017578125 21 580.017578125 -29 462.017578125 -29 c 4
464.017578125 158 m 4
 580.017578125 158 693.017578125 254 693.017578125 387 c 4
 693.017578125 503 591.017578125 614 473.017578125 614 c 4
 472.017578125 614 471.017578125 614 470.017578125 614 c 4
 336.017578125 614 235.017578125 515 235.017578125 381 c 4
 235.017578125 266 334.017578125 158 464.017578125 158 c 4
EndSplineSet
EndUndoOperation
UndoOperation
Index: 12
Type: 1
WasModified: 1
WasOrder2: 0
Layer: 2
Width: 934
VWidth: 0
LBearingChange: 0
UnicodeEnc: 0
InstructionsLength: 0
SplineSet
462.017578125 -28 m 4
 215.017578125 -28 45.017578125 177 47.017578125 390 c 5
 47.017578125 398 l 6
 47.017578125 610 237.017578125 799 448.017578125 803 c 5
 471.017578125 803 l 6
 677.017578125 803 880.017578125 629 880.017578125 391 c 4
 880.017578125 290 843.017578125 190 776.017578125 114 c 5
 699.017578125 22 580.017578125 -28 462.017578125 -28 c 4
464.017578125 159 m 4
 580.017578125 159 693.017578125 255 693.017578125 388 c 4
 693.017578125 504 591.017578125 615 473.017578125 615 c 4
 472.017578125 615 471.017578125 615 470.017578125 615 c 4
 336.017578125 615 235.017578125 516 235.017578125 382 c 4
 235.017578125 267 334.017578125 159 464.017578125 159 c 4
EndSplineSet
EndUndoOperation
UndoOperation
Index: 13
Type: 1
WasModified: 1
WasOrder2: 0
Layer: 2
Width: 934
VWidth: 0
LBearingChange: 0
UnicodeEnc: 0
InstructionsLength: 0
SplineSet
462.017578125 -27 m 4
 215.017578125 -27 45.017578125 178 47.017578125 391 c 5
 47.017578125 399 l 6
 47.017578125 611 237.017578125 800 448.017578125 804 c 5
 471.017578125 804 l 6
 677.017578125 804 880.017578125 630 880.017578125 392 c 4
 880.017578125 291 843.017578125 191 776.017578125 115 c 5
 699.017578125 23 580.017578125 -27 462.017578125 -27 c 4
464.017578125 160 m 4
 580.017578125 160 693.017578125 256 693.017578125 389 c 4
 693.017578125 505 591.017578125 616 473.017578125 616 c 4
 472.017578125 616 471.017578125 616 470.017578125 616 c 4
 336.017578125 616 235.017578125 517 235.017578125 383 c 4
 235.017578125 268 334.017578125 160 464.017578125 160 c 4
EndSplineSet
EndUndoOperation
UndoOperation
Index: 14
Type: 1
WasModified: 1
WasOrder2: 0
Layer: 2
Width: 934
VWidth: 0
LBearingChange: 0
UnicodeEnc: 0
InstructionsLength: 0
SplineSet
462.017578125 -26 m 4
 215.017578125 -26 45.017578125 179 47.017578125 392 c 5
 47.017578125 400 l 6
 47.017578125 612 237.017578125 801 448.017578125 805 c 5
 471.017578125 805 l 6
 677.017578125 805 880.017578125 631 880.017578125 393 c 4
 880.017578125 292 843.017578125 192 776.017578125 116 c 5
 699.017578125 24 580.017578125 -26 462.017578125 -26 c 4
464.017578125 161 m 4
 580.017578125 161 693.017578125 257 693.017578125 390 c 4
 693.017578125 506 591.017578125 617 473.017578125 617 c 4
 472.017578125 617 471.017578125 617 470.017578125 617 c 4
 336.017578125 617 235.017578125 518 235.017578125 384 c 4
 235.017578125 269 334.017578125 161 464.017578125 161 c 4
EndSplineSet
EndUndoOperation
UndoOperation
Index: 15
Type: 1
WasModified: 1
WasOrder2: 0
Layer: 2
Width: 934
VWidth: 0
LBearingChange: 0
UnicodeEnc: 0
InstructionsLength: 0
SplineSet
462.017578125 -25 m 4
 215.017578125 -25 45.017578125 180 47.017578125 393 c 5
 47.017578125 401 l 6
 47.017578125 613 237.017578125 802 448.017578125 806 c 5
 471.017578125 806 l 6
 677.017578125 806 880.017578125 632 880.017578125 394 c 4
 880.017578125 293 843.017578125 193 776.017578125 117 c 5
 699.017578125 25 580.017578125 -25 462.017578125 -25 c 4
464.017578125 162 m 4
 580.017578125 162 693.017578125 258 693.017578125 391 c 4
 693.017578125 507 591.017578125 618 473.017578125 618 c 4
 472.017578125 618 471.017578125 618 470.017578125 618 c 4
 336.017578125 618 235.017578125 519 235.017578125 385 c 4
 235.017578125 270 334.017578125 162 464.017578125 162 c 4
EndSplineSet
EndUndoOperation
UndoOperation
Index: 16
Type: 1
WasModified: 1
WasOrder2: 0
Layer: 2
Width: 934
VWidth: 0
LBearingChange: 0
UnicodeEnc: 0
InstructionsLength: 0
SplineSet
462.017578125 -24 m 4
 215.017578125 -24 45.017578125 181 47.017578125 394 c 5
 47.017578125 402 l 6
 47.017578125 614 237.017578125 803 448.017578125 807 c 5
 471.017578125 807 l 6
 677.017578125 807 880.017578125 633 880.017578125 395 c 4
 880.017578125 294 843.017578125 194 776.017578125 118 c 5
 699.017578125 26 580.017578125 -24 462.017578125 -24 c 4
464.017578125 163 m 4
 580.017578125 163 693.017578125 259 693.017578125 392 c 4
 693.017578125 508 591.017578125 619 473.017578125 619 c 4
 472.017578125 619 471.017578125 619 470.017578125 619 c 4
 336.017578125 619 235.017578125 520 235.017578125 386 c 4
 235.017578125 271 334.017578125 163 464.017578125 163 c 4
EndSplineSet
EndUndoOperation
UndoOperation
Index: 17
Type: 1
WasModified: 1
WasOrder2: 0
Layer: 2
Width: 934
VWidth: 0
LBearingChange: 0
UnicodeEnc: 0
InstructionsLength: 0
SplineSet
462.017578125 -23 m 4
 215.017578125 -23 45.017578125 182 47.017578125 395 c 5
 47.017578125 403 l 6
 47.017578125 615 237.017578125 804 448.017578125 808 c 5
 471.017578125 808 l 6
 677.017578125 808 880.017578125 634 880.017578125 396 c 4
 880.017578125 295 843.017578125 195 776.017578125 119 c 5
 699.017578125 27 580.017578125 -23 462.017578125 -23 c 4
464.017578125 164 m 4
 580.017578125 164 693.017578125 260 693.017578125 393 c 4
 693.017578125 509 591.017578125 620 473.017578125 620 c 4
 472.017578125 620 471.017578125 620 470.017578125 620 c 4
 336.017578125 620 235.017578125 521 235.017578125 387 c 4
 235.017578125 272 334.017578125 164 464.017578125 164 c 4
EndSplineSet
EndUndoOperation
UndoOperation
Index: 18
Type: 1
WasModified: 1
WasOrder2: 0
Layer: 2
Width: 934
VWidth: 0
LBearingChange: 0
UnicodeEnc: 0
InstructionsLength: 0
SplineSet
462.017578125 -22 m 4
 215.017578125 -22 45.017578125 183 47.017578125 396 c 5
 47.017578125 404 l 6
 47.017578125 616 237.017578125 805 448.017578125 809 c 5
 471.017578125 809 l 6
 677.017578125 809 880.017578125 635 880.017578125 397 c 4
 880.017578125 296 843.017578125 196 776.017578125 120 c 5
 699.017578125 28 580.017578125 -22 462.017578125 -22 c 4
464.017578125 165 m 4
 580.017578125 165 693.017578125 261 693.017578125 394 c 4
 693.017578125 510 591.017578125 621 473.017578125 621 c 4
 472.017578125 621 471.017578125 621 470.017578125 621 c 4
 336.017578125 621 235.017578125 522 235.017578125 388 c 4
 235.017578125 273 334.017578125 165 464.017578125 165 c 4
EndSplineSet
EndUndoOperation
UndoOperation
Index: 19
Type: 1
WasModified: 1
WasOrder2: 0
Layer: 2
Width: 934
VWidth: 0
LBearingChange: 0
UnicodeEnc: 0
InstructionsLength: 0
SplineSet
462.017578125 -21 m 4
 215.017578125 -21 45.017578125 184 47.017578125 397 c 5
 47.017578125 405 l 6
 47.017578125 617 237.017578125 806 448.017578125 810 c 5
 471.017578125 810 l 6
 677.017578125 810 880.017578125 636 880.017578125 398 c 4
 880.017578125 297 843.017578125 197 776.017578125 121 c 5
 699.017578125 29 580.017578125 -21 462.017578125 -21 c 4
464.017578125 166 m 4
 580.017578125 166 693.017578125 262 693.017578125 395 c 4
 693.017578125 511 591.017578125 622 473.017578125 622 c 4
 472.017578125 622 471.017578125 622 470.017578125 622 c 4
 336.017578125 622 235.017578125 523 235.017578125 389 c 4
 235.017578125 274 334.017578125 166 464.017578125 166 c 4
EndSplineSet
EndUndoOperation
UndoOperation
Index: 20
Type: 1
WasModified: 1
WasOrder2: 0
Layer: 2
Width: 934
VWidth: 0
LBearingChange: 0
UnicodeEnc: 0
InstructionsLength: 0
SplineSet
462.017578125 -20 m 4
 215.017578125 -20 45.017578125 185 47.017578125 398 c 5
 47.017578125 406 l 6
 47.017578125 618 237.017578125 807 448.017578125 811 c 5
 471.017578125 811 l 6
 677.017578125 811 880.017578125 637 880.017578125 399 c 4
 880.017578125 298 843.017578125 198 776.017578125 122 c 5
 699.017578125 30 580.017578125 -20 462.017578125 -20 c 4
464.017578125 167 m 4
 580.017578125 167 693.017578125 263 693.017578125 396 c 4
 693.017578125 512 591.017578125 623 473.017578125 623 c 4
 472.017578125 623 471.017578125 623 470.017578125 623 c 4
 336.017578125 623 235.017578125 524 235.017578125 390 c 4
 235.017578125 275 334.017578125 167 464.017578125 167 c 4
EndSplineSet
EndUndoOperation
UndoOperation
Index: 21
Type: 1
WasModified: 1
WasOrder2: 0
Layer: 2
Width: 934
VWidth: 0
LBearingChange: 0
UnicodeEnc: 0
InstructionsLength: 0
SplineSet
462.017578125 -19 m 4
 215.017578125 -19 45.017578125 186 47.017578125 399 c 5
 47.017578125 407 l 6
 47.017578125 619 237.017578125 808 448.017578125 812 c 5
 471.017578125 812 l 6
 677.017578125 812 880.017578125 638 880.017578125 400 c 4
 880.017578125 299 843.017578125 199 776.017578125 123 c 5
 699.017578125 31 580.017578125 -19 462.017578125 -19 c 4
464.017578125 168 m 4
 580.017578125 168 693.017578125 264 693.017578125 397 c 4
 693.017578125 513 591.017578125 624 473.017578125 624 c 4
 472.017578125 624 471.017578125 624 470.017578125 624 c 4
 336.017578125 624 235.017578125 525 235.017578125 391 c 4
 235.017578125 276 334.017578125 168 464.017578125 168 c 4
EndSplineSet
EndUndoOperation
UndoOperation
Index: 22
Type: 1
WasModified: 1
WasOrder2: 0
Layer: 2
Width: 934
VWidth: 0
LBearingChange: 0
UnicodeEnc: 0
InstructionsLength: 0
SplineSet
462.017578125 -18 m 4
 215.017578125 -18 45.017578125 187 47.017578125 400 c 5
 47.017578125 408 l 6
 47.017578125 620 237.017578125 809 448.017578125 813 c 5
 471.017578125 813 l 6
 677.017578125 813 880.017578125 639 880.017578125 401 c 4
 880.017578125 300 843.017578125 200 776.017578125 124 c 5
 699.017578125 32 580.017578125 -18 462.017578125 -18 c 4
464.017578125 169 m 4
 580.017578125 169 693.017578125 265 693.017578125 398 c 4
 693.017578125 514 591.017578125 625 473.017578125 625 c 4
 472.017578125 625 471.017578125 625 470.017578125 625 c 4
 336.017578125 625 235.017578125 526 235.017578125 392 c 4
 235.017578125 277 334.017578125 169 464.017578125 169 c 4
EndSplineSet
EndUndoOperation
UndoOperation
Index: 23
Type: 1
WasModified: 1
WasOrder2: 0
Layer: 2
Width: 934
VWidth: 0
LBearingChange: 0
UnicodeEnc: 0
InstructionsLength: 0
SplineSet
462.017578125 -17 m 4
 215.017578125 -17 45.017578125 188 47.017578125 401 c 5
 47.017578125 409 l 6
 47.017578125 621 237.017578125 810 448.017578125 814 c 5
 471.017578125 814 l 6
 677.017578125 814 880.017578125 640 880.017578125 402 c 4
 880.017578125 301 843.017578125 201 776.017578125 125 c 5
 699.017578125 33 580.017578125 -17 462.017578125 -17 c 4
464.017578125 170 m 4
 580.017578125 170 693.017578125 266 693.017578125 399 c 4
 693.017578125 515 591.017578125 626 473.017578125 626 c 4
 472.017578125 626 471.017578125 626 470.017578125 626 c 4
 336.017578125 626 235.017578125 527 235.017578125 393 c 4
 235.017578125 278 334.017578125 170 464.017578125 170 c 4
EndSplineSet
EndUndoOperation
UndoOperation
Index: 24
Type: 1
WasModified: 1
WasOrder2: 0
Layer: 2
Width: 934
VWidth: 0
LBearingChange: 0
UnicodeEnc: 0
InstructionsLength: 0
SplineSet
462.017578125 -16 m 4
 215.017578125 -16 45.017578125 189 47.017578125 402 c 5
 47.017578125 410 l 6
 47.017578125 622 237.017578125 811 448.017578125 815 c 5
 471.017578125 815 l 6
 677.017578125 815 880.017578125 641 880.017578125 403 c 4
 880.017578125 302 843.017578125 202 776.017578125 126 c 5
 699.017578125 34 580.017578125 -16 462.017578125 -16 c 4
464.017578125 171 m 4
 580.017578125 171 693.017578125 267 693.017578125 400 c 4
 693.017578125 516 591.017578125 627 473.017578125 627 c 4
 472.017578125 627 471.017578125 627 470.017578125 627 c 4
 336.017578125 627 235.017578125 528 235.017578125 394 c 4
 235.017578125 279 334.017578125 171 464.017578125 171 c 4
EndSplineSet
EndUndoOperation
UndoOperation
Index: 25
Type: 1
WasModified: 1
WasOrder2: 0
Layer: 2
Width: 934
VWidth: 0
LBearingChange: 0
UnicodeEnc: 0
InstructionsLength: 0
SplineSet
462.017578125 -15 m 4
 215.017578125 -15 45.017578125 190 47.017578125 403 c 5
 47.017578125 411 l 6
 47.017578125 623 237.017578125 812 448.017578125 816 c 5
 471.017578125 816 l 6
 677.017578125 816 880.017578125 642 880.017578125 404 c 4
 880.017578125 303 843.017578125 203 776.017578125 127 c 5
 699.017578125 35 580.017578125 -15 462.017578125 -15 c 4
464.017578125 172 m 4
 580.017578125 172 693.017578125 268 693.017578125 401 c 4
 693.017578125 517 591.017578125 628 473.017578125 628 c 4
 472.017578125 628 471.017578125 628 470.017578125 628 c 4
 336.017578125 628 235.017578125 529 235.017578125 395 c 4
 235.017578125 280 334.017578125 172 464.017578125 172 c 4
EndSplineSet
EndUndoOperation
UndoOperation
Index: 26
Type: 1
WasModified: 1
WasOrder2: 0
Layer: 2
Width: 934
VWidth: 0
LBearingChange: 0
UnicodeEnc: 0
InstructionsLength: 0
SplineSet
462.017578125 -14 m 4
 215.017578125 -14 45.017578125 191 47.017578125 404 c 5
 47.017578125 412 l 6
 47.017578125 624 237.017578125 813 448.017578125 817 c 5
 471.017578125 817 l 6
 677.017578125 817 880.017578125 643 880.017578125 405 c 4
 880.017578125 304 843.017578125 204 776.017578125 128 c 5
 699.017578125 36 580.017578125 -14 462.017578125 -14 c 4
464.017578125 173 m 4
 580.017578125 173 693.017578125 269 693.017578125 402 c 4
 693.017578125 518 591.017578125 629 473.017578125 629 c 4
 472.017578125 629 471.017578125 629 470.017578125 629 c 4
 336.017578125 629 235.017578125 530 235.017578125 396 c 4
 235.017578125 281 334.017578125 173 464.017578125 173 c 4
EndSplineSet
EndUndoOperation
UndoOperation
Index: 27
Type: 1
WasModified: 1
WasOrder2: 0
Layer: 2
Width: 934
VWidth: 0
LBearingChange: 0
UnicodeEnc: 0
InstructionsLength: 0
SplineSet
462.017578125 -13 m 4
 215.017578125 -13 45.017578125 192 47.017578125 405 c 5
 47.017578125 413 l 6
 47.017578125 625 237.017578125 814 448.017578125 818 c 5
 471.017578125 818 l 6
 677.017578125 818 880.017578125 644 880.017578125 406 c 4
 880.017578125 305 843.017578125 205 776.017578125 129 c 5
 699.017578125 37 580.017578125 -13 462.017578125 -13 c 4
464.017578125 174 m 4
 580.017578125 174 693.017578125 270 693.017578125 403 c 4
 693.017578125 519 591.017578125 630 473.017578125 630 c 4
 472.017578125 630 471.017578125 630 470.017578125 630 c 4
 336.017578125 630 235.017578125 531 235.017578125 397 c 4
 235.017578125 282 334.017578125 174 464.017578125 174 c 4
EndSplineSet
EndUndoOperation
UndoOperation
Index: 28
Type: 1
WasModified: 1
WasOrder2: 0
Layer: 2
Width: 934
VWidth: 0
LBearingChange: 0
UnicodeEnc: 0
InstructionsLength: 0
SplineSet
462.017578125 -12 m 4
 215.017578125 -12 45.017578125 193 47.017578125 406 c 5
 47.017578125 414 l 6
 47.017578125 626 237.017578125 815 448.017578125 819 c 5
 471.017578125 819 l 6
 677.017578125 819 880.017578125 645 880.017578125 407 c 4
 880.017578125 306 843.017578125 206 776.017578125 130 c 5
 699.017578125 38 580.017578125 -12 462.017578125 -12 c 4
464.017578125 175 m 4
 580.017578125 175 693.017578125 271 693.017578125 404 c 4
 693.017578125 520 591.017578125 631 473.017578125 631 c 4
 472.017578125 631 471.017578125 631 470.017578125 631 c 4
 336.017578125 631 235.017578125 532 235.017578125 398 c 4
 235.017578125 283 334.017578125 175 464.017578125 175 c 4
EndSplineSet
EndUndoOperation
UndoOperation
Index: 29
Type: 1
WasModified: 1
WasOrder2: 0
Layer: 2
Width: 934
VWidth: 0
LBearingChange: 0
UnicodeEnc: 0
InstructionsLength: 0
SplineSet
462.017578125 -11 m 4
 215.017578125 -11 45.017578125 194 47.017578125 407 c 5
 47.017578125 415 l 6
 47.017578125 627 237.017578125 816 448.017578125 820 c 5
 471.017578125 820 l 6
 677.017578125 820 880.017578125 646 880.017578125 408 c 4
 880.017578125 307 843.017578125 207 776.017578125 131 c 5
 699.017578125 39 580.017578125 -11 462.017578125 -11 c 4
464.017578125 176 m 4
 580.017578125 176 693.017578125 272 693.017578125 405 c 4
 693.017578125 521 591.017578125 632 473.017578125 632 c 4
 472.017578125 632 471.017578125 632 470.017578125 632 c 4
 336.017578125 632 235.017578125 533 235.017578125 399 c 4
 235.017578125 284 334.017578125 176 464.017578125 176 c 4
EndSplineSet
EndUndoOperation
UndoOperation
Index: 30
Type: 1
WasModified: 1
WasOrder2: 0
Layer: 2
Width: 934
VWidth: 0
LBearingChange: 0
UnicodeEnc: 0
InstructionsLength: 0
SplineSet
462.017578125 -10 m 4
 215.017578125 -10 45.017578125 195 47.017578125 408 c 5
 47.017578125 416 l 6
 47.017578125 628 237.017578125 817 448.017578125 821 c 5
 471.017578125 821 l 6
 677.017578125 821 880.017578125 647 880.017578125 409 c 4
 880.017578125 308 843.017578125 208 776.017578125 132 c 5
 699.017578125 40 580.017578125 -10 462.017578125 -10 c 4
464.017578125 177 m 4
 580.017578125 177 693.017578125 273 693.017578125 406 c 4
 693.017578125 522 591.017578125 633 473.017578125 633 c 4
 472.017578125 633 471.017578125 633 470.017578125 633 c 4
 336.017578125 633 235.017578125 534 235.017578125 400 c 4
 235.017578125 285 334.017578125 177 464.017578125 177 c 4
EndSplineSet
EndUndoOperation
UndoOperation
Index: 31
Type: 1
WasModified: 1
WasOrder2: 0
Layer: 2
Width: 934
VWidth: 0
LBearingChange: 0
UnicodeEnc: 0
InstructionsLength: 0
SplineSet
462.017578125 -9 m 4
 215.017578125 -9 45.017578125 196 47.017578125 409 c 5
 47.017578125 417 l 6
 47.017578125 629 237.017578125 818 448.017578125 822 c 5
 471.017578125 822 l 6
 677.017578125 822 880.017578125 648 880.017578125 410 c 4
 880.017578125 309 843.017578125 209 776.017578125 133 c 5
 699.017578125 41 580.017578125 -9 462.017578125 -9 c 4
464.017578125 178 m 4
 580.017578125 178 693.017578125 274 693.017578125 407 c 4
 693.017578125 523 591.017578125 634 473.017578125 634 c 4
 472.017578125 634 471.017578125 634 470.017578125 634 c 4
 336.017578125 634 235.017578125 535 235.017578125 401 c 4
 235.017578125 286 334.017578125 178 464.017578125 178 c 4
EndSplineSet
EndUndoOperation
UndoOperation
Index: 32
Type: 1
WasModified: 1
WasOrder2: 0
Layer: 2
Width: 934
VWidth: 0
LBearingChange: 0
UnicodeEnc: 0
InstructionsLength: 0
SplineSet
462.017578125 -8 m 4
 215.017578125 -8 45.017578125 197 47.017578125 410 c 5
 47.017578125 418 l 6
 47.017578125 630 237.017578125 819 448.017578125 823 c 5
 471.017578125 823 l 6
 677.017578125 823 880.017578125 649 880.017578125 411 c 4
 880.017578125 310 843.017578125 210 776.017578125 134 c 5
 699.017578125 42 580.017578125 -8 462.017578125 -8 c 4
464.017578125 179 m 4
 580.017578125 179 693.017578125 275 693.017578125 408 c 4
 693.017578125 524 591.017578125 635 473.017578125 635 c 4
 472.017578125 635 471.017578125 635 470.017578125 635 c 4
 336.017578125 635 235.017578125 536 235.017578125 402 c 4
 235.017578125 287 334.017578125 179 464.017578125 179 c 4
EndSplineSet
EndUndoOperation
UndoOperation
Index: 33
Type: 7
WasModified: 1
WasOrder2: 0
Layer: 2
Width: 939
EndUndoOperation
UndoOperation
Index: 34
Type: 3
WasModified: 0
WasOrder2: 0
Layer: 2
HStem: -21 235<360.109 607.939> 590 235<360.109 607.939>
VStem: 39 247<284.281 519.719> 682 247<284.281 519.719>
EndUndoOperation
UndoOperation
Index: 35
Type: 1
WasModified: 1
WasOrder2: 0
Layer: 2
Width: 946
VWidth: 0
LBearingChange: 0
UnicodeEnc: 0
InstructionsLength: 0
SplineSet
469 -8 m 4
 222 -8 52 197 54 410 c 5
 54 418 l 6
 54 630 244 819 455 823 c 5
 478 823 l 6
 684 823 887 649 887 411 c 4
 887 310 850 210 783 134 c 5
 706 42 587 -8 469 -8 c 4
471 179 m 4
 587 179 700 275 700 408 c 4
 700 524 598 635 480 635 c 4
 479 635 478 635 477 635 c 4
 343 635 242 536 242 402 c 4
 242 287 341 179 471 179 c 4
EndSplineSet
EndUndoOperation
UndoOperation
Index: 36
Type: 1
WasModified: 1
WasOrder2: 0
Layer: 2
Width: 946
VWidth: 0
LBearingChange: 0
UnicodeEnc: 0
InstructionsLength: 0
SplineSet
469 -8 m 4
 222 -8 52 197 54 410 c 5
 54 418 l 6
 54 630 244 819 455 823 c 5
 478 823 l 6
 684 823 887 649 887 411 c 4
 887 310 850 210 783 134 c 5
 706 42 587 -8 469 -8 c 4
471 179 m 4
 587 179 700 275 700 408 c 4
 700 524 598 635 480 635 c 4
 479 635 478 635 477 635 c 4
 343 635 242 536 242 402 c 4
 242 287 341 179 471 179 c 4
EndSplineSet
EndUndoOperation
UndoOperation
Index: 37
Type: 1
WasModified: 0
WasOrder2: 0
Layer: 2
Width: 946
VWidth: 0
LBearingChange: 0
UnicodeEnc: 0
InstructionsLength: 0
SplineSet
469.0234375 -8 m 4
 222.30859375 -8 51.6796875 196.75390625 54.0234375 410 c 5
 54.0234375 418 l 6
 54.0234375 630 244.0234375 819 455.0234375 823 c 5
 478.0234375 823 l 6
 684.057617188 823 887.0234375 649.208984375 887.0234375 411 c 4
 887.0234375 310 850.0234375 210 783.0234375 134 c 5
 706.0234375 42 587.0234375 -8 469.0234375 -8 c 4
471.0234375 179 m 4
 587.140625 179 700.0234375 275.35546875 700.0234375 408 c 4
 700.0234375 524 598.0234375 635 480.0234375 635 c 4
 479.0234375 635 478.0234375 635 477.0234375 635 c 4
 342.741210938 635 242.0234375 536.201171875 242.0234375 402 c 4
 242.0234375 286.767578125 340.607421875 179 471.0234375 179 c 4
EndSplineSet
EndUndoOperation
UndoOperation
Index: 38
Type: 7
WasModified: 1
WasOrder2: 0
Layer: 2
Width: 984
EndUndoOperation
EndUndoes
Redoes
EndRedoes
EndUndoRedoHistory
Fore
SplineSet
462.017578125 -35 m 4
 215.017578125 -35 45.017578125 170 47.017578125 383 c 5
 47.017578125 391 l 6
 47.017578125 603 237.017578125 792 448.017578125 796 c 5
 471.017578125 796 l 6
 677.017578125 796 880.017578125 622 880.017578125 384 c 4
 880.017578125 283 843.017578125 183 776.017578125 107 c 5
 699.017578125 15 580.017578125 -35 462.017578125 -35 c 4
464.017578125 152 m 4
 580.017578125 152 693.017578125 248 693.017578125 381 c 4
 693.017578125 497 591.017578125 608 473.017578125 608 c 4
 472.017578125 608 471.017578125 608 470.017578125 608 c 4
 336.017578125 608 235.017578125 509 235.017578125 375 c 4
 235.017578125 260 334.017578125 152 464.017578125 152 c 4
EndSplineSet
EndChar

StartChar: u
Encoding: 117 117 31
Width: 898
VWidth: 0
Flags: HW
LayerCount: 2
UndoRedoHistory
Layer: 1
Undoes
UndoOperation
Index: 0
Type: 3
WasModified: 0
WasOrder2: 0
Layer: 2
EndUndoOperation
UndoOperation
Index: 1
Type: 1
WasModified: 1
WasOrder2: 0
Layer: 2
Width: 902
VWidth: 0
LBearingChange: 0
UnicodeEnc: 0
InstructionsLength: 0
SplineSet
826 0 m 5
 638 0 l 5
 638 42 l 5
 581 12 511 -13 448 -14 c 5
 441 -14 l 2
 380 -14 320 -1 264 26 c 4
 148 81 64 154 62 335 c 5
 62 335 63 522 63 649 c 0
 63 712 63 761 62 763 c 5
 250 763 l 5
 250 375 l 2
 250 327 253 274 283 238 c 4
 314 200 375 172 441 172 c 0
 517 172 586 211 616 257 c 4
 637 290 638 329 638 371 c 0
 638 502 638 632 638 763 c 5
 826 763 l 5
 826 0 l 5
EndSplineSet
EndUndoOperation
UndoOperation
Index: 2
Type: 1
WasModified: 1
WasOrder2: 0
Layer: 2
Width: 902
VWidth: 0
LBearingChange: 0
UnicodeEnc: 0
InstructionsLength: 0
SplineSet
826 0 m 5
 638 0 l 5
 638 42 l 5
 581 12 511 -13 448 -14 c 5
 441 -14 l 2
 380 -14 320 -1 264 26 c 4
 148 81 64 154 62 335 c 5
 62 335 63 522 63 649 c 0
 63 712 63 761 62 763 c 5
 250 763 l 5
 250 375 l 2
 250 327 253 274 283 238 c 4
 314 200 375 172 441 172 c 0
 517 172 586 211 616 257 c 4
 637 290 638 329 638 371 c 0
 638 502 638 632 638 763 c 5
 826 763 l 5
 826 0 l 5
EndSplineSet
EndUndoOperation
UndoOperation
Index: 3
Type: 1
WasModified: 0
WasOrder2: 0
Layer: 2
Width: 902
VWidth: 0
LBearingChange: 0
UnicodeEnc: 0
InstructionsLength: 0
SplineSet
826 0 m 5
 638 0 l 5
 638 42 l 5
 581 12 511 -13 448 -14 c 5
 441 -14 l 2
 380 -14 320 -1 264 26 c 4
 148 81 64 154 62 335 c 5
 62 335 63 522 63 649 c 0
 63 712 63 761 62 763 c 5
 250 763 l 5
 250 375 l 2
 250 327 253 274 283 238 c 4
 314.262695312 200.485351562 374.959960938 172 441 172 c 0
 517.15625 172 586.28515625 211.4375 616 257 c 4
 637 290 638 329 638 371 c 0
 638 501.666992188 638 632.333007812 638 763 c 5
 826 763 l 5
 826 0 l 5
EndSplineSet
EndUndoOperation
UndoOperation
Index: 4
Type: 7
WasModified: 1
WasOrder2: 0
Layer: 2
Width: 960
EndUndoOperation
EndUndoes
Redoes
EndRedoes
EndUndoRedoHistory
Fore
SplineSet
822 0 m 5
 634 0 l 5
 634 42 l 5
 577 12 507 -13 444 -14 c 5
 437 -14 l 2
 376 -14 316 -1 260 26 c 4
 144 81 60 154 58 335 c 5
 58 335 59 522 59 649 c 0
 59 712 59 761 58 763 c 5
 246 763 l 5
 246 375 l 2
 246 327 249 274 279 238 c 4
 310 200 371 172 437 172 c 0
 513 172 582 211 612 257 c 4
 633 290 634 329 634 371 c 2
 634 763 l 5
 822 763 l 5
 822 0 l 5
EndSplineSet
EndChar

StartChar: y
Encoding: 121 121 35
Width: 946
VWidth: 0
Flags: HW
HStem: 808 20G<55 327.906 754.189 1032>
LayerCount: 2
UndoRedoHistory
Layer: 1
Undoes
UndoOperation
Index: 0
Type: 1
WasModified: 1
WasOrder2: 0
Layer: 2
Width: 946
VWidth: 0
LBearingChange: 0
UnicodeEnc: 0
InstructionsLength: 0
SplineSet
378 8 m 1
 378 8 61 747 56 758 c 1
 256 758 l 1
 481 232 l 1
 481 232 706 800 709 811 c 5
 915 811 l 5
 915 811 569 -28 397 -448 c 1
 191 -448 l 1
 378 8 l 1
EndSplineSet
EndUndoOperation
UndoOperation
Index: 1
Type: 1
WasModified: 0
WasOrder2: 0
Layer: 2
Width: 946
VWidth: 0
LBearingChange: 0
UnicodeEnc: 0
InstructionsLength: 0
SplineSet
378 8 m 1
 378 8 31 800 26 811 c 5
 226 811 l 5
 481 232 l 1
 481 232 706 800 709 811 c 1
 915 811 l 1
 915 811 569 -28 397 -448 c 1
 191 -448 l 1
 378 8 l 1
EndSplineSet
EndUndoOperation
UndoOperation
Index: 2
Type: 7
WasModified: 1
WasOrder2: 0
Layer: 2
Width: 957
EndUndoOperation
UndoOperation
Index: 3
Type: 3
WasModified: 0
WasOrder2: 0
Layer: 2
HStem: 808 20G<66 338.906 765.189 1043>
EndUndoOperation
UndoOperation
Index: 4
Type: 1
WasModified: 1
WasOrder2: 0
Layer: 2
Width: 968
VWidth: 0
LBearingChange: 0
UnicodeEnc: 0
InstructionsLength: 0
SplineSet
389 8 m 5
 389 8 42 800 37 811 c 5
 237 811 l 5
 492 232 l 5
 492 232 717 800 720 811 c 5
 926 811 l 5
 926 811 580 -28 408 -448 c 5
 202 -448 l 5
 389 8 l 5
EndSplineSet
EndUndoOperation
UndoOperation
Index: 5
Type: 1
WasModified: 1
WasOrder2: 0
Layer: 2
Width: 968
VWidth: 0
LBearingChange: 0
UnicodeEnc: 0
InstructionsLength: 0
SplineSet
389 8 m 5
 389 8 42 800 37 811 c 5
 237 811 l 5
 492 232 l 5
 492 232 717 800 720 811 c 5
 926 811 l 5
 926 811 580 -28 408 -448 c 5
 202 -448 l 5
 389 8 l 5
EndSplineSet
EndUndoOperation
UndoOperation
Index: 6
Type: 1
WasModified: 0
WasOrder2: 0
Layer: 2
Width: 968
VWidth: 0
LBearingChange: 0
UnicodeEnc: 0
InstructionsLength: 0
SplineSet
389 8 m 5
 389 8 42 800 37 811 c 5
 237 811 l 5
 492 232 l 5
 492 232 717 800 720 811 c 5
 926 811 l 5
 926 811 580 -28 408 -448 c 5
 202 -448 l 5
 389 8 l 5
EndSplineSet
EndUndoOperation
UndoOperation
Index: 7
Type: 7
WasModified: 1
WasOrder2: 0
Layer: 2
Width: 1078
EndUndoOperation
EndUndoes
Redoes
EndRedoes
EndUndoRedoHistory
Fore
SplineSet
378 8 m 1
 378 8 61 747 56 758 c 1
 256 758 l 1
 481 232 l 1
 481 232 683 747 686 758 c 1
 892 758 l 1
 892 758 569 -28 397 -448 c 1
 191 -448 l 1
 378 8 l 1
EndSplineSet
EndChar

StartChar: at
Encoding: 64 64 60
Width: 1304
VWidth: 0
Flags: HW
LayerCount: 2
UndoRedoHistory
Layer: 1
Undoes
UndoOperation
Index: 0
Type: 1
WasModified: 1
WasOrder2: 0
Layer: 2
Width: 1304
VWidth: 0
LBearingChange: 0
UnicodeEnc: 0
InstructionsLength: 0
SplineSet
1045 643 m 2
 1045 828 879 1022 650 1022 c 0
 527 1022 407 964 331 860 c 4
 280 790 255 709 255 627 c 0
 255 536 286 445 349 371 c 4
 426 280 537 231 650 231 c 0
 711 231 772 245 829 274 c 5
 910 114 l 5
 828 72 739 52 651 52 c 0
 486 52 323 122 211 254 c 4
 120 361 75 494 75 627 c 0
 75 746 112 866 186 967 c 4
 294 1114 462 1198 636 1202 c 4
 641 1202 646 1202 651 1202 c 4
 725 1202 801 1187 873 1157 c 4
 1090 1066 1229 870 1229 645 c 0
 1229 615 1227 585 1222 555 c 4
 1195 419 1076 281 920 280 c 5
 919 280 l 2
 830 280 777 344 755 425 c 4
 753 425 751 424 750 424 c 4
 749 423 745 415 745 412 c 4
 705 408 662 402 619 402 c 0
 531 402 436 427 436 521 c 0
 436 614 519 668 590 688 c 4
 626 698 663 702 704 702 c 0
 712 702 720 701 729 701 c 5
 713 732 688 742 644 742 c 0
 612 742 580 734 562 706 c 5
 457 723 l 5
 474 804 550 845 642 845 c 4
 712 845 782 826 820 784 c 4
 857 742 866 676 866 615 c 0
 866 608 865 601 865 594 c 6
 865 594 866 572 866 549 c 0
 866 537 865 525 865 515 c 4
 865 503 866 487 868 470 c 5
 886 443 905 431 924 431 c 0
 984 431 1043 539 1045 636 c 5
 1045 643 l 2
729 602 m 5
 668 598 567 599 567 530 c 0
 567 498 594 492 620 492 c 0
 633 492 647 494 660 494 c 0
 690 494 729 505 729 505 c 5
 729 602 l 5
EndSplineSet
EndUndoOperation
UndoOperation
Index: 1
Type: 1
WasModified: 1
WasOrder2: 0
Layer: 2
Width: 1304
VWidth: 0
LBearingChange: 0
UnicodeEnc: 0
InstructionsLength: 0
SplineSet
1045 643 m 2
 1045 828 879 1022 650 1022 c 0
 527 1022 407 964 331 860 c 4
 280 790 255 709 255 627 c 0
 255 536 286 445 349 371 c 4
 426 280 537 231 650 231 c 0
 711 231 772 245 829 274 c 5
 910 114 l 5
 828 72 739 52 651 52 c 0
 486 52 323 122 211 254 c 4
 120 361 75 494 75 627 c 0
 75 746 112 866 186 967 c 4
 294 1114 462 1198 636 1202 c 4
 641 1202 646 1202 651 1202 c 4
 725 1202 801 1187 873 1157 c 4
 1090 1066 1229 870 1229 645 c 0
 1229 615 1227 585 1222 555 c 4
 1195 419 1076 281 920 280 c 5
 919 280 l 2
 830 280 777 344 755 425 c 4
 753 425 751 424 750 424 c 4
 749 423 745 415 745 412 c 4
 705 408 662 402 619 402 c 0
 531 402 436 427 436 521 c 0
 436 614 519 668 590 688 c 4
 626 698 663 702 704 702 c 0
 712 702 720 701 729 701 c 5
 713 732 688 742 644 742 c 0
 612 742 580 734 562 706 c 5
 457 723 l 5
 474 804 550 845 642 845 c 4
 712 845 782 826 820 784 c 4
 857 742 866 676 866 615 c 0
 866 608 865 601 865 594 c 6
 865 594 866 572 866 549 c 0
 866 537 865 525 865 515 c 4
 865 503 866 487 868 470 c 5
 886 443 905 431 924 431 c 0
 984 431 1043 539 1045 636 c 5
 1045 643 l 2
729 602 m 5
 668 598 567 599 567 530 c 0
 567 498 594 492 620 492 c 0
 633 492 647 494 660 494 c 0
 690 494 729 505 729 505 c 5
 729 602 l 5
EndSplineSet
EndUndoOperation
UndoOperation
Index: 2
Type: 1
WasModified: 0
WasOrder2: 0
Layer: 2
Width: 1304
VWidth: 0
LBearingChange: 0
UnicodeEnc: 0
InstructionsLength: 0
SplineSet
1045 643 m 2
 1045 828 879 1022 650 1022 c 0
 527 1022 407 964 331 860 c 4
 280 790 255 709 255 627 c 0
 255 536 286 445 349 371 c 4
 426 280 537 231 650 231 c 0
 711 231 772 245 829 274 c 5
 910 114 l 5
 828 72 739 52 651 52 c 0
 486 52 323 122 211 254 c 4
 120 361 75 494 75 627 c 0
 75 746 112 866 186 967 c 4
 294 1114 462 1198 636 1202 c 4
 641 1202 646 1202 651 1202 c 4
 725 1202 801 1187 873 1157 c 4
 1090 1066 1229 870 1229 645 c 0
 1229 615 1227 585 1222 555 c 4
 1195 419 1076 281 920 280 c 5
 919 280 l 2
 830 280 777 344 755 425 c 4
 753 425 751 424 750 424 c 4
 749 423 745 415 745 412 c 4
 705 408 662 402 619 402 c 0
 531 402 436 427 436 521 c 0
 436 614 519 668 590 688 c 4
 626 698 663 702 704 702 c 0
 712 702 720 701 729 701 c 5
 713 732 688 742 644 742 c 0
 612 742 580 734 562 706 c 5
 457 723 l 5
 474 804 550 845 642 845 c 4
 712 845 782 826 820 784 c 4
 857 742 866 676 866 615 c 0
 866 608 865 601 865 594 c 6
 865 594 866 572 866 549 c 0
 866 537 865 525 865 515 c 4
 865 503 866 487 868 470 c 5
 886 443 905 431 924 431 c 0
 984 431 1043 539 1045 636 c 5
 1045 643 l 2
729 602 m 5
 668 598 567 599 567 530 c 0
 567 498 594 492 620 492 c 0
 633 492 647 494 660 494 c 0
 690 494 729 505 729 505 c 5
 729 602 l 5
EndSplineSet
EndUndoOperation
UndoOperation
Index: 3
Type: 7
WasModified: 1
WasOrder2: 0
Layer: 2
Width: 1279
EndUndoOperation
EndUndoes
Redoes
EndRedoes
EndUndoRedoHistory
Fore
SplineSet
1045 643 m 2
 1045 828 879 1022 650 1022 c 0
 527 1022 407 964 331 860 c 4
 280 790 255 709 255 627 c 0
 255 536 286 445 349 371 c 4
 426 280 537 231 650 231 c 0
 711 231 772 245 829 274 c 5
 910 114 l 5
 828 72 739 52 651 52 c 0
 486 52 323 122 211 254 c 4
 120 361 75 494 75 627 c 0
 75 746 112 866 186 967 c 4
 294 1114 462 1198 636 1202 c 4
 641 1202 646 1202 651 1202 c 4
 725 1202 801 1187 873 1157 c 4
 1090 1066 1229 870 1229 645 c 0
 1229 615 1227 585 1222 555 c 4
 1195 419 1076 281 920 280 c 5
 919 280 l 2
 830 280 777 344 755 425 c 4
 753 425 751 424 750 424 c 4
 749 423 745 415 745 412 c 4
 705 408 662 402 619 402 c 0
 531 402 436 427 436 521 c 0
 436 614 519 668 590 688 c 4
 626 698 663 702 704 702 c 0
 712 702 720 701 729 701 c 5
 713 732 688 742 644 742 c 0
 612 742 580 734 562 706 c 5
 457 723 l 5
 474 804 550 845 642 845 c 4
 712 845 782 826 820 784 c 4
 857 742 866 676 866 615 c 0
 866 608 865 601 865 594 c 6
 865 594 866 572 866 549 c 0
 866 537 865 525 865 515 c 4
 865 503 866 487 868 470 c 5
 886 443 905 431 924 431 c 0
 984 431 1043 539 1045 636 c 5
 1045 643 l 2
729 602 m 5
 668 598 567 599 567 530 c 0
 567 498 594 492 620 492 c 0
 633 492 647 494 660 494 c 0
 690 494 729 505 729 505 c 5
 729 602 l 5
EndSplineSet
EndChar

StartChar: question
Encoding: 63 63 61
Width: 949
VWidth: 0
Flags: HW
LayerCount: 2
UndoRedoHistory
Layer: 1
Undoes
UndoOperation
Index: 0
Type: 1
WasModified: 1
WasOrder2: 0
Layer: 2
Width: 949
VWidth: 0
LBearingChange: 0
UnicodeEnc: 0
InstructionsLength: 0
SplineSet
679 824 m 2
 679 925 593 1027 476 1027 c 0
 380 1027 284 953 268 857 c 5
 204 860 139 864 75 867 c 5
 75 876 77 885 79 893 c 4
 110 1072 279 1215 460 1218 c 4
 463 1218 466 1218 469 1218 c 0
 707 1218 873 1026 873 821 c 4
 873 817 874 813 874 809 c 0
 874 772 857 735 833 707 c 4
 766 620 664 569 590 489 c 4
 567 463 563 430 563 397 c 0
 563 384 563 370 564 357 c 5
 533 357 477 356 434 356 c 0
 402 356 376 356 373 359 c 5
 374 371 375 382 375 394 c 0
 375 420 372 446 372 472 c 0
 372 499 375 526 386 551 c 5
 441 619 520 661 589 713 c 4
 626 740 669 768 679 816 c 5
 679 824 l 2
477 -37 m 0
 419 -37 357 8 357 78 c 0
 357 138 409 196 470 197 c 5
 475 197 l 2
 533 197 592 150 592 83 c 0
 592 25 546 -37 477 -37 c 0
EndSplineSet
EndUndoOperation
UndoOperation
Index: 1
Type: 1
WasModified: 1
WasOrder2: 0
Layer: 2
Width: 949
VWidth: 0
LBearingChange: 0
UnicodeEnc: 0
InstructionsLength: 0
SplineSet
679 824 m 2
 679 925 593 1027 476 1027 c 0
 380 1027 284 953 268 857 c 5
 204 860 139 864 75 867 c 5
 75 876 77 885 79 893 c 4
 110 1072 279 1215 460 1218 c 4
 463 1218 466 1218 469 1218 c 0
 707 1218 873 1026 873 821 c 4
 873 817 874 813 874 809 c 0
 874 772 857 735 833 707 c 4
 766 620 664 569 590 489 c 4
 567 463 563 430 563 397 c 0
 563 384 563 370 564 357 c 5
 533 357 477 356 434 356 c 0
 402 356 376 356 373 359 c 5
 374 371 375 382 375 394 c 0
 375 420 372 446 372 472 c 0
 372 499 375 526 386 551 c 5
 441 619 520 661 589 713 c 4
 626 740 669 768 679 816 c 5
 679 824 l 2
477 -37 m 0
 419 -37 357 8 357 78 c 0
 357 138 409 196 470 197 c 5
 475 197 l 2
 533 197 592 150 592 83 c 0
 592 25 546 -37 477 -37 c 0
EndSplineSet
EndUndoOperation
UndoOperation
Index: 2
Type: 1
WasModified: 0
WasOrder2: 0
Layer: 2
Width: 949
VWidth: 0
LBearingChange: 0
UnicodeEnc: 0
InstructionsLength: 0
SplineSet
679 824 m 2
 679 924.836914062 592.758789062 1027 476 1027 c 0
 380 1027 284 953 268 857 c 5
 204 860 139 864 75 867 c 5
 75 876 77 885 79 893 c 4
 110 1072 279 1215 460 1218 c 4
 463 1218 466 1218 469 1218 c 0
 706.935546875 1218 873 1026.26953125 873 821 c 4
 873 817 874 813 874 809 c 0
 874 772 857 735 833 707 c 4
 766 620 664 569 590 489 c 4
 567 463 563 430 563 397 c 0
 563 384 563 370 564 357 c 5
 533 357 477 356 434 356 c 0
 402 356 376 356 373 359 c 5
 374 371 375 382 375 394 c 0
 375 420 372 446 372 472 c 0
 372 499 375 526 386 551 c 5
 441 619 520 661 589 713 c 4
 626 740 669 768 679 816 c 5
 679 824 l 2
477 -37 m 0
 418.788085938 -37 357 8.2333984375 357 78 c 0
 357 138 409 196 470 197 c 5
 475 197 l 2
 532.758789062 197 592 150.048828125 592 83 c 0
 592 24.640625 545.657226562 -37 477 -37 c 0
EndSplineSet
EndUndoOperation
UndoOperation
Index: 3
Type: 7
WasModified: 1
WasOrder2: 0
Layer: 2
Width: 966
EndUndoOperation
EndUndoes
Redoes
EndRedoes
EndUndoRedoHistory
Fore
SplineSet
679 824 m 2
 679 925 593 1027 476 1027 c 0
 380 1027 284 953 268 857 c 5
 204 860 139 864 75 867 c 5
 75 876 77 885 79 893 c 4
 110 1072 279 1215 460 1218 c 4
 463 1218 466 1218 469 1218 c 0
 707 1218 873 1026 873 821 c 4
 873 817 874 813 874 809 c 0
 874 772 857 735 833 707 c 4
 766 620 664 569 590 489 c 4
 567 463 563 430 563 397 c 0
 563 384 563 370 564 357 c 5
 533 357 477 356 434 356 c 0
 402 356 376 356 373 359 c 5
 374 371 375 382 375 394 c 0
 375 420 372 446 372 472 c 0
 372 499 375 526 386 551 c 5
 441 619 520 661 589 713 c 4
 626 740 669 768 679 816 c 5
 679 824 l 2
477 -37 m 0
 419 -37 357 8 357 78 c 0
 357 138 409 196 470 197 c 5
 475 197 l 2
 533 197 592 150 592 83 c 0
 592 25 546 -37 477 -37 c 0
EndSplineSet
EndChar

StartChar: uni0000
Encoding: 0 0 76
Width: 1328
VWidth: 0
Flags: HW
LayerCount: 2
UndoRedoHistory
Layer: 1
Undoes
UndoOperation
Index: 0
Type: 7
WasModified: 1
WasOrder2: 0
Layer: 2
Width: 1292
EndUndoOperation
EndUndoes
Redoes
EndRedoes
EndUndoRedoHistory
Fore
SplineSet
664 1598 m 1
 1256 1006 l 1
 664 414 l 1
 72 1006 l 1
 664 1598 l 1
664 1406 m 1
 264 1006 l 1
 664 606 l 1
 1064 1006 l 1
 664 1406 l 1
524 1086 m 1
 524 1174 578 1238 660 1238 c 0
 736 1238 812 1182 812 1102 c 0
 812 1025 731 979 684 950 c 1
 684 910 l 1
 604 910 l 1
 604 999 l 1
 626 1010 l 1
 626 1010 655 1025 684 1046 c 0
 700 1059 732 1082 732 1102 c 0
 732 1137 693 1158 660 1158 c 0
 621 1158 604 1134 604 1086 c 1
 524 1086 l 1
644 862 m 0
 673 862 696 840 696 814 c 0
 696 788 673 766 644 766 c 0
 615 766 592 788 592 814 c 0
 592 840 615 862 644 862 c 0
EndSplineSet
EndChar

StartChar: asciitilde
Encoding: 126 126 78
Width: 1153
VWidth: 0
Flags: HW
HStem: 457 254<669.761 798.429> 650 254<341.282 476.793> 828 20G<847.5 900.219>
LayerCount: 2
UndoRedoHistory
Layer: 1
Undoes
UndoOperation
Index: 0
Type: 7
WasModified: 1
WasOrder2: 0
Layer: 2
Width: 1123
EndUndoOperation
EndUndoes
Redoes
EndRedoes
EndUndoRedoHistory
Fore
SplineSet
756 715 m 0x80
 788 740 825 780 870 848 c 1
 1077 711 l 1
 1023 630 973 571 919 528 c 0
 865 485 802 457 738 457 c 0xa0
 610 457 535 534 489 593 c 0
 457 634 430 650 407 650 c 0
 353 650 318 565 283 512 c 1
 76 650 l 1
 130 731 180 790 234 833 c 0
 288 876 351 904 415 904 c 0x40
 561 904 680 711 742 711 c 0
 747 711 752 712 756 715 c 0x80
EndSplineSet
EndChar

StartChar: NameMe.256
Encoding: 310 -1 80
Width: 642
VWidth: 0
Flags: HW
LayerCount: 2
UndoRedoHistory
Layer: 1
Undoes
UndoOperation
Index: 0
Type: 7
WasModified: 1
WasOrder2: 0
Layer: 2
Width: 657
EndUndoOperation
EndUndoes
Redoes
EndRedoes
EndUndoRedoHistory
Fore
SplineSet
567 1318 m 1
 344 1318 l 1
 75 1598 l 1
 351 1598 l 1
 567 1318 l 1
EndSplineSet
EndChar

StartChar: acuteX
Encoding: 311 -1 81
Width: 642
VWidth: 0
Flags: HW
LayerCount: 2
UndoRedoHistory
Layer: 1
Undoes
UndoOperation
Index: 0
Type: 7
WasModified: 1
WasOrder2: 0
Layer: 2
Width: 656
EndUndoOperation
EndUndoes
Redoes
EndRedoes
EndUndoRedoHistory
Fore
SplineSet
291 1598 m 1
 567 1598 l 1
 298 1318 l 1
 75 1318 l 1
 291 1598 l 1
EndSplineSet
EndChar

StartChar: asciicircum
Encoding: 94 94 82
Width: 915
VWidth: 0
Flags: HW
LayerCount: 2
UndoRedoHistory
Layer: 1
Undoes
UndoOperation
Index: 0
Type: 7
WasModified: 1
WasOrder2: 0
Layer: 2
Width: 936
EndUndoOperation
UndoOperation
Index: 1
Type: 3
WasModified: 0
WasOrder2: 0
Layer: 2
EndUndoOperation
UndoOperation
Index: 2
Type: 1
WasModified: 1
WasOrder2: 0
Layer: 2
Width: 957
VWidth: 0
LBearingChange: 0
UnicodeEnc: 0
InstructionsLength: 0
SplineSet
72 811 m 5
 161 989 250 1167 339 1345 c 5
 432 1345 525 1345 618 1345 c 5
 707 1167 796 989 885 811 c 5
 815 811 745 811 675 811 c 5
 609 942 544 1073 478 1204 c 5
 412 1073 348 942 282 811 c 5
 212 811 142 811 72 811 c 5
EndSplineSet
EndUndoOperation
UndoOperation
Index: 3
Type: 1
WasModified: 1
WasOrder2: 0
Layer: 2
Width: 957
VWidth: 0
LBearingChange: 0
UnicodeEnc: 0
InstructionsLength: 0
SplineSet
72 811 m 5
 161 989 250 1167 339 1345 c 5
 432 1345 525 1345 618 1345 c 5
 707 1167 796 989 885 811 c 5
 815 811 745 811 675 811 c 5
 609 942 544 1073 478 1204 c 5
 412 1073 348 942 282 811 c 5
 212 811 142 811 72 811 c 5
EndSplineSet
EndUndoOperation
UndoOperation
Index: 4
Type: 1
WasModified: 0
WasOrder2: 0
Layer: 2
Width: 957
VWidth: 0
LBearingChange: 0
UnicodeEnc: 0
InstructionsLength: 0
SplineSet
72 811 m 5
 161 989 250 1167 339 1345 c 5
 432 1345 525 1345 618 1345 c 5
 707 1167 796 989 885 811 c 5
 815 811 745 811 675 811 c 5
 609 942 544 1073 478 1204 c 5
 412 1073 348 942 282 811 c 5
 212 811 142 811 72 811 c 5
EndSplineSet
EndUndoOperation
UndoOperation
Index: 5
Type: 7
WasModified: 1
WasOrder2: 0
Layer: 2
Width: 976
EndUndoOperation
EndUndoes
Redoes
EndRedoes
EndUndoRedoHistory
Fore
SplineSet
51 811 m 5
 140 989 229 1167 318 1345 c 5
 411 1345 504 1345 597 1345 c 5
 686 1167 775 989 864 811 c 5
 794 811 724 811 654 811 c 5
 588 942 523 1073 457 1204 c 5
 391 1073 327 942 261 811 c 5
 191 811 121 811 51 811 c 5
EndSplineSet
EndChar

StartChar: threequarters
Encoding: 190 190 110
Width: 1098
VWidth: 0
Flags: HW
LayerCount: 2
UndoRedoHistory
Layer: 1
Undoes
UndoOperation
Index: 0
Type: 7
WasModified: 1
WasOrder2: 0
Layer: 2
Width: 1078
EndUndoOperation
EndUndoes
Redoes
EndRedoes
EndUndoRedoHistory
Fore
SplineSet
319 1114 m 0
 319 1152 287 1176 256 1176 c 0
 219 1176 189 1144 189 1101 c 1
 75 1101 l 1
 75 1207 155 1296 256 1296 c 0
 332 1296 389 1246 417 1190 c 0
 425 1172 429 1153 429 1133 c 0
 429 1099 418 1065 395 1035 c 0
 381 1013 376 1009 366 997 c 1
 375 986 381 981 395 959 c 0
 418 929 429 895 429 861 c 0
 429 806 400 767 369 741 c 0
 338 714 299 697 256 697 c 0
 155 697 75 787 75 893 c 1
 189 893 l 1
 189 850 219 817 256 817 c 0
 284 817 319 840 319 875 c 0
 319 919 265 973 214 973 c 0
 213 973 212 973 211 973 c 1
 211 1033 l 1
 236 1033 319 1057 319 1114 c 0
815 1271 m 1
 967 1271 l 1
 331 5 l 1
 182 5 l 1
 815 1271 l 1
911 570 m 1
 1023 570 l 1
 1023 0 l 1
 912 0 l 1
 911 156 l 1
 655 156 l 1
 655 272 l 1
 911 570 l 1
911 396 m 1
 797 268 l 1
 911 268 l 1
 911 396 l 1
EndSplineSet
EndChar

StartChar: NameMe.257
Encoding: 339 -1 121
Width: 642
VWidth: 0
Flags: HW
LayerCount: 2
UndoRedoHistory
Layer: 1
Undoes
UndoOperation
Index: 0
Type: 7
WasModified: 1
WasOrder2: 0
Layer: 2
Width: 656
EndUndoOperation
EndUndoes
Redoes
EndRedoes
EndUndoRedoHistory
Fore
SplineSet
291 1598 m 5
 567 1598 l 5
 298 1318 l 5
 75 1318 l 5
 291 1598 l 5
EndSplineSet
EndChar

StartChar: acute
Encoding: 180 180 122
Width: 642
VWidth: 0
Flags: HW
HStem: 1314 280<291 298>
VStem: 75 492
LayerCount: 2
UndoRedoHistory
Layer: 1
Undoes
UndoOperation
Index: 0
Type: 7
WasModified: 1
WasOrder2: 0
Layer: 2
Width: 657
EndUndoOperation
EndUndoes
Redoes
EndRedoes
EndUndoRedoHistory
Fore
SplineSet
291 1594 m 5
 567 1594 l 5
 298 1314 l 5
 75 1314 l 5
 291 1594 l 5
EndSplineSet
EndChar

StartChar: dotlessi
Encoding: 340 305 127
Width: 334
VWidth: 0
Flags: HW
HStem: 0 21G<33.8779 281.157> 0 21G<33.8779 281.157> 790 20G<33.8779 281.157>
VStem: 33.8779 247<0 809.963>
LayerCount: 2
UndoRedoHistory
Layer: 1
Undoes
UndoOperation
Index: 0
Type: 7
WasModified: 1
WasOrder2: 0
Layer: 2
Width: 2011
EndUndoOperation
EndUndoes
Redoes
EndRedoes
EndUndoRedoHistory
Fore
SplineSet
69 0 m 1
 69 253.849609375 69 507.698242188 69 761.547851562 c 1
 131.958984375 761.547851562 194.918945312 761.547851562 257.877929688 761.547851562 c 1
 257.877929688 507.698242188 257.877929688 253.849609375 257.877929688 0 c 1
 194.918945312 0 131.958984375 0 69 0 c 1
EndSplineSet
EndChar

StartChar: circumflex
Encoding: 136 710 131
Width: 673
VWidth: 0
Flags: HW
LayerCount: 2
UndoRedoHistory
Layer: 1
Undoes
UndoOperation
Index: 0
Type: 7
WasModified: 1
WasOrder2: 0
Layer: 2
Width: 691
EndUndoOperation
EndUndoes
Redoes
EndRedoes
EndUndoRedoHistory
Fore
SplineSet
246 1600 m 5
 427 1600 l 5
 598 1324 l 5
 438 1324 l 5
 336 1489 l 5
 234 1324 l 5
 75 1324 l 5
 246 1600 l 5
EndSplineSet
EndChar

StartChar: uni02CB
Encoding: 341 715 145
Width: 642
VWidth: 0
Flags: HW
LayerCount: 2
UndoRedoHistory
Layer: 1
Undoes
UndoOperation
Index: 0
Type: 7
WasModified: 1
WasOrder2: 0
Layer: 2
Width: 657
EndUndoOperation
EndUndoes
Redoes
EndRedoes
EndUndoRedoHistory
Fore
SplineSet
567 1318 m 1
 344 1318 l 1
 75 1598 l 1
 351 1598 l 1
 567 1318 l 1
EndSplineSet
EndChar

StartChar: dieresis
Encoding: 168 168 157
Width: 668
VWidth: 0
Flags: HW
LayerCount: 2
UndoRedoHistory
Layer: 1
Undoes
UndoOperation
Index: 0
Type: 7
WasModified: 1
WasOrder2: 0
Layer: 2
Width: 654
EndUndoOperation
EndUndoes
Redoes
EndRedoes
EndUndoRedoHistory
Fore
SplineSet
474 1293 m 4
 538 1293 591 1240 591 1176 c 4
 591 1112 538 1060 474 1060 c 4
 410 1060 357 1112 357 1176 c 4
 357 1240 410 1293 474 1293 c 4
193 1293 m 4
 257 1293 309 1240 309 1176 c 4
 309 1112 257 1060 193 1060 c 4
 129 1060 76 1112 76 1176 c 4
 76 1240 129 1293 193 1293 c 4
EndSplineSet
EndChar

StartChar: degree
Encoding: 176 176 179
Width: 446
VWidth: 0
Flags: HW
LayerCount: 2
UndoRedoHistory
Layer: 1
Undoes
UndoOperation
Index: 0
Type: 7
WasModified: 1
WasOrder2: 0
Layer: 2
Width: 429
EndUndoOperation
EndUndoes
Redoes
EndRedoes
EndUndoRedoHistory
Fore
SplineSet
223 1291 m 4
 303 1291 369 1225 369 1145 c 4
 369 1065 303 998 223 998 c 4
 143 998 76 1065 76 1145 c 4
 76 1225 143 1291 223 1291 c 4
223 1201 m 4
 191 1201 166 1177 166 1145 c 4
 166 1113 191 1088 223 1088 c 4
 255 1088 279 1113 279 1145 c 4
 279 1177 255 1201 223 1201 c 4
EndSplineSet
EndChar

StartChar: caron
Encoding: 365 711 207
Width: 673
VWidth: 0
Flags: HW
LayerCount: 2
UndoRedoHistory
Layer: 1
Undoes
UndoOperation
Index: 0
Type: 7
WasModified: 1
WasOrder2: 0
Layer: 2
Width: 626
EndUndoOperation
EndUndoes
Redoes
EndRedoes
EndUndoRedoHistory
Fore
SplineSet
246 1318 m 5
 75 1594 l 5
 234 1594 l 5
 336 1429 l 5
 438 1594 l 5
 598 1594 l 5
 427 1318 l 5
 246 1318 l 5
EndSplineSet
EndChar

StartChar: J
Encoding: 74 74 208
Width: 831
VWidth: 0
Flags: HW
LayerCount: 2
UndoRedoHistory
Layer: 1
Undoes
UndoOperation
Index: 0
Type: 7
WasModified: 1
WasOrder2: 0
Layer: 2
Width: 833
EndUndoOperation
UndoOperation
Index: 1
Type: 3
WasModified: 0
WasOrder2: 0
Layer: 2
EndUndoOperation
UndoOperation
Index: 2
Type: 1
WasModified: 1
WasOrder2: 0
Layer: 2
Width: 841
VWidth: 0
LBearingChange: 0
UnicodeEnc: 0
InstructionsLength: 0
SplineSet
583 370 m 6
 583 1208 l 5
 767 1208 l 5
 767 428 l 2
 767 343 758 255 717 179 c 4
 656 65 529 -7 401 -7 c 0
 378 -7 355 -5 332 0 c 4
 175 32 53 180 43 338 c 5
 228 338 l 5
 238 250 318 176 406 176 c 2
 413 176 l 5
 509 181 583 275 583 370 c 6
EndSplineSet
EndUndoOperation
UndoOperation
Index: 3
Type: 1
WasModified: 1
WasOrder2: 0
Layer: 2
Width: 841
VWidth: 0
LBearingChange: 0
UnicodeEnc: 0
InstructionsLength: 0
SplineSet
583 370 m 6
 583 1208 l 5
 767 1208 l 5
 767 428 l 2
 767 343 758 255 717 179 c 4
 656 65 529 -7 401 -7 c 0
 378 -7 355 -5 332 0 c 4
 175 32 53 180 43 338 c 5
 228 338 l 5
 238 250 318 176 406 176 c 2
 413 176 l 5
 509 181 583 275 583 370 c 6
EndSplineSet
EndUndoOperation
UndoOperation
Index: 4
Type: 1
WasModified: 0
WasOrder2: 0
Layer: 2
Width: 841
VWidth: 0
LBearingChange: 0
UnicodeEnc: 0
InstructionsLength: 0
SplineSet
583 370 m 6
 583 1208 l 5
 767 1208 l 5
 767 428 l 2
 767 343 758 255 717 179 c 4
 656 65 529 -7 401 -7 c 0
 378 -7 355 -5 332 0 c 4
 175 32 53 180 43 338 c 5
 228 338 l 5
 238 250 318 176 406 176 c 2
 413 176 l 5
 509 181 583 275 583 370 c 6
EndSplineSet
EndUndoOperation
UndoOperation
Index: 5
Type: 7
WasModified: 1
WasOrder2: 0
Layer: 2
Width: 1558
EndUndoOperation
EndUndoes
Redoes
EndRedoes
EndUndoRedoHistory
Fore
SplineSet
575 370 m 6
 575 1208 l 5
 759 1208 l 5
 759 428 l 2
 759 343 750 255 709 179 c 4
 648 65 521 -7 393 -7 c 0
 370 -7 347 -5 324 0 c 4
 167 32 45 180 35 338 c 5
 220 338 l 5
 230 250 310 176 398 176 c 2
 405 176 l 5
 501 181 575 275 575 370 c 6
EndSplineSet
EndChar

StartChar: K
Encoding: 75 75 209
Width: 947
VWidth: 0
Flags: HW
LayerCount: 2
UndoRedoHistory
Layer: 1
Undoes
UndoOperation
Index: 0
Type: 7
WasModified: 1
WasOrder2: 0
Layer: 2
Width: 957
EndUndoOperation
UndoOperation
Index: 1
Type: 3
WasModified: 0
WasOrder2: 0
Layer: 2
EndUndoOperation
UndoOperation
Index: 2
Type: 1
WasModified: 1
WasOrder2: 0
Layer: 2
Width: 958
VWidth: 0
LBearingChange: 0
UnicodeEnc: 0
InstructionsLength: 0
SplineSet
621 1198 m 5
 856 1198 l 5
 469 746 l 5
 922 0 l 5
 712 0 l 5
 347 602 l 5
 252 490 l 5
 252 0 l 5
 72 0 l 5
 72 1198 l 5
 252 1198 l 5
 252 768 l 5
 621 1198 l 5
EndSplineSet
EndUndoOperation
UndoOperation
Index: 3
Type: 1
WasModified: 1
WasOrder2: 0
Layer: 2
Width: 958
VWidth: 0
LBearingChange: 0
UnicodeEnc: 0
InstructionsLength: 0
SplineSet
621 1198 m 5
 856 1198 l 5
 469 746 l 5
 922 0 l 5
 712 0 l 5
 347 602 l 5
 252 490 l 5
 252 0 l 5
 72 0 l 5
 72 1198 l 5
 252 1198 l 5
 252 768 l 5
 621 1198 l 5
EndSplineSet
EndUndoOperation
UndoOperation
Index: 4
Type: 1
WasModified: 0
WasOrder2: 0
Layer: 2
Width: 958
VWidth: 0
LBearingChange: 0
UnicodeEnc: 0
InstructionsLength: 0
SplineSet
621 1198 m 5
 856 1198 l 5
 469 746 l 5
 922 0 l 5
 712 0 l 5
 347 602 l 5
 252 490 l 5
 252 0 l 5
 72 0 l 5
 72 1198 l 5
 252 1198 l 5
 252 768 l 5
 621 1198 l 5
EndSplineSet
EndUndoOperation
UndoOperation
Index: 5
Type: 7
WasModified: 1
WasOrder2: 0
Layer: 2
Width: 2044
EndUndoOperation
EndUndoes
Redoes
EndRedoes
EndUndoRedoHistory
Fore
SplineSet
620 1198 m 5
 855 1198 l 5
 468 746 l 5
 921 0 l 5
 711 0 l 5
 346 602 l 5
 251 490 l 5
 251 0 l 5
 71 0 l 5
 71 1198 l 5
 251 1198 l 5
 251 768 l 5
 620 1198 l 5
EndSplineSet
EndChar

StartChar: L
Encoding: 76 76 210
Width: 772
VWidth: 0
Flags: HW
LayerCount: 2
UndoRedoHistory
Layer: 1
Undoes
UndoOperation
Index: 0
Type: 7
WasModified: 0
WasOrder2: 0
Layer: 2
Width: 779
EndUndoOperation
UndoOperation
Index: 1
Type: 1
WasModified: 1
WasOrder2: 0
Layer: 2
Width: 779
VWidth: 0
LBearingChange: 0
UnicodeEnc: 0
InstructionsLength: 0
SplineSet
72 0 m 5
 72 1205 l 5
 259 1205 l 5
 259 187 l 5
 413 187 567 187 721 187 c 5
 721 0 l 5
 72 0 l 5
EndSplineSet
EndUndoOperation
UndoOperation
Index: 2
Type: 1
WasModified: 1
WasOrder2: 0
Layer: 2
Width: 779
VWidth: 0
LBearingChange: 0
UnicodeEnc: 0
InstructionsLength: 0
SplineSet
72 0 m 5
 72 1205 l 5
 259 1205 l 5
 259 187 l 5
 413 187 567 187 721 187 c 5
 721 0 l 5
 72 0 l 5
EndSplineSet
EndUndoOperation
UndoOperation
Index: 3
Type: 1
WasModified: 0
WasOrder2: 0
Layer: 2
Width: 779
VWidth: 0
LBearingChange: 0
UnicodeEnc: 0
InstructionsLength: 0
SplineSet
72 0 m 5
 72 1205 l 5
 259 1205 l 5
 259 187 l 5
 413 187 567 187 721 187 c 5
 721 0 l 5
 72 0 l 5
EndSplineSet
EndUndoOperation
UndoOperation
Index: 4
Type: 7
WasModified: 1
WasOrder2: 0
Layer: 2
Width: 2103
EndUndoOperation
EndUndoes
Redoes
EndRedoes
EndUndoRedoHistory
Fore
SplineSet
72 0 m 5
 72 1205 l 5
 259 1205 l 5
 259 187 l 5
 413 187 567 187 721 187 c 5
 721 0 l 5
 72 0 l 5
EndSplineSet
EndChar

StartChar: M
Encoding: 77 77 211
Width: 1173
VWidth: 0
Flags: HW
LayerCount: 2
UndoRedoHistory
Layer: 1
Undoes
UndoOperation
Index: 0
Type: 1
WasModified: 1
WasOrder2: 0
Layer: 2
Width: 1173
VWidth: 0
LBearingChange: 0
UnicodeEnc: 0
InstructionsLength: 0
SplineSet
72 0 m 1
 72 1205 l 1
 273 1205 l 1
 587 722 l 1
 897 1205 l 1
 1095 1205 l 1
 1095 0 l 1
 913 0 l 1
 913 912 l 1
 587 409 l 1
 257 912 l 1
 257 0 l 1
 72 0 l 1
EndSplineSet
EndUndoOperation
UndoOperation
Index: 1
Type: 1
WasModified: 1
WasOrder2: 0
Layer: 2
Width: 1173
VWidth: 0
LBearingChange: 0
UnicodeEnc: 0
InstructionsLength: 0
SplineSet
72 0 m 1
 72 1205 l 1
 273 1205 l 1
 587 722 l 1
 897 1205 l 1
 1095 1205 l 1
 1095 0 l 1
 913 0 l 1
 913 912 l 1
 587 409 l 1
 257 912 l 1
 257 0 l 1
 72 0 l 1
EndSplineSet
EndUndoOperation
UndoOperation
Index: 2
Type: 1
WasModified: 0
WasOrder2: 0
Layer: 2
Width: 1173
VWidth: 0
LBearingChange: 0
UnicodeEnc: 0
InstructionsLength: 0
SplineSet
72 0 m 1
 72 1205 l 1
 273 1205 l 1
 587 722 l 1
 897 1205 l 1
 1095 1205 l 1
 1095 0 l 1
 913 0 l 1
 913 912 l 1
 587 409 l 1
 257 912 l 1
 257 0 l 1
 72 0 l 1
EndSplineSet
EndUndoOperation
UndoOperation
Index: 3
Type: 7
WasModified: 1
WasOrder2: 0
Layer: 2
Width: 2077
EndUndoOperation
EndUndoes
Redoes
EndRedoes
EndUndoRedoHistory
Fore
SplineSet
72 0 m 1
 72 1205 l 1
 273 1205 l 1
 587 722 l 1
 897 1205 l 1
 1095 1205 l 1
 1095 0 l 1
 913 0 l 1
 913 912 l 1
 587 409 l 1
 257 912 l 1
 257 0 l 1
 72 0 l 1
EndSplineSet
EndChar

StartChar: P
Encoding: 80 80 212
Width: 903
VWidth: 0
Flags: HW
LayerCount: 2
UndoRedoHistory
Layer: 1
Undoes
UndoOperation
Index: 0
Type: 7
WasModified: 0
WasOrder2: 0
Layer: 2
Width: 910
EndUndoOperation
UndoOperation
Index: 1
Type: 1
WasModified: 1
WasOrder2: 0
Layer: 2
Width: 910
VWidth: 0
LBearingChange: 0
UnicodeEnc: 0
InstructionsLength: 0
SplineSet
72 1205 m 5
 481 1205 l 6
 701 1205 857 1037 857 835 c 4
 857 686 753 542 611 493 c 4
 554 475 495 471 436 471 c 4
 398 471 361 473 323 473 c 4
 302 473 280 472 259 471 c 5
 259 0 l 5
 72 0 l 5
 72 1205 l 5
495 1018 m 4
 433 1018 400 1017 370 1017 c 4
 340 1017 311 1018 259 1018 c 5
 259 658 l 5
 270 658 328 656 389 656 c 4
 440 656 493 657 523 662 c 4
 606 673 668 753 669 835 c 5
 669 843 l 6
 669 935 587 1017 495 1018 c 4
EndSplineSet
EndUndoOperation
UndoOperation
Index: 2
Type: 1
WasModified: 1
WasOrder2: 0
Layer: 2
Width: 910
VWidth: 0
LBearingChange: 0
UnicodeEnc: 0
InstructionsLength: 0
SplineSet
72 1205 m 5
 481 1205 l 6
 701 1205 857 1037 857 835 c 4
 857 686 753 542 611 493 c 4
 554 475 495 471 436 471 c 4
 398 471 361 473 323 473 c 4
 302 473 280 472 259 471 c 5
 259 0 l 5
 72 0 l 5
 72 1205 l 5
495 1018 m 4
 433 1018 400 1017 370 1017 c 4
 340 1017 311 1018 259 1018 c 5
 259 658 l 5
 270 658 328 656 389 656 c 4
 440 656 493 657 523 662 c 4
 606 673 668 753 669 835 c 5
 669 843 l 6
 669 935 587 1017 495 1018 c 4
EndSplineSet
EndUndoOperation
UndoOperation
Index: 3
Type: 1
WasModified: 0
WasOrder2: 0
Layer: 2
Width: 910
VWidth: 0
LBearingChange: 0
UnicodeEnc: 0
InstructionsLength: 0
SplineSet
72 1205 m 5
 481 1205 l 6
 700.912109375 1205 857 1036.79199219 857 835 c 4
 857 686 753 542 611 493 c 4
 554 475 495 471 436 471 c 4
 398 471 361 473 323 473 c 4
 302 473 280 472 259 471 c 5
 259 0 l 5
 72 0 l 5
 72 1205 l 5
495 1018 m 4
 433 1018 400 1017 370 1017 c 4
 340 1017 311 1018 259 1018 c 5
 259 658 l 5
 270 658 328 656 389 656 c 4
 440 656 493 657 523 662 c 4
 606 673 668 753 669 835 c 5
 669 843 l 6
 669 935 587 1017 495 1018 c 4
EndSplineSet
EndUndoOperation
UndoOperation
Index: 4
Type: 7
WasModified: 1
WasOrder2: 0
Layer: 2
Width: 2069
EndUndoOperation
EndUndoes
Redoes
EndRedoes
EndUndoRedoHistory
Fore
SplineSet
72 1205 m 5
 481 1205 l 6
 701 1205 857 1037 857 835 c 4
 857 686 753 542 611 493 c 4
 554 475 495 471 436 471 c 4
 398 471 361 473 323 473 c 4
 302 473 280 472 259 471 c 5
 259 0 l 5
 72 0 l 5
 72 1205 l 5
495 1018 m 4
 433 1018 400 1017 370 1017 c 4
 340 1017 311 1018 259 1018 c 5
 259 658 l 5
 270 658 328 656 389 656 c 4
 440 656 493 657 523 662 c 4
 606 673 668 753 669 835 c 5
 669 843 l 6
 669 935 587 1017 495 1018 c 4
EndSplineSet
EndChar

StartChar: Q
Encoding: 81 81 213
Width: 1191
VWidth: 0
Flags: HW
LayerCount: 2
UndoRedoHistory
Layer: 1
Undoes
UndoOperation
Index: 0
Type: 7
WasModified: 1
WasOrder2: 0
Layer: 2
Width: 1197
EndUndoOperation
UndoOperation
Index: 1
Type: 3
WasModified: 0
WasOrder2: 0
Layer: 2
EndUndoOperation
UndoOperation
Index: 2
Type: 1
WasModified: 1
WasOrder2: 0
Layer: 2
Width: 1203
VWidth: 0
LBearingChange: 0
UnicodeEnc: 0
InstructionsLength: 0
SplineSet
592 1265 m 5
 600 1265 l 6
 938 1265 1143 934 1143 631 c 4
 1143 435 1060 238 909 112 c 5
 962 6 1015 -100 1068 -206 c 5
 856 -206 l 5
 745 20 l 5
 699 12 644 0 596 0 c 6
 591 0 l 6
 435 0 288 84 194 206 c 4
 99 327 52 480 52 633 c 4
 52 770 90 906 166 1020 c 5
 257 1164 420 1264 592 1265 c 5
956 632 m 4
 956 855 810 1078 595 1078 c 6
 593 1078 l 6
 554 1078 516 1069 481 1054 c 4
 375 1008 300 908 265 801 c 4
 247 747 238 689 238 632 c 4
 238 416 380 188 595 186 c 5
 600 186 l 6
 817 186 956 421 956 632 c 4
EndSplineSet
EndUndoOperation
UndoOperation
Index: 3
Type: 1
WasModified: 1
WasOrder2: 0
Layer: 2
Width: 1203
VWidth: 0
LBearingChange: 0
UnicodeEnc: 0
InstructionsLength: 0
SplineSet
592 1265 m 5
 600 1265 l 6
 938 1265 1143 934 1143 631 c 4
 1143 435 1060 238 909 112 c 5
 962 6 1015 -100 1068 -206 c 5
 856 -206 l 5
 745 20 l 5
 699 12 644 0 596 0 c 6
 591 0 l 6
 435 0 288 84 194 206 c 4
 99 327 52 480 52 633 c 4
 52 770 90 906 166 1020 c 5
 257 1164 420 1264 592 1265 c 5
956 632 m 4
 956 855 810 1078 595 1078 c 6
 593 1078 l 6
 554 1078 516 1069 481 1054 c 4
 375 1008 300 908 265 801 c 4
 247 747 238 689 238 632 c 4
 238 416 380 188 595 186 c 5
 600 186 l 6
 817 186 956 421 956 632 c 4
EndSplineSet
EndUndoOperation
UndoOperation
Index: 4
Type: 1
WasModified: 0
WasOrder2: 0
Layer: 2
Width: 1203
VWidth: 0
LBearingChange: 0
UnicodeEnc: 0
InstructionsLength: 0
SplineSet
592 1265 m 5
 600 1265 l 6
 938.32421875 1265 1143 934.258789062 1143 631 c 4
 1143 435 1060 238 909 112 c 5
 962 6 1015 -100 1068 -206 c 5
 856 -206 l 5
 745 20 l 5
 699 12 644 0 596 0 c 6
 591 0 l 6
 435 0 288 84 194 206 c 4
 99 327 52 480 52 633 c 4
 52 770 90 906 166 1020 c 5
 257 1164 420 1264 592 1265 c 5
956 632 m 4
 956 855.198242188 810.31640625 1078 595 1078 c 6
 593 1078 l 6
 554 1078 516 1069 481 1054 c 4
 375 1008 300 908 265 801 c 4
 247 747 238 689 238 632 c 4
 238 415.688476562 379.506835938 188.052734375 595 186 c 5
 600 186 l 6
 816.5859375 186 956 420.75390625 956 632 c 4
EndSplineSet
EndUndoOperation
UndoOperation
Index: 5
Type: 7
WasModified: 1
WasOrder2: 0
Layer: 2
Width: 2037
EndUndoOperation
EndUndoes
Redoes
EndRedoes
EndUndoRedoHistory
Fore
SplineSet
586 1265 m 5
 594 1265 l 6
 932 1265 1137 934 1137 631 c 4
 1137 435 1054 238 903 112 c 5
 956 6 1009 -100 1062 -206 c 5
 850 -206 l 5
 739 20 l 5
 693 12 638 0 590 0 c 6
 585 0 l 6
 429 0 282 84 188 206 c 4
 93 327 46 480 46 633 c 4
 46 770 84 906 160 1020 c 5
 251 1164 414 1264 586 1265 c 5
950 632 m 4
 950 855 804 1078 589 1078 c 6
 587 1078 l 6
 548 1078 510 1069 475 1054 c 4
 369 1008 294 908 259 801 c 4
 241 747 232 689 232 632 c 4
 232 416 374 188 589 186 c 5
 594 186 l 6
 811 186 950 421 950 632 c 4
EndSplineSet
EndChar

StartChar: R
Encoding: 82 82 214
Width: 949
VWidth: 0
Flags: HW
LayerCount: 2
UndoRedoHistory
Layer: 1
Undoes
UndoOperation
Index: 0
Type: 7
WasModified: 0
WasOrder2: 0
Layer: 2
Width: 959
EndUndoOperation
UndoOperation
Index: 1
Type: 1
WasModified: 1
WasOrder2: 0
Layer: 2
Width: 959
VWidth: 0
LBearingChange: 0
UnicodeEnc: 0
InstructionsLength: 0
SplineSet
450 1202 m 6
 471 1202 491 1202 512 1201 c 4
 667 1192 806 1072 843 922 c 4
 850 895 853 868 853 840 c 4
 853 697 764 555 630 501 c 5
 728 335 825 170 923 4 c 5
 709 4 l 5
 616 160 524 315 431 471 c 5
 256 471 l 5
 256 0 l 5
 72 0 l 5
 72 1202 l 5
 450 1202 l 6
494 1018 m 6
 256 1018 l 5
 256 656 l 5
 318 656 l 5
 318 656 364 654 416 654 c 4
 453 654 493 655 521 659 c 4
 604 670 667 749 669 831 c 5
 669 842 l 6
 669 934 587 1018 494 1018 c 6
EndSplineSet
EndUndoOperation
UndoOperation
Index: 2
Type: 1
WasModified: 1
WasOrder2: 0
Layer: 2
Width: 959
VWidth: 0
LBearingChange: 0
UnicodeEnc: 0
InstructionsLength: 0
SplineSet
450 1202 m 6
 471 1202 491 1202 512 1201 c 4
 667 1192 806 1072 843 922 c 4
 850 895 853 868 853 840 c 4
 853 697 764 555 630 501 c 5
 728 335 825 170 923 4 c 5
 709 4 l 5
 616 160 524 315 431 471 c 5
 256 471 l 5
 256 0 l 5
 72 0 l 5
 72 1202 l 5
 450 1202 l 6
494 1018 m 6
 256 1018 l 5
 256 656 l 5
 318 656 l 5
 318 656 364 654 416 654 c 4
 453 654 493 655 521 659 c 4
 604 670 667 749 669 831 c 5
 669 842 l 6
 669 934 587 1018 494 1018 c 6
EndSplineSet
EndUndoOperation
UndoOperation
Index: 3
Type: 1
WasModified: 0
WasOrder2: 0
Layer: 2
Width: 959
VWidth: 0
LBearingChange: 0
UnicodeEnc: 0
InstructionsLength: 0
SplineSet
450 1202 m 6
 471 1202 491 1202 512 1201 c 4
 667 1192 806 1072 843 922 c 4
 850 895 853 868 853 840 c 4
 853 697 764 555 630 501 c 5
 728 335 825 170 923 4 c 5
 709 4 l 5
 616 160 524 315 431 471 c 5
 256 471 l 5
 256 0 l 5
 72 0 l 5
 72 1202 l 5
 450 1202 l 6
494 1018 m 6
 256 1018 l 5
 256 656 l 5
 318 656 l 5
 318 656 364 654 416 654 c 4
 453 654 493 655 521 659 c 4
 604 670 667 749 669 831 c 5
 669 842 l 6
 669 934 587 1018 494 1018 c 6
EndSplineSet
EndUndoOperation
UndoOperation
Index: 4
Type: 7
WasModified: 1
WasOrder2: 0
Layer: 2
Width: 2039
EndUndoOperation
EndUndoes
Redoes
EndRedoes
EndUndoRedoHistory
Fore
SplineSet
450 1202 m 6
 471 1202 491 1202 512 1201 c 4
 667 1192 806 1072 843 922 c 4
 850 895 853 868 853 840 c 4
 853 697 764 555 630 501 c 5
 728 335 825 170 923 4 c 5
 709 4 l 5
 616 160 524 315 431 471 c 5
 256 471 l 5
 256 0 l 5
 72 0 l 5
 72 1202 l 5
 450 1202 l 6
494 1018 m 6
 256 1018 l 5
 256 656 l 5
 318 656 l 5
 318 656 364 654 416 654 c 4
 453 654 493 655 521 659 c 4
 604 670 667 749 669 831 c 5
 669 842 l 6
 669 934 587 1018 494 1018 c 6
EndSplineSet
EndChar

StartChar: T
Encoding: 84 84 215
Width: 940
VWidth: 0
Flags: HW
LayerCount: 2
UndoRedoHistory
Layer: 1
Undoes
UndoOperation
Index: 0
Type: 7
WasModified: 1
WasOrder2: 0
Layer: 2
Width: 948
EndUndoOperation
UndoOperation
Index: 1
Type: 3
WasModified: 0
WasOrder2: 0
Layer: 2
EndUndoOperation
UndoOperation
Index: 2
Type: 1
WasModified: 1
WasOrder2: 0
Layer: 2
Width: 958
VWidth: 0
LBearingChange: 0
UnicodeEnc: 0
InstructionsLength: 0
SplineSet
50 1018 m 5
 50 1202 l 5
 335 1202 620 1202 905 1202 c 5
 905 1018 l 5
 570 1018 l 5
 570 0 l 5
 386 0 l 5
 386 1018 l 5
 274 1018 162 1018 50 1018 c 5
EndSplineSet
EndUndoOperation
UndoOperation
Index: 3
Type: 1
WasModified: 1
WasOrder2: 0
Layer: 2
Width: 958
VWidth: 0
LBearingChange: 0
UnicodeEnc: 0
InstructionsLength: 0
SplineSet
50 1018 m 5
 50 1202 l 5
 335 1202 620 1202 905 1202 c 5
 905 1018 l 5
 570 1018 l 5
 570 0 l 5
 386 0 l 5
 386 1018 l 5
 274 1018 162 1018 50 1018 c 5
EndSplineSet
EndUndoOperation
UndoOperation
Index: 4
Type: 1
WasModified: 0
WasOrder2: 0
Layer: 2
Width: 958
VWidth: 0
LBearingChange: 0
UnicodeEnc: 0
InstructionsLength: 0
SplineSet
50 1018 m 5
 50 1202 l 5
 335 1202 620 1202 905 1202 c 5
 905 1018 l 5
 570 1018 l 5
 570 0 l 5
 386 0 l 5
 386 1018 l 5
 274 1018 162 1018 50 1018 c 5
EndSplineSet
EndUndoOperation
UndoOperation
Index: 5
Type: 7
WasModified: 1
WasOrder2: 0
Layer: 2
Width: 2015
EndUndoOperation
EndUndoes
Redoes
EndRedoes
EndUndoRedoHistory
Fore
SplineSet
40 1018 m 5
 40 1202 l 5
 325 1202 610 1202 895 1202 c 5
 895 1018 l 5
 560 1018 l 5
 560 0 l 5
 376 0 l 5
 376 1018 l 5
 264 1018 152 1018 40 1018 c 5
EndSplineSet
EndChar

StartChar: V
Encoding: 86 86 216
Width: 1072
VWidth: 0
Flags: HW
LayerCount: 2
UndoRedoHistory
Layer: 1
Undoes
UndoOperation
Index: 0
Type: 7
WasModified: 1
WasOrder2: 0
Layer: 2
Width: 1083
EndUndoOperation
UndoOperation
Index: 1
Type: 3
WasModified: 0
WasOrder2: 0
Layer: 2
EndUndoOperation
UndoOperation
Index: 2
Type: 1
WasModified: 1
WasOrder2: 0
Layer: 2
Width: 1093
VWidth: 0
LBearingChange: 0
UnicodeEnc: 0
InstructionsLength: 0
SplineSet
446 0 m 5
 311 401 175 801 40 1202 c 5
 237 1202 l 5
 547 213 l 5
 856 1202 l 5
 1052 1202 l 5
 917 801 781 401 646 0 c 5
 579 0 513 0 446 0 c 5
EndSplineSet
EndUndoOperation
UndoOperation
Index: 3
Type: 1
WasModified: 1
WasOrder2: 0
Layer: 2
Width: 1093
VWidth: 0
LBearingChange: 0
UnicodeEnc: 0
InstructionsLength: 0
SplineSet
446 0 m 5
 311 401 175 801 40 1202 c 5
 237 1202 l 5
 547 213 l 5
 856 1202 l 5
 1052 1202 l 5
 917 801 781 401 646 0 c 5
 579 0 513 0 446 0 c 5
EndSplineSet
EndUndoOperation
UndoOperation
Index: 4
Type: 1
WasModified: 0
WasOrder2: 0
Layer: 2
Width: 1093
VWidth: 0
LBearingChange: 0
UnicodeEnc: 0
InstructionsLength: 0
SplineSet
446 0 m 5
 311 401 175 801 40 1202 c 5
 237 1202 l 5
 547 213 l 5
 856 1202 l 5
 1052 1202 l 5
 917 801 781 401 646 0 c 5
 579.333007812 0 512.666992188 0 446 0 c 5
EndSplineSet
EndUndoOperation
UndoOperation
Index: 5
Type: 7
WasModified: 1
WasOrder2: 0
Layer: 2
Width: 2112
EndUndoOperation
EndUndoes
Redoes
EndRedoes
EndUndoRedoHistory
Fore
SplineSet
436 0 m 5
 301 401 165 801 30 1202 c 5
 227 1202 l 5
 537 213 l 5
 846 1202 l 5
 1042 1202 l 5
 907 801 771 401 636 0 c 5
 436 0 l 5
EndSplineSet
EndChar

StartChar: W
Encoding: 87 87 217
Width: 1237
VWidth: 0
Flags: HW
LayerCount: 2
UndoRedoHistory
Layer: 1
Undoes
UndoOperation
Index: 0
Type: 7
WasModified: 1
WasOrder2: 0
Layer: 2
Width: 1247
EndUndoOperation
UndoOperation
Index: 1
Type: 3
WasModified: 0
WasOrder2: 0
Layer: 2
EndUndoOperation
UndoOperation
Index: 2
Type: 1
WasModified: 1
WasOrder2: 0
Layer: 2
Width: 1256
VWidth: 0
LBearingChange: 0
UnicodeEnc: 0
InstructionsLength: 0
SplineSet
234 0 m 5
 170 401 106 801 42 1202 c 5
 209 1202 l 5
 251 952 341 278 341 278 c 5
 341 278 485 868 530 1090 c 5
 719 1090 l 5
 762 876 918 277 918 277 c 5
 918 277 1000 943 1044 1202 c 5
 1211 1202 l 5
 1147 801 1083 401 1019 0 c 5
 827 0 l 5
 772 215 628 802 628 802 c 5
 563 580 485 224 426 0 c 5
 234 0 l 5
EndSplineSet
EndUndoOperation
UndoOperation
Index: 3
Type: 1
WasModified: 1
WasOrder2: 0
Layer: 2
Width: 1256
VWidth: 0
LBearingChange: 0
UnicodeEnc: 0
InstructionsLength: 0
SplineSet
234 0 m 5
 170 401 106 801 42 1202 c 5
 209 1202 l 5
 251 952 341 278 341 278 c 5
 341 278 485 868 530 1090 c 5
 719 1090 l 5
 762 876 918 277 918 277 c 5
 918 277 1000 943 1044 1202 c 5
 1211 1202 l 5
 1147 801 1083 401 1019 0 c 5
 827 0 l 5
 772 215 628 802 628 802 c 5
 563 580 485 224 426 0 c 5
 234 0 l 5
EndSplineSet
EndUndoOperation
UndoOperation
Index: 4
Type: 1
WasModified: 0
WasOrder2: 0
Layer: 2
Width: 1256
VWidth: 0
LBearingChange: 0
UnicodeEnc: 0
InstructionsLength: 0
SplineSet
234 0 m 5
 170 401 106 801 42 1202 c 5
 209 1202 l 5
 251 952 341 278 341 278 c 5
 341 278 485 868 530 1090 c 5
 719 1090 l 5
 762 876 918 277 918 277 c 5
 918 277 1000 943 1044 1202 c 5
 1211 1202 l 5
 1147 801 1083 401 1019 0 c 5
 827 0 l 5
 772 215 628 802 628 802 c 5
 563 580 485 224 426 0 c 5
 234 0 l 5
EndSplineSet
EndUndoOperation
UndoOperation
Index: 5
Type: 7
WasModified: 1
WasOrder2: 0
Layer: 2
Width: 2085
EndUndoOperation
EndUndoes
Redoes
EndRedoes
EndUndoRedoHistory
Fore
SplineSet
225 0 m 5
 161 401 97 801 33 1202 c 5
 200 1202 l 5
 242 952 332 278 332 278 c 5
 332 278 476 868 521 1090 c 5
 710 1090 l 5
 753 876 909 277 909 277 c 5
 909 277 991 943 1035 1202 c 5
 1202 1202 l 5
 1138 801 1074 401 1010 0 c 5
 818 0 l 5
 763 215 619 802 619 802 c 5
 554 580 476 224 417 0 c 5
 225 0 l 5
EndSplineSet
EndChar

StartChar: X
Encoding: 88 88 218
Width: 1047
VWidth: 0
Flags: HW
LayerCount: 2
UndoRedoHistory
Layer: 1
Undoes
UndoOperation
Index: 0
Type: 7
WasModified: 1
WasOrder2: 0
Layer: 2
Width: 1058
EndUndoOperation
UndoOperation
Index: 1
Type: 3
WasModified: 0
WasOrder2: 0
Layer: 2
EndUndoOperation
UndoOperation
Index: 2
Type: 1
WasModified: 1
WasOrder2: 0
Layer: 2
Width: 1066
VWidth: 0
LBearingChange: 0
UnicodeEnc: 0
InstructionsLength: 0
SplineSet
539 789 m 5
 811 1226 l 5
 1027 1226 l 5
 645 623 l 5
 645 623 903 201 1025 0 c 5
 813 0 l 5
 539 462 l 5
 250 0 l 5
 34 0 l 5
 437 623 l 5
 92 1202 l 5
 285 1202 l 5
 539 789 l 5
EndSplineSet
EndUndoOperation
UndoOperation
Index: 3
Type: 1
WasModified: 1
WasOrder2: 0
Layer: 2
Width: 1066
VWidth: 0
LBearingChange: 0
UnicodeEnc: 0
InstructionsLength: 0
SplineSet
539 789 m 5
 811 1226 l 5
 1027 1226 l 5
 645 623 l 5
 645 623 903 201 1025 0 c 5
 813 0 l 5
 539 462 l 5
 250 0 l 5
 34 0 l 5
 437 623 l 5
 92 1202 l 5
 285 1202 l 5
 539 789 l 5
EndSplineSet
EndUndoOperation
UndoOperation
Index: 4
Type: 1
WasModified: 0
WasOrder2: 0
Layer: 2
Width: 1066
VWidth: 0
LBearingChange: 0
UnicodeEnc: 0
InstructionsLength: 0
SplineSet
539 789 m 5
 811 1226 l 5
 1027 1226 l 5
 645 623 l 5
 645 623 903 201 1025 0 c 5
 813 0 l 5
 539 462 l 5
 250 0 l 5
 34 0 l 5
 437 623 l 5
 92 1202 l 5
 285 1202 l 5
 539 789 l 5
EndSplineSet
EndUndoOperation
UndoOperation
Index: 5
Type: 7
WasModified: 1
WasOrder2: 0
Layer: 2
Width: 1999
EndUndoOperation
EndUndoes
Redoes
EndRedoes
EndUndoRedoHistory
Fore
SplineSet
531 789 m 5
 803 1226 l 5
 1019 1226 l 5
 637 623 l 5
 637 623 895 201 1017 0 c 5
 805 0 l 5
 531 462 l 5
 242 0 l 5
 26 0 l 5
 429 623 l 5
 84 1202 l 5
 277 1202 l 5
 531 789 l 5
EndSplineSet
EndChar

StartChar: b
Encoding: 98 98 220
Width: 956
VWidth: 0
Flags: HW
LayerCount: 2
UndoRedoHistory
Layer: 1
Undoes
UndoOperation
Index: 0
Type: 7
WasModified: 1
WasOrder2: 0
Layer: 2
Width: 962
EndUndoOperation
UndoOperation
Index: 1
Type: 3
WasModified: 0
WasOrder2: 0
Layer: 2
EndUndoOperation
UndoOperation
Index: 2
Type: 1
WasModified: 1
WasOrder2: 0
Layer: 2
Width: 963
VWidth: 0
LBearingChange: 0
UnicodeEnc: 0
InstructionsLength: 0
SplineSet
73 1251 m 5
 262 1251 l 5
 262 737 l 5
 329 785 411 813 499 813 c 4
 724 813 905 632 905 407 c 4
 905 182 724 0 499 0 c 4
 410 0 328 29 261 77 c 5
 261 8 l 5
 73 8 l 5
 73 1251 l 5
499 626 m 4
 372 626 276 524 276 403 c 4
 276 280 376 181 499 181 c 4
 622 181 721 280 721 403 c 4
 721 526 622 626 499 626 c 4
EndSplineSet
EndUndoOperation
UndoOperation
Index: 3
Type: 1
WasModified: 1
WasOrder2: 0
Layer: 2
Width: 963
VWidth: 0
LBearingChange: 0
UnicodeEnc: 0
InstructionsLength: 0
SplineSet
73 1251 m 5
 262 1251 l 5
 262 737 l 5
 329 785 411 813 499 813 c 4
 724 813 905 632 905 407 c 4
 905 182 724 0 499 0 c 4
 410 0 328 29 261 77 c 5
 261 8 l 5
 73 8 l 5
 73 1251 l 5
499 626 m 4
 372 626 276 524 276 403 c 4
 276 280 376 181 499 181 c 4
 622 181 721 280 721 403 c 4
 721 526 622 626 499 626 c 4
EndSplineSet
EndUndoOperation
UndoOperation
Index: 4
Type: 1
WasModified: 0
WasOrder2: 0
Layer: 2
Width: 963
VWidth: 0
LBearingChange: 0
UnicodeEnc: 0
InstructionsLength: 0
SplineSet
73 1251 m 5
 262 1251 l 5
 262 737 l 5
 329 785 411 813 499 813 c 4
 724 813 905 632 905 407 c 4
 905 182 724 0 499 0 c 4
 410 0 328 29 261 77 c 5
 261 8 l 5
 73 8 l 5
 73 1251 l 5
499 626 m 4
 372.178710938 626 276 523.783203125 276 403 c 4
 276 280 376 181 499 181 c 4
 622 181 721 280 721 403 c 4
 721 526 622 626 499 626 c 4
EndSplineSet
EndUndoOperation
UndoOperation
Index: 5
Type: 7
WasModified: 1
WasOrder2: 0
Layer: 2
Width: 2094
EndUndoOperation
EndUndoes
Redoes
EndRedoes
EndUndoRedoHistory
Fore
SplineSet
72 1251 m 5
 261 1251 l 5
 261 737 l 5
 328 785 410 813 498 813 c 4
 723 813 904 632 904 407 c 4
 904 182 723 0 498 0 c 4
 409 0 327 29 260 77 c 5
 260 8 l 5
 72 8 l 5
 72 1251 l 5
498 626 m 4
 371 626 275 524 275 403 c 4
 275 280 375 181 498 181 c 4
 621 181 720 280 720 403 c 4
 720 526 621 626 498 626 c 4
EndSplineSet
EndChar

StartChar: c
Encoding: 99 99 221
Width: 827
VWidth: 0
Flags: HW
LayerCount: 2
UndoRedoHistory
Layer: 1
Undoes
UndoOperation
Index: 0
Type: 7
WasModified: 1
WasOrder2: 0
Layer: 2
Width: 835
EndUndoOperation
UndoOperation
Index: 1
Type: 3
WasModified: 0
WasOrder2: 0
Layer: 2
EndUndoOperation
UndoOperation
Index: 2
Type: 1
WasModified: 1
WasOrder2: 0
Layer: 2
Width: 842
VWidth: 0
LBearingChange: 0
UnicodeEnc: 0
InstructionsLength: 0
SplineSet
470 0 m 4
 222 0 54 204 54 416 c 4
 54 424 55 431 55 439 c 4
 61 649 251 831 460 832 c 4
 463 832 466 832 469 832 c 4
 593 832 718 774 795 675 c 5
 743 639 691 605 640 568 c 5
 598 617 535 642 471 642 c 4
 335 642 244 534 244 414 c 4
 244 279 352 190 472 190 c 4
 529 190 586 210 626 250 c 5
 663 220 699 190 736 160 c 4
 746 148 762 142 771 129 c 5
 695 45 583 0 470 0 c 4
EndSplineSet
EndUndoOperation
UndoOperation
Index: 3
Type: 1
WasModified: 1
WasOrder2: 0
Layer: 2
Width: 842
VWidth: 0
LBearingChange: 0
UnicodeEnc: 0
InstructionsLength: 0
SplineSet
470 0 m 4
 222 0 54 204 54 416 c 4
 54 424 55 431 55 439 c 4
 61 649 251 831 460 832 c 4
 463 832 466 832 469 832 c 4
 593 832 718 774 795 675 c 5
 743 639 691 605 640 568 c 5
 598 617 535 642 471 642 c 4
 335 642 244 534 244 414 c 4
 244 279 352 190 472 190 c 4
 529 190 586 210 626 250 c 5
 663 220 699 190 736 160 c 4
 746 148 762 142 771 129 c 5
 695 45 583 0 470 0 c 4
EndSplineSet
EndUndoOperation
UndoOperation
Index: 4
Type: 1
WasModified: 0
WasOrder2: 0
Layer: 2
Width: 842
VWidth: 0
LBearingChange: 0
UnicodeEnc: 0
InstructionsLength: 0
SplineSet
470 0 m 4
 222.391601562 0 54 203.795898438 54 416 c 4
 54 424 55 431 55 439 c 4
 61 649 251 831 460 832 c 4
 463 832 466 832 469 832 c 4
 593 832 718 774 795 675 c 5
 743 639 691 605 640 568 c 5
 598 617 535 642 471 642 c 4
 334.92578125 642 244 534.213867188 244 414 c 4
 244 278.958984375 352.311523438 190 472 190 c 4
 529 190 586 210 626 250 c 5
 663 220 699 190 736 160 c 4
 746 148 762 142 771 129 c 5
 695 45 583 0 470 0 c 4
EndSplineSet
EndUndoOperation
UndoOperation
Index: 5
Type: 7
WasModified: 1
WasOrder2: 0
Layer: 2
Width: 2029
EndUndoOperation
EndUndoes
Redoes
EndRedoes
EndUndoRedoHistory
Fore
SplineSet
463 0 m 4
 215 0 47 204 47 416 c 4
 47 424 48 431 48 439 c 4
 54 649 244 831 453 832 c 4
 456 832 459 832 462 832 c 4
 586 832 711 774 788 675 c 5
 736 639 684 605 633 568 c 5
 591 617 528 642 464 642 c 4
 328 642 237 534 237 414 c 4
 237 279 345 190 465 190 c 4
 522 190 579 210 619 250 c 5
 656 220 692 190 729 160 c 4
 739 148 755 142 764 129 c 5
 688 45 576 0 463 0 c 4
EndSplineSet
EndChar

StartChar: d
Encoding: 100 100 222
Width: 956
VWidth: 0
Flags: HW
LayerCount: 2
UndoRedoHistory
Layer: 1
Undoes
UndoOperation
Index: 0
Type: 3
WasModified: 0
WasOrder2: 0
Layer: 2
EndUndoOperation
UndoOperation
Index: 1
Type: 1
WasModified: 1
WasOrder2: 0
Layer: 2
Width: 963
VWidth: 0
LBearingChange: 0
UnicodeEnc: 0
InstructionsLength: 0
SplineSet
885 1243 m 5
 885 0 l 5
 697 0 l 5
 697 69 l 5
 630 21 549 -8 460 -8 c 4
 235 -8 53 174 53 399 c 4
 53 624 235 805 460 805 c 4
 548 805 629 777 696 729 c 5
 696 1243 l 5
 885 1243 l 5
682 395 m 4
 682 515 586 618 460 618 c 4
 337 618 237 518 237 395 c 4
 237 272 337 173 460 173 c 4
 583 173 682 272 682 395 c 4
EndSplineSet
EndUndoOperation
UndoOperation
Index: 2
Type: 1
WasModified: 1
WasOrder2: 0
Layer: 2
Width: 963
VWidth: 0
LBearingChange: 0
UnicodeEnc: 0
InstructionsLength: 0
SplineSet
885 1243 m 5
 885 0 l 5
 697 0 l 5
 697 69 l 5
 630 21 549 -8 460 -8 c 4
 235 -8 53 174 53 399 c 4
 53 624 235 805 460 805 c 4
 548 805 629 777 696 729 c 5
 696 1243 l 5
 885 1243 l 5
682 395 m 4
 682 515 586 618 460 618 c 4
 337 618 237 518 237 395 c 4
 237 272 337 173 460 173 c 4
 583 173 682 272 682 395 c 4
EndSplineSet
EndUndoOperation
UndoOperation
Index: 3
Type: 1
WasModified: 0
WasOrder2: 0
Layer: 2
Width: 963
VWidth: 0
LBearingChange: 0
UnicodeEnc: 0
InstructionsLength: 0
SplineSet
885 1243 m 5
 885 0 l 5
 697 0 l 5
 697 69 l 5
 630 21 549 -8 460 -8 c 4
 235 -8 53 174 53 399 c 4
 53 624 235 805 460 805 c 4
 548 805 629 777 696 729 c 5
 696 1243 l 5
 885 1243 l 5
682 395 m 4
 682 515.225585938 586.267578125 618 460 618 c 4
 337 618 237 518 237 395 c 4
 237 272 337 173 460 173 c 4
 583 173 682 272 682 395 c 4
EndSplineSet
EndUndoOperation
UndoOperation
Index: 4
Type: 7
WasModified: 1
WasOrder2: 0
Layer: 2
Width: 2090
EndUndoOperation
EndUndoes
Redoes
EndRedoes
EndUndoRedoHistory
Fore
SplineSet
878 1243 m 5
 878 0 l 5
 690 0 l 5
 690 69 l 5
 623 21 542 -8 453 -8 c 4
 228 -8 46 174 46 399 c 4
 46 624 228 805 453 805 c 4
 541 805 622 777 689 729 c 5
 689 1243 l 5
 878 1243 l 5
675 395 m 4
 675 515 579 618 453 618 c 4
 330 618 230 518 230 395 c 4
 230 272 330 173 453 173 c 4
 576 173 675 272 675 395 c 4
EndSplineSet
EndChar

StartChar: f
Encoding: 102 102 223
Width: 676
VWidth: 0
Flags: HW
LayerCount: 2
UndoRedoHistory
Layer: 1
Undoes
UndoOperation
Index: 0
Type: 7
WasModified: 1
WasOrder2: 0
Layer: 2
Width: 686
EndUndoOperation
UndoOperation
Index: 1
Type: 3
WasModified: 0
WasOrder2: 0
Layer: 2
EndUndoOperation
UndoOperation
Index: 2
Type: 1
WasModified: 1
WasOrder2: 0
Layer: 2
Width: 694
VWidth: 0
LBearingChange: 0
UnicodeEnc: 0
InstructionsLength: 0
SplineSet
164 965 m 6
 164 1091 279 1192 416 1192 c 4
 419 1192 422 1192 425 1192 c 4
 520 1192 611 1149 658 1063 c 5
 495 975 l 5
 488 988 457 1006 421 1006 c 4
 375 1006 353 978 353 965 c 6
 353 713 l 5
 530 713 l 5
 530 540 l 5
 353 540 l 5
 353 0 l 5
 164 0 l 5
 164 540 l 5
 47 540 l 5
 47 713 l 5
 164 713 l 5
 164 965 l 6
EndSplineSet
EndUndoOperation
UndoOperation
Index: 3
Type: 1
WasModified: 1
WasOrder2: 0
Layer: 2
Width: 694
VWidth: 0
LBearingChange: 0
UnicodeEnc: 0
InstructionsLength: 0
SplineSet
164 965 m 6
 164 1091 279 1192 416 1192 c 4
 419 1192 422 1192 425 1192 c 4
 520 1192 611 1149 658 1063 c 5
 495 975 l 5
 488 988 457 1006 421 1006 c 4
 375 1006 353 978 353 965 c 6
 353 713 l 5
 530 713 l 5
 530 540 l 5
 353 540 l 5
 353 0 l 5
 164 0 l 5
 164 540 l 5
 47 540 l 5
 47 713 l 5
 164 713 l 5
 164 965 l 6
EndSplineSet
EndUndoOperation
UndoOperation
Index: 4
Type: 1
WasModified: 0
WasOrder2: 0
Layer: 2
Width: 694
VWidth: 0
LBearingChange: 0
UnicodeEnc: 0
InstructionsLength: 0
SplineSet
164 965 m 6
 164 1090.69433594 279.345703125 1192 416 1192 c 4
 419 1192 422 1192 425 1192 c 4
 520 1192 611 1149 658 1063 c 5
 495 975 l 5
 488 988 457 1006 421 1006 c 4
 374.9375 1006 353 977.907226562 353 965 c 6
 353 713 l 5
 530 713 l 5
 530 540 l 5
 353 540 l 5
 353 0 l 5
 164 0 l 5
 164 540 l 5
 47 540 l 5
 47 713 l 5
 164 713 l 5
 164 965 l 6
EndSplineSet
EndUndoOperation
UndoOperation
Index: 5
Type: 7
WasModified: 1
WasOrder2: 0
Layer: 2
Width: 2070
EndUndoOperation
EndUndoes
Redoes
EndRedoes
EndUndoRedoHistory
Fore
SplineSet
156 965 m 6
 156 1091 271 1192 408 1192 c 4
 411 1192 414 1192 417 1192 c 4
 512 1192 603 1149 650 1063 c 5
 487 975 l 5
 480 988 449 1006 413 1006 c 4
 367 1006 345 978 345 965 c 6
 345 713 l 5
 522 713 l 5
 522 540 l 5
 345 540 l 5
 345 0 l 5
 156 0 l 5
 156 540 l 5
 39 540 l 5
 39 713 l 5
 156 713 l 5
 156 965 l 6
EndSplineSet
EndChar

